<?xml version="1.0" encoding="UTF-8" standalone="no"?>
<!-- Created with Inkscape (http://www.inkscape.org/) -->

<svg
   xmlns:dc="http://purl.org/dc/elements/1.1/"
   xmlns:cc="http://creativecommons.org/ns#"
   xmlns:rdf="http://www.w3.org/1999/02/22-rdf-syntax-ns#"
   xmlns:svg="http://www.w3.org/2000/svg"
   xmlns="http://www.w3.org/2000/svg"
   xmlns:sodipodi="http://sodipodi.sourceforge.net/DTD/sodipodi-0.dtd"
   xmlns:inkscape="http://www.inkscape.org/namespaces/inkscape"
   width="32"
   height="32"
   id="svg2"
   version="1.1"
   inkscape:version="0.48.4 r9939"
   sodipodi:docname="close.svg">
  <defs
     id="defs4" />
  <sodipodi:namedview
     id="base"
     pagecolor="#ffffff"
     bordercolor="#666666"
     borderopacity="1.0"
     inkscape:pageopacity="0.0"
     inkscape:pageshadow="2"
     inkscape:zoom="5.6"
     inkscape:cx="-8.9003117"
     inkscape:cy="30.131385"
     inkscape:document-units="px"
     inkscape:current-layer="g4441"
     showgrid="false"
     inkscape:window-width="1920"
     inkscape:window-height="1137"
     inkscape:window-x="-8"
     inkscape:window-y="-8"
     inkscape:window-maximized="1"
     inkscape:snap-center="true" />
  <metadata
     id="metadata7">
    <rdf:RDF>
      <cc:Work
         rdf:about="">
        <dc:format>image/svg+xml</dc:format>
        <dc:type
           rdf:resource="http://purl.org/dc/dcmitype/StillImage" />
        <dc:title />
      </cc:Work>
    </rdf:RDF>
  </metadata>
  <g
     inkscape:label="Layer 1"
     inkscape:groupmode="layer"
     id="layer1"
     transform="translate(0,-1020.3622)">
    <g
       id="g4441"
       transform="matrix(0.08748833,0,0,0.08742175,24.823021,929.59518)"
       style="fill:#000000">
      <path
         style="fill:#ffffff;fill-opacity:1;fill-rule:nonzero;stroke-width:0.5;stroke-miterlimit:4;stroke-dasharray:none"
         d="m -195.90667,1357.9139 c -5.10398,-1.258 -40.40475,-36.4274 -41.68419,-41.5291 -0.54721,-2.182 -0.51617,-5.8763 0.0686,-8.2096 0.61023,-2.4331 18.52078,-21.9658 41.99873,-45.8025 l 40.93477,-41.5602 -41.81664,-42.3879 c -52.04067,-52.7515 -50.21343,-46.5425 -22.00485,-74.7726 28.2283,-28.2498 22.18567,-29.9917 74.07395,21.3533 22.88875,22.6492 42.23648,41.1803 42.99495,41.1803 0.75845,0 19.697797,-18.1191 42.087399,-40.2646 24.258048,-23.9936 42.474712,-40.7082 45.079368,-41.3625 2.404036,-0.6038 6.2030069,-0.6377 8.4421379,-0.075 5.84479095,1.468 40.6923111,37.0382 41.8166211,42.6837 1.368542,6.8719 -3.146486,12.3025 -45.0060901,54.1321 -20.8074649,20.7925 -37.8317409,38.5097 -37.8317409,39.3716 0,0.8618 18.136961,19.8948 40.3043539,42.2955 22.1674011,22.4007 40.9345111,42.4333 41.7046961,44.5169 2.69032,7.2781 -0.184065,12.0881 -18.094073,30.279 -19.2228901,19.5243 -24.2081811,22.6842 -31.443965,19.9312 -2.463479,-0.9374 -22.726894,-19.828 -45.029838,-41.9791 -22.302932,-22.1512 -41.204199,-40.2749 -42.002819,-40.2749 -0.79862,0 -20.02555,18.401 -42.72652,40.891 -22.70096,22.4901 -42.78608,41.2617 -44.63358,41.7147 -1.8475,0.4529 -5.10172,0.3939 -7.23162,-0.131 l 0,0 z"
         id="path4866"
         inkscape:connector-curvature="0" />
    </g>
  </g>
</svg>
