<?xml version="1.0" encoding="UTF-8" standalone="no"?>
<!-- Created with Inkscape (http://www.inkscape.org/) -->

<svg
   xmlns:dc="http://purl.org/dc/elements/1.1/"
   xmlns:cc="http://creativecommons.org/ns#"
   xmlns:rdf="http://www.w3.org/1999/02/22-rdf-syntax-ns#"
   xmlns:svg="http://www.w3.org/2000/svg"
   xmlns="http://www.w3.org/2000/svg"
   xmlns:sodipodi="http://sodipodi.sourceforge.net/DTD/sodipodi-0.dtd"
   xmlns:inkscape="http://www.inkscape.org/namespaces/inkscape"
   width="32"
   height="32"
   id="svg2"
   version="1.1"
   inkscape:version="0.48.4 r9939"
   sodipodi:docname="ordered.svg">
  <defs
     id="defs4" />
  <sodipodi:namedview
     id="base"
     pagecolor="#ffffff"
     bordercolor="#666666"
     borderopacity="1.0"
     inkscape:pageopacity="0.0"
     inkscape:pageshadow="2"
     inkscape:zoom="5.6"
     inkscape:cx="-13.467539"
     inkscape:cy="19.173161"
     inkscape:document-units="px"
     inkscape:current-layer="g4441"
     showgrid="false"
     inkscape:window-width="1920"
     inkscape:window-height="1137"
     inkscape:window-x="-8"
     inkscape:window-y="-8"
     inkscape:window-maximized="1"
     inkscape:snap-center="true" />
  <metadata
     id="metadata7">
    <rdf:RDF>
      <cc:Work
         rdf:about="">
        <dc:format>image/svg+xml</dc:format>
        <dc:type
           rdf:resource="http://purl.org/dc/dcmitype/StillImage" />
        <dc:title />
      </cc:Work>
    </rdf:RDF>
  </metadata>
  <g
     inkscape:label="Layer 1"
     inkscape:groupmode="layer"
     id="layer1"
     transform="translate(0,-1020.3622)">
    <g
       id="g4441"
       transform="matrix(0.08748833,0,0,0.08742175,24.823021,929.59518)"
       style="fill:#000000">
      <g
         id="g4736"
         transform="matrix(0.04732136,0,0,0.04725023,-121.44697,1155.2209)"
         style="fill:#ffffff">
        <path
           style="fill:#ffffff"
           d="m -1720.2476,3245.9542 c 7.8261,-9.437 16.801,-17.1582 19.9443,-17.1582 3.1432,0 -0.6881,7.7212 -8.5142,17.1582 -7.8261,9.437 -16.801,17.1582 -19.9442,17.1582 -3.1433,0 0.688,-7.7212 8.5141,-17.1582 z m 3793.3338,-391.7789 c -14.2176,-18.1426 -13.8133,-18.5472 4.3155,-4.3188 11.0015,8.6345 20.0027,17.6426 20.0027,20.0179 0,9.4146 -9.3863,3.3551 -24.3182,-15.6991 z"
           id="path4740"
           inkscape:connector-curvature="0" />
        <path
           style="fill:#ffffff"
           d="m -2428.9135,4295.7057 c -30.5808,-11.6499 -33.9377,-29.4812 -34.1153,-181.2166 l -0.175,-149.5185 191.189,-176.4873 c 408.8038,-377.3686 631.7135,-607.8192 750.7152,-776.1119 173.078,-244.7672 189.3049,-517.5829 38.4709,-646.7896 -65.9723,-56.5127 -142.5306,-79.2971 -265.9941,-79.1618 -150.3405,0.1648 -275.4304,43.2891 -437.023,150.6623 -48.0068,31.899 -66.2297,38.5402 -80.6951,29.4087 -23.2805,-14.6961 -152.4995,-321.8953 -148.302,-352.5663 6.8363,-49.9532 215.8092,-172.5084 379.7403,-222.7043 256.9594,-78.6812 539.2626,-75.5908 744.8922,8.1545 196.2408,79.9216 327.83725,220.108 401.44341,427.6478 43.02813,121.3221 50.01592,331.1307 15.58916,468.0631 -28.3655,112.8235 -115.17342,294.0838 -191.27497,399.3938 -117.9232,163.1832 -303.85,361.3309 -532.9213,567.95 -42.4342,38.2751 -77.1531,72.847 -77.1531,76.8264 0,3.9794 191.8541,7.2353 426.3426,7.2353 316.35963,0 429.88083,3.541 440.05864,13.7265 9.60746,9.6148 13.71612,72.8101 13.71612,210.9693 0,190.8576 -0.82182,197.8189 -25.4035,215.0494 -22.42345,15.718 -117.2857,17.7009 -808.67926,16.9037 -430.8017,-0.4967 -790.9911,-3.8422 -800.4209,-7.4345 z M 2250.4248,3010.5761 c -97.8482,-77.5112 -414.0848,-389.0543 -538.0136,-530.0284 -171.1962,-194.7428 -356.1317,-440.8022 -365.1253,-485.8046 -9.0646,-45.3577 12.4786,-97.4457 51.181,-123.747 26.289,-17.8655 61.8918,-21.0528 270.3089,-24.199 132.0176,-1.9929 243.4886,-7.1404 247.7132,-11.4388 13.1533,-13.3829 31.8538,-370.8428 55.1642,-1054.46564 12.3352,-361.75208 25.7882,-695.933094 29.8956,-742.624449 8.7808,-99.816005 26.5694,-122.410153 128.6013,-163.341841 54.7319,-21.95655 85.9146,-25.87342 207.5267,-26.06754 138.8427,-0.22191 145.3901,0.89223 219.2531,37.28202 85.7968,42.269805 93.8286,56.395122 105.5035,185.546161 3.6968,40.893709 19.6147,365.183719 35.3731,720.644449 29.1374,657.24534 45.8292,948.39484 58.2017,1015.19354 l 6.8858,37.1761 218.7573,0.069 c 239.4273,0.069 291.6467,8.5936 326.8233,53.3473 56.454,71.8244 29.2444,129.513 -191.8751,406.8074 -124.76,156.455 -596.3869,640.747 -686.5798,705.0174 -67.3266,47.9762 -119.6028,48.1622 -179.5949,0.6394 z M -1832.2625,904.43171 c -10.4459,-10.45381 -13.7161,-238.18123 -13.7161,-955.139867 0,-517.777313 -2.6323,-941.413303 -5.8495,-941.413303 -3.2172,0 -88.0252,41.17968 -188.4622,91.5104 -100.4369,50.33073 -189.7586,91.51041 -198.4927,91.51041 -29.5529,0 -41.5646,-30.67042 -81.124,-207.14155 -32.385,-144.4661 -36.8018,-178.7382 -24.6147,-190.9932 8.1688,-8.2143 144.8336,-78.9918 303.6997,-157.2835 l 288.8473,-142.3486 196.4591,0 c 137.5613,0 200.5711,4.1152 210.1751,13.7266 19.901,19.916 19.901,2377.65651 0,2397.57261 -9.7582,9.76565 -80.0106,13.72656 -243.461,13.72656 -163.4504,0 -233.7028,-3.96091 -243.461,-13.72656 z"
           id="path4738"
           inkscape:connector-curvature="0" />
      </g>
    </g>
  </g>
</svg>
