<?xml version="1.0" encoding="UTF-8" standalone="no"?>
<!-- Created with Inkscape (http://www.inkscape.org/) -->

<svg
   xmlns:dc="http://purl.org/dc/elements/1.1/"
   xmlns:cc="http://creativecommons.org/ns#"
   xmlns:rdf="http://www.w3.org/1999/02/22-rdf-syntax-ns#"
   xmlns:svg="http://www.w3.org/2000/svg"
   xmlns="http://www.w3.org/2000/svg"
   xmlns:sodipodi="http://sodipodi.sourceforge.net/DTD/sodipodi-0.dtd"
   xmlns:inkscape="http://www.inkscape.org/namespaces/inkscape"
   width="32"
   height="32"
   id="svg2"
   version="1.1"
   inkscape:version="0.48.4 r9939"
   sodipodi:docname="random.svg">
  <defs
     id="defs4" />
  <sodipodi:namedview
     id="base"
     pagecolor="#ffffff"
     bordercolor="#666666"
     borderopacity="1.0"
     inkscape:pageopacity="0.0"
     inkscape:pageshadow="2"
     inkscape:zoom="5.6"
     inkscape:cx="-13.467539"
     inkscape:cy="19.173161"
     inkscape:document-units="px"
     inkscape:current-layer="g4441"
     showgrid="false"
     inkscape:window-width="1920"
     inkscape:window-height="1137"
     inkscape:window-x="-8"
     inkscape:window-y="-8"
     inkscape:window-maximized="1"
     inkscape:snap-center="true" />
  <metadata
     id="metadata7">
    <rdf:RDF>
      <cc:Work
         rdf:about="">
        <dc:format>image/svg+xml</dc:format>
        <dc:type
           rdf:resource="http://purl.org/dc/dcmitype/StillImage" />
        <dc:title />
      </cc:Work>
    </rdf:RDF>
  </metadata>
  <g
     inkscape:label="Layer 1"
     inkscape:groupmode="layer"
     id="layer1"
     transform="translate(0,-1020.3622)">
    <g
       id="g4441"
       transform="matrix(0.08748833,0,0,0.08742175,24.823021,929.59518)"
       style="fill:#000000">
      <path
         style="fill:#ffffff"
         d="m -31.139955,1358.1455 c -1.701587,-0.7532 -3.102988,-2.0371 -4.217906,-3.8645 -1.087444,-1.7824 -1.149465,-2.5696 -1.151423,-14.6115 l 0,-12.7275 -10.644111,-0.2504 c -8.885809,-0.209 -11.307075,-0.4457 -14.657387,-1.433 -13.086536,-3.8564 -21.994639,-11.6502 -34.221537,-29.9407 -6.203641,-9.2803 -8.054911,-12.8546 -8.983641,-17.3455 -0.8237,-3.9827 -0.12404,-8.4223 1.98119,-12.5715 1.78489,-3.5179 6.302541,-7.8753 9.900935,-9.5498 2.622108,-1.2201 3.712139,-1.3972 8.658629,-1.4068 9.823823,-0.019 12.871864,2.1537 21.805104,15.5424 3.378606,5.0638 7.323735,10.5185 8.766946,12.1218 l 2.623938,2.9151 7.384999,0.2501 7.384935,0.2502 0,-12.7807 c 0,-12.0204 0.06789,-12.9012 1.141444,-14.8089 1.635146,-2.9056 4.721587,-4.5032 8.077836,-4.1811 1.456663,0.1398 3.070335,0.6148 3.586079,1.0556 0.515743,0.4409 13.192514,10.5039 28.1706176,22.3624 14.9780304,11.8585 28.2562504,22.6697 29.5070904,24.025 3.53871,3.8342 3.10513,6.957 -1.58987,11.4497 -1.88158,1.8005 -46.357046,37.298 -55.326159,44.1577 -1.903565,1.456 -2.794275,1.7765 -4.850491,1.7457 -1.385295,-0.021 -2.890653,-0.2025 -3.34526,-0.4038 z m -192.230385,-32.0967 c -5.52299,-1.7239 -10.4631,-6.0951 -13.00234,-11.5049 -1.25298,-2.6694 -1.4338,-3.7336 -1.4338,-8.4374 0,-4.7134 0.17955,-5.7652 1.44441,-8.4603 2.00727,-4.2773 5.66648,-7.9942 10.01651,-10.1745 l 3.62947,-1.8191 20.40624,-0.2691 20.40622,-0.2692 2.44098,-2.6912 c 4.49245,-4.9532 13.30411,-19.034 45.13665,-72.1271 32.96818,-54.9873 41.186418,-68.0287 47.921524,-76.0459 6.30608,-7.5065 13.25624,-12.7444 20.563113,-15.497 5.921704,-2.2308 10.767836,-2.9221 20.484923,-2.9221 l 8.845198,0 0,-12.7364 c 0,-12.5674 0.01768,-12.7664 1.328959,-15.0013 2.566844,-4.3744 8.116488,-5.3885 12.238015,-2.2363 4.524473,3.4605 53.017821,41.984 54.878751,43.5963 5.65259,4.8969 5.77278,8.5579 0.44748,13.6294 -1.28362,1.2223 -11.91345,9.8097 -23.6220204,19.0829 -37.0348866,29.3318 -33.6911426,26.8691 -36.4806176,26.8691 -3.169871,0 -6.178249,-1.6944 -7.649186,-4.3083 -1.073486,-1.9076 -1.141381,-2.7887 -1.141381,-14.8011 l 0,-12.7728 -7.352093,0.2146 -7.352094,0.2145 -2.325393,2.5652 c -5.515349,6.0843 -9.345405,12.1893 -44.968847,71.6797 -31.006951,51.7808 -35.060711,58.3905 -41.265111,67.2826 -11.74418,16.8319 -21.11397,24.0626 -34.81793,26.8697 -5.56007,1.1388 -45.17102,1.1957 -48.77763,0.07 z m 75.8368,-127.5575 c -5.55558,-1.5438 -9.94888,-5.0531 -13.47357,-10.7622 -10.12281,-16.3964 -17.04082,-26.4966 -19.93614,-29.1063 -1.13778,-1.0255 -2.15525,-1.0892 -21.48357,-1.3456 l -20.28927,-0.2691 -3.62947,-1.8191 c -7.15794,-3.5876 -11.2844,-9.8494 -11.63852,-17.6608 -0.40257,-8.8799 4.06317,-16.1809 12.23915,-20.0096 l 3.02884,-1.4185 21.28823,-0.1695 c 23.5826,-0.1878 26.65117,0.064 33.97207,2.7934 13.14849,4.9012 22.27278,14.8842 39.85246,43.6035 5.21535,8.52 6.11231,11.1435 5.83341,17.0619 -0.1728,3.6678 -0.52635,5.2491 -1.71712,7.6799 -4.4365,9.0564 -14.8168,13.987 -24.0465,11.422 z"
         id="path4723"
         inkscape:connector-curvature="0" />
    </g>
  </g>
</svg>
