<?xml version="1.0" encoding="UTF-8" standalone="no"?>
<!-- Created with Inkscape (http://www.inkscape.org/) -->

<svg
   xmlns:dc="http://purl.org/dc/elements/1.1/"
   xmlns:cc="http://creativecommons.org/ns#"
   xmlns:rdf="http://www.w3.org/1999/02/22-rdf-syntax-ns#"
   xmlns:svg="http://www.w3.org/2000/svg"
   xmlns="http://www.w3.org/2000/svg"
   xmlns:sodipodi="http://sodipodi.sourceforge.net/DTD/sodipodi-0.dtd"
   xmlns:inkscape="http://www.inkscape.org/namespaces/inkscape"
   width="32"
   height="32"
   id="svg2"
   version="1.1"
   inkscape:version="0.48.4 r9939"
   sodipodi:docname="settings.svg">
  <defs
     id="defs4" />
  <sodipodi:namedview
     id="base"
     pagecolor="#ffffff"
     bordercolor="#666666"
     borderopacity="1.0"
     inkscape:pageopacity="0.0"
     inkscape:pageshadow="2"
     inkscape:zoom="5.6568543"
     inkscape:cx="47.627676"
     inkscape:cy="73.46322"
     inkscape:document-units="px"
     inkscape:current-layer="g4441"
     showgrid="false"
     inkscape:window-width="1920"
     inkscape:window-height="1137"
     inkscape:window-x="-8"
     inkscape:window-y="-8"
     inkscape:window-maximized="1"
     inkscape:snap-center="true" />
  <metadata
     id="metadata7">
    <rdf:RDF>
      <cc:Work
         rdf:about="">
        <dc:format>image/svg+xml</dc:format>
        <dc:type
           rdf:resource="http://purl.org/dc/dcmitype/StillImage" />
        <dc:title></dc:title>
      </cc:Work>
    </rdf:RDF>
  </metadata>
  <g
     inkscape:label="Layer 1"
     inkscape:groupmode="layer"
     id="layer1"
     transform="translate(0,-1020.3622)">
    <g
       id="g4441"
       transform="matrix(0.08748833,0,0,0.08742175,24.823021,929.59518)"
       style="fill:#000000">
      <g
         id="g3034"
         transform="matrix(0.04729302,0,0,0.04738321,-109.18035,1161.231)"
         style="fill:#ffffff">
        <path
           style="fill:#ffffff"
           d="m -2164.1281,3606.2767 -165.5885,-168.7223 168.5939,165.7147 c 156.6191,153.9443 173.7687,171.7299 165.5886,171.7299 -1.653,0 -77.5203,-75.9251 -168.594,-168.7223 z m 0.1479,-2696.69732 c 90.9924,-91.22444 168.0125,-165.86261 171.1557,-165.86261 3.1433,0 -68.7332,74.63817 -159.7256,165.86261 -90.9924,91.22442 -168.0125,165.86262 -171.1558,165.86262 -3.1432,0 68.7333,-74.6382 159.7257,-165.86262 z M 2408.0581,520.66015 c 7.826,-9.43701 16.801,-17.1582 19.9442,-17.1582 3.1433,0 -0.6881,7.72119 -8.5141,17.1582 -7.8261,9.43701 -16.801,17.1582 -19.9443,17.1582 -3.1433,0 0.6881,-7.72119 8.5142,-17.1582 z"
           id="path3038"
           inkscape:connector-curvature="0" />
        <path
           style="fill:#ffffff"
           d="m -1095.1845,3898.1928 c -23.9089,-146.3983 -46.973,-272.9736 -51.2537,-281.2783 -4.2807,-8.3048 -52.2726,-30.061 -106.6488,-48.3474 -54.376,-18.2863 -136.2667,-52.609 -181.9792,-76.2727 -45.7125,-23.6636 -88.9471,-42.4715 -96.0768,-41.7952 -7.1298,0.676 -114.3375,72.1771 -238.2394,158.8908 l -225.2763,157.6611 -165.1201,-165.2459 -165.1201,-165.2458 160.47,-224.731 c 88.2585,-123.602 160.47,-229.4183 160.47,-235.1475 0,-5.729 -22.4971,-55.2711 -49.9936,-110.0935 -27.4965,-54.8225 -62.1166,-139.8637 -76.9336,-188.9805 l -26.9399,-89.3033 -283.1144,-49.3829 -283.1145,-49.3829 0,-232.3376 c 0,-127.7857 1.2859,-232.6315 2.8575,-232.9907 1.5717,-0.3592 128.4447,-22.2357 281.9402,-48.6149 l 279.0826,-47.962 32.4817,-96.9931 c 17.865,-53.3462 53.5601,-139.5758 79.3226,-191.6212 25.7625,-52.0455 44.2668,-101.341 41.1208,-109.5456 -3.146,-8.2046 -73.1304,-110.9773 -155.521,-228.3838 -82.3905,-117.4063 -149.801,-217.5604 -149.801,-222.5643 0,-5.0039 73.2955,-81.96573 162.8789,-171.02628 l 162.8789,-161.92835 228.1906,163.83279 228.1907,163.83284 89.3378,-44.9525 c 49.1359,-24.7238 133.465,-59.79207 187.3983,-77.92954 53.9332,-18.13737 101.9754,-37.30525 106.7603,-42.59501 4.7849,-5.28987 28.3262,-131.97173 52.3139,-281.51506 l 43.6143,-271.8971 235.02404,3.08528 235.02403,3.08527 47.68727,272.66269 c 26.22796,149.96451 50.36717,275.34475 53.6427,278.62276 3.2754,3.27802 50.94085,21.08835 105.92315,39.5786 54.98219,18.49013 139.90083,54.40981 188.70802,79.82141 l 88.740409,46.2031 L 135.51101,910.35642 367.28009,743.30749 532.10596,908.25877 696.93171,1073.2101 535.21632,1303.0143 c -88.94341,126.3923 -161.71528,234.6394 -161.71528,240.5492 0,5.9097 22.26228,56.5202 49.47185,112.4677 27.20946,55.9476 61.30909,140.3318 75.77685,187.5207 l 26.30499,85.7977 281.41364,45.4119 281.41363,45.4118 3.0828,234.6675 3.0828,234.6673 -283.12012,49.071 c -155.71608,26.9891 -283.69852,49.8434 -284.40547,50.7875 -0.70638,0.9437 -12.52612,37.7487 -26.26476,81.7881 -13.73874,44.0394 -48.92801,130.5938 -78.19842,192.3432 -37.89191,79.9374 -50.0788,116.9982 -42.31582,128.6837 5.9968,9.0265 81.02292,113.5981 166.72486,232.3811 l 155.82158,215.9692 -161.67973,161.5141 c -88.92374,88.8328 -165.25438,161.5142 -169.62342,161.5142 -4.36915,0 -111.03732,-72.5488 -237.04041,-161.2194 l -229.096495,-161.2194 -105.719465,52.0751 c -58.14582,28.6412 -141.72439,63.4136 -185.73026,77.272 -44.00587,13.8584 -84.05144,28.6686 -88.99015,32.9116 -4.93872,4.243 -30.71873,130.813 -57.2889,281.2666 l -48.30941,273.5521 -235.26258,3.0864 -235.26253,3.0863 -43.4706,-266.1787 z m 446.14803,-987.0706 c 124.48289,-31.8048 209.35352,-81.8073 308.50011,-181.7566 66.23718,-66.7734 102.29479,-114.4984 129.54608,-171.464 216.2839271,-452.1158 -102.88069,-968.4556 -598.06753,-967.5445 -173.7738,0.3203 -335.75479,61.904 -458.77599,174.4241 -284.715,260.4117 -284.715,728.7416 0,989.1534 73.544,67.2663 197.2729,134.3674 288.52529,156.4742 89.76683,21.7468 246.62169,22.0857 330.27204,0.7138 z M 1111.1803,1118.5451 c -87.7708,-36.8557 -161.10203,-68.5303 -162.95851,-70.3882 -1.85636,-1.8578 19.01785,-98.14102 46.38733,-213.96265 l 49.76248,-210.58489 -41.1102,-33.88173 C 951.60544,547.1547 890.93255,486.42188 849.62682,435.9413 L 817.74474,396.97777 615.62555,440.16989 C 504.45999,463.92564 408.82015,484.033 403.09252,484.85293 388.3357,486.96545 258.66915,168.0232 269.72285,156.80185 c 5.01439,-5.0905 85.38076,-56.58603 178.59182,-114.434449 l 169.47471,-105.178973 0.94756,-167.519748 0.94755,-167.51975 -174.5267,-112.12439 c -95.98971,-61.6684 -174.51973,-117.52386 -174.51116,-124.12322 0.0343,-22.30837 124.01906,-308.84176 135.2673,-312.59404 6.13659,-2.04707 100.77355,17.51378 210.30427,43.46857 l 199.14679,47.19054 116.85375,-116.94277 116.85376,-116.94282 -41.051,-189.886 c -22.57794,-104.4373 -43.57869,-198.2985 -46.66836,-208.5806 -4.46128,-14.8468 27.72919,-32.0477 156.40016,-83.572 116.1502,-46.5106 165.5173,-61.3753 174.3792,-52.5066 6.7988,6.804 58.7796,87.45 115.5127,179.2133 l 103.1513,166.8425 165.7364,0.6171 165.7363,0.617 108.586,-172.7091 c 59.7222,-94.99 111.6484,-175.6877 115.3917,-179.328 6.8722,-6.6835 307.0643,113.8259 320.4652,128.6479 3.9757,4.3972 -12.507,92.928 -36.6282,196.7351 -24.1211,103.8071 -44.0904,197.0595 -44.3762,207.2275 -0.2857,10.168 50.4769,70.3864 112.8061,133.81856 l 113.3257,115.33123 191.6114,-45.16782 c 105.3853,-24.84229 200.0104,-45.16782 210.2769,-45.16782 27.4903,0 153.873,308.78039 134.1675,327.80071 -7.7202,7.45185 -88.6022,60.12621 -179.7375,117.05414 l -165.7008,103.50536 -1.3282,166.43078 -1.3281,166.430889 175.818,109.894503 c 96.7,60.442048 177.8679,113.213588 180.373,117.270238 9.0241,14.61239 -125.06,321.02183 -140.5747,321.24225 -8.5639,0.12125 -104.519,-20.10197 -213.2336,-44.94156 l -197.6629,-45.16279 -115.1867,115.2744 -115.1867,115.2744 47.0858,205.14575 c 27.3359,119.09804 42.8356,209.36928 36.9528,215.21508 -5.5732,5.5382 -78.3873,38.297 -161.8094,72.7973 l -151.6765,62.7279 -54.0652,-85.4588 c -29.7359,-47.0024 -82.6485,-130.27572 -117.5836,-185.05179 l -63.5182,-99.59284 -162.8646,3.4703 -162.8645,3.47031 -93.998,145.23411 c -51.6988,79.87871 -104.1329,161.00161 -116.5201,180.27291 l -22.5221,35.0387 -159.5832,-67.0102 z m 716.0813,-854.98424 c 362.836,-112.15389 477.9689,-581.80314 208.6902,-851.28693 -158.2002,-158.32066 -384.9436,-194.45112 -592.899,-94.47555 -179.191,86.14692 -280.4724,252.08455 -280.7515,459.97835 -0.16,118.7789 31.3591,213.8658806 101.385,305.864724 131.9121,173.303776 354.7884,244.456206 563.5753,179.919406 z"
           id="path3036"
           inkscape:connector-curvature="0" />
      </g>
    </g>
  </g>
</svg>
