<?xml version="1.0" encoding="UTF-8" standalone="no"?>
<!-- Created with Inkscape (http://www.inkscape.org/) -->

<svg
   xmlns:dc="http://purl.org/dc/elements/1.1/"
   xmlns:cc="http://creativecommons.org/ns#"
   xmlns:rdf="http://www.w3.org/1999/02/22-rdf-syntax-ns#"
   xmlns:svg="http://www.w3.org/2000/svg"
   xmlns="http://www.w3.org/2000/svg"
   xmlns:sodipodi="http://sodipodi.sourceforge.net/DTD/sodipodi-0.dtd"
   xmlns:inkscape="http://www.inkscape.org/namespaces/inkscape"
   width="32"
   height="32"
   id="svg2"
   version="1.1"
   inkscape:version="0.48.4 r9939"
   sodipodi:docname="sidetwo.svg">
  <defs
     id="defs4" />
  <sodipodi:namedview
     id="base"
     pagecolor="#ffffff"
     bordercolor="#666666"
     borderopacity="1.0"
     inkscape:pageopacity="0.0"
     inkscape:pageshadow="2"
     inkscape:zoom="5.6"
     inkscape:cx="-11.936026"
     inkscape:cy="30.131385"
     inkscape:document-units="px"
     inkscape:current-layer="g4441"
     showgrid="false"
     inkscape:window-width="1920"
     inkscape:window-height="1137"
     inkscape:window-x="-8"
     inkscape:window-y="-8"
     inkscape:window-maximized="1"
     inkscape:snap-center="true" />
  <metadata
     id="metadata7">
    <rdf:RDF>
      <cc:Work
         rdf:about="">
        <dc:format>image/svg+xml</dc:format>
        <dc:type
           rdf:resource="http://purl.org/dc/dcmitype/StillImage" />
        <dc:title />
      </cc:Work>
    </rdf:RDF>
  </metadata>
  <g
     inkscape:label="Layer 1"
     inkscape:groupmode="layer"
     id="layer1"
     transform="translate(0,-1020.3622)">
    <g
       id="g4441"
       transform="matrix(0.08748833,0,0,0.08742175,24.823021,929.59518)"
       style="fill:#000000">
      <path
         style="fill:#ffffff"
         d="m -191.13184,1358.0478 c -11.28556,-1.0213 -21.80823,-5.7658 -30.18574,-13.6104 -9.55971,-8.9515 -14.96685,-20.2435 -16.16135,-33.7503 -0.70693,-7.9931 -0.70693,-170.7344 0,-178.7275 1.1945,-13.5068 6.60164,-24.7988 16.16135,-33.7503 8.68749,-8.1348 18.79136,-12.5581 31.19772,-13.6575 7.98486,-0.7076 170.558893,-0.7076 178.543818,0 13.4929223,1.1958 24.773242,6.6085 33.715572,16.178 8.12647,8.6965 12.54512,18.8107 13.6435,31.2298 0.70686,7.9931 0.70686,170.7344 0,178.7275 -1.09838,12.4191 -5.51703,22.5334 -13.6435,31.2298 -8.94233,9.5695 -20.2226497,14.9822 -33.715572,16.178 -7.20581,0.6386 -172.457608,0.5952 -179.555798,-0.047 z m 183.7368513,-21.3952 c 5.824109,-1.4911 9.077429,-3.3991 13.719789,-8.0462 4.6423597,-4.6472 6.5483997,-7.9039 8.0379797,-13.7339 1.03516,-4.0518 1.05991,-6.2334 1.05991,-93.5492 0,-87.3157 -0.0246,-89.4973 -1.05991,-93.549 -1.48958,-5.8301 -3.39562,-9.0869 -8.0379797,-13.734 -4.64236,-4.6471 -7.89568,-6.5551 -13.719789,-8.0462 -4.0476003,-1.0363 -6.2269263,-1.061 -93.4529613,-1.061 -87.22604,0 -89.40543,0.025 -93.45296,1.061 -5.82411,1.4911 -9.0775,3.3991 -13.71986,8.0462 -4.64235,4.6471 -6.5484,7.9039 -8.03791,13.734 -1.03522,4.0517 -1.05991,6.2333 -1.05991,93.549 0,87.3158 0.0246,89.4974 1.05991,93.5492 1.48951,5.83 3.39556,9.0867 8.03791,13.7339 4.5787,4.5834 7.88432,6.5463 13.50828,8.0211 3.78088,0.9915 7.01583,1.028 93.44487,1.0566 87.495852,0.029 89.622505,0.01 93.6726313,-1.0315 z M -141.73384,1286.9249 c -0.53249,-0.1408 -1.19552,-0.8548 -1.47348,-1.5866 -0.54815,-1.4431 -0.68722,-13.1322 -0.1788,-15.0295 0.1716,-0.6404 4.20695,-4.7376 8.96747,-9.1049 19.22381,-17.6357 35.101455,-33.9778 40.65436,-41.8435 9.325264,-13.2091 10.424212,-26.9075 2.728294,-34.0087 -3.510315,-3.239 -6.497684,-4.3716 -12.337014,-4.6773 -8.4953,-0.4449 -15.3845,1.6305 -23.70284,7.1405 -2.43776,1.6147 -4.60054,2.9359 -4.80618,2.9359 -1.24093,0 -2.54514,-2.2715 -5.65744,-9.8532 -1.92183,-4.6819 -3.49421,-8.9434 -3.49421,-9.4701 0,-1.806 9.43952,-7.6624 16.84952,-10.4537 11.96899,-4.5087 27.021407,-5.4377 38.308545,-2.3643 12.525283,3.4106 21.972188,12.455 26.195303,25.0792 1.241811,3.7122 1.378232,4.9468 1.402421,12.6939 0.02842,9.11 -0.285284,10.8897 -3.258631,18.4868 -4.255705,10.8734 -14.892946,24.3455 -31.002948,39.2655 -4.864357,4.5051 -8.84431,8.3785 -8.84431,8.6078 0,0.2292 10.078542,0.4168 22.396859,0.4168 16.705325,0 22.560188,0.1635 23.039746,0.6436 0.790295,0.7911 0.898168,21.1852 0.11861,22.4199 -0.44381,0.7029 -5.837683,0.8142 -42.722588,0.8812 -23.218037,0.042 -42.650267,-0.039 -43.182687,-0.1793 z"
         id="path4851"
         inkscape:connector-curvature="0" />
    </g>
  </g>
</svg>
