<?xml version="1.0" encoding="UTF-8" standalone="no"?>
<!-- Created with Inkscape (http://www.inkscape.org/) -->

<svg
   xmlns:dc="http://purl.org/dc/elements/1.1/"
   xmlns:cc="http://creativecommons.org/ns#"
   xmlns:rdf="http://www.w3.org/1999/02/22-rdf-syntax-ns#"
   xmlns:svg="http://www.w3.org/2000/svg"
   xmlns="http://www.w3.org/2000/svg"
   xmlns:sodipodi="http://sodipodi.sourceforge.net/DTD/sodipodi-0.dtd"
   xmlns:inkscape="http://www.inkscape.org/namespaces/inkscape"
   width="32"
   height="32"
   id="svg2"
   version="1.1"
   inkscape:version="0.48.4 r9939"
   sodipodi:docname="sideone.svg">
  <defs
     id="defs4" />
  <sodipodi:namedview
     id="base"
     pagecolor="#ffffff"
     bordercolor="#666666"
     borderopacity="1.0"
     inkscape:pageopacity="0.0"
     inkscape:pageshadow="2"
     inkscape:zoom="5.6"
     inkscape:cx="-19.614597"
     inkscape:cy="30.131385"
     inkscape:document-units="px"
     inkscape:current-layer="g4441"
     showgrid="false"
     inkscape:window-width="1920"
     inkscape:window-height="1137"
     inkscape:window-x="-8"
     inkscape:window-y="-8"
     inkscape:window-maximized="1"
     inkscape:snap-center="true" />
  <metadata
     id="metadata7">
    <rdf:RDF>
      <cc:Work
         rdf:about="">
        <dc:format>image/svg+xml</dc:format>
        <dc:type
           rdf:resource="http://purl.org/dc/dcmitype/StillImage" />
        <dc:title />
      </cc:Work>
    </rdf:RDF>
  </metadata>
  <g
     inkscape:label="Layer 1"
     inkscape:groupmode="layer"
     id="layer1"
     transform="translate(0,-1020.3622)">
    <g
       id="g4441"
       transform="matrix(0.08748833,0,0,0.08742175,24.823021,929.59518)"
       style="fill:#000000">
      <path
         style="fill:#ffffff"
         d="m -191.13185,1358.0478 c -11.28555,-1.0213 -21.80821,-5.7658 -30.18578,-13.6104 -9.55965,-8.9515 -14.96681,-20.2435 -16.16135,-33.7503 -0.70686,-7.9931 -0.70686,-170.7345 0,-178.7276 1.19454,-13.5068 6.6017,-24.7988 16.16135,-33.7502 8.68755,-8.1349 18.79144,-12.5581 31.19775,-13.6575 7.98488,-0.7076 170.558934,-0.7076 178.543848,0 13.4929123,1.1957 24.773252,6.6084 33.715572,16.1779 8.12651,8.6965 12.54514,18.8108 13.64348,31.2298 0.70687,7.9931 0.70687,170.7345 0,178.7276 -1.09834,12.4191 -5.51697,22.5334 -13.64348,31.2298 -8.94232,9.5695 -20.2226597,14.9822 -33.715572,16.178 -7.205779,0.6386 -172.457598,0.5952 -179.555818,-0.047 z m 183.7368393,-21.3952 c 5.824131,-1.4911 9.077481,-3.399 13.719831,-8.0462 4.6423397,-4.6472 6.5483997,-7.9038 8.0379297,-13.7339 1.03523,-4.0518 1.05994,-6.2334 1.05994,-93.5492 0,-87.3158 -0.0248,-89.4974 -1.05994,-93.5491 -1.48953,-5.8301 -3.39559,-9.0868 -8.0379297,-13.734 -4.64235,-4.6471 -7.8957,-6.5551 -13.719831,-8.0462 -4.0475623,-1.0363 -6.2269073,-1.061 -93.4529693,-1.061 -87.22601,0 -89.4054,0.025 -93.45296,1.061 -5.82409,1.4911 -9.07748,3.3991 -13.71983,8.0462 -4.64235,4.6472 -6.5484,7.9039 -8.03794,13.734 -1.03519,4.0517 -1.0599,6.2333 -1.0599,93.5491 0,87.3158 0.0248,89.4974 1.0599,93.5492 1.48954,5.8301 3.39559,9.0867 8.03794,13.7339 4.57871,4.5834 7.8843,6.5463 13.50829,8.0211 3.78087,0.9915 7.01584,1.028 93.44487,1.0565 87.495865,0.029 89.622492,0.01 93.6725993,-1.0314 z m -101.8919693,-49.8951 -1.20555,-0.5 0,-50.167 c 0,-27.5918 -0.12296,-50.167 -0.27326,-50.167 -0.1503,0 -4.85906,2.2977 -10.46392,5.1059 -8.43308,4.2254 -10.37277,5.0084 -11.24663,4.5403 -0.5808,-0.3112 -1.056,-0.6854 -1.056,-0.8316 0,-0.1462 -0.95846,-4.4781 -2.12996,-9.6264 -1.17147,-5.1484 -2.00239,-9.6934 -1.8465,-10.1 0.15592,-0.4068 7.47982,-4.2727 16.27534,-8.591 l 15.99187,-7.8516 9.966039,0 c 9.251664,0 10.042875,0.077 11.037675,1.0728 1.059265,1.0603 1.0716,1.7878 1.0716,63.188 0,52.766 -0.114335,62.272 -0.759676,63.1565 -0.707059,0.9691 -1.569259,1.049 -12.457536,1.1561 -6.433842,0.063 -12.240412,-0.11 -12.903492,-0.385 z"
         id="path4753"
         inkscape:connector-curvature="0" />
    </g>
  </g>
</svg>
