<?xml version="1.0" encoding="UTF-8" standalone="no"?>
<!-- Created with Inkscape (http://www.inkscape.org/) -->

<svg
   xmlns:dc="http://purl.org/dc/elements/1.1/"
   xmlns:cc="http://creativecommons.org/ns#"
   xmlns:rdf="http://www.w3.org/1999/02/22-rdf-syntax-ns#"
   xmlns:svg="http://www.w3.org/2000/svg"
   xmlns="http://www.w3.org/2000/svg"
   xmlns:sodipodi="http://sodipodi.sourceforge.net/DTD/sodipodi-0.dtd"
   xmlns:inkscape="http://www.inkscape.org/namespaces/inkscape"
   width="32"
   height="32"
   id="svg2"
   version="1.1"
   inkscape:version="0.48.4 r9939"
   sodipodi:docname="unknown.svg">
  <defs
     id="defs4" />
  <sodipodi:namedview
     id="base"
     pagecolor="#ffffff"
     bordercolor="#666666"
     borderopacity="1.0"
     inkscape:pageopacity="0.0"
     inkscape:pageshadow="2"
     inkscape:zoom="3.959798"
     inkscape:cx="-80.088495"
     inkscape:cy="34.413709"
     inkscape:document-units="px"
     inkscape:current-layer="layer1"
     showgrid="false"
     inkscape:window-width="1920"
     inkscape:window-height="1137"
     inkscape:window-x="-8"
     inkscape:window-y="-8"
     inkscape:window-maximized="1" />
  <metadata
     id="metadata7">
    <rdf:RDF>
      <cc:Work
         rdf:about="">
        <dc:format>image/svg+xml</dc:format>
        <dc:type
           rdf:resource="http://purl.org/dc/dcmitype/StillImage" />
        <dc:title />
      </cc:Work>
    </rdf:RDF>
  </metadata>
  <g
     inkscape:label="Layer 1"
     inkscape:groupmode="layer"
     id="layer1"
     transform="translate(0,-1020.3622)">
    <path
       style="fill:#ffffff;fill-opacity:1;fill-rule:nonzero;stroke-width:0.5;stroke-miterlimit:4;stroke-dasharray:none"
       d="M 7.864407,1048.2576 C 6.905684,1047.9379 4,1044.8957 4,1044.2118 c 0,-0.1552 1.64302,-1.9866 3.651157,-4.0699 l 3.651157,-3.7877 -3.549462,-3.6461 c -4.381298,-4.5005 -4.304638,-4.2253 -1.8455,-6.6255 1.299248,-1.2682 1.837208,-1.6632 2.264964,-1.6632 0.454277,0 1.250148,0.6824 4.183557,3.5873 l 3.622556,3.5873 0.976888,-0.8275 c 0.537287,-0.4551 2.211209,-2.0693 3.719823,-3.5873 3.427474,-3.4486 3.281679,-3.4209 5.633818,-1.0688 1.33424,1.3342 1.691042,1.8143 1.691042,2.2753 0,0.4849 -0.605835,1.1935 -3.559322,4.1636 -1.957627,1.9686 -3.559322,3.6622 -3.559322,3.7637 0,0.1014 1.601695,1.8018 3.559322,3.7787 2.876528,2.9049 3.559322,3.7016 3.559322,4.1538 0,0.4226 -0.386013,0.9575 -1.576271,2.1846 -1.838774,1.8958 -2.314526,2.1513 -3.078301,1.6531 -0.292527,-0.1908 -2.068366,-1.8592 -3.946307,-3.7075 l -3.414439,-3.3605 -3.602511,3.5734 c -1.98138,1.9654 -3.739799,3.6178 -3.907594,3.6721 -0.167797,0.054 -0.442374,0.053 -0.61017,0 l 0,0 z"
       id="path2985"
       inkscape:connector-curvature="0" />
  </g>
</svg>
