<?xml version="1.0" encoding="UTF-8" standalone="no"?>
<!-- Created with Inkscape (http://www.inkscape.org/) -->

<svg
   xmlns:dc="http://purl.org/dc/elements/1.1/"
   xmlns:cc="http://creativecommons.org/ns#"
   xmlns:rdf="http://www.w3.org/1999/02/22-rdf-syntax-ns#"
   xmlns:svg="http://www.w3.org/2000/svg"
   xmlns="http://www.w3.org/2000/svg"
   xmlns:sodipodi="http://sodipodi.sourceforge.net/DTD/sodipodi-0.dtd"
   xmlns:inkscape="http://www.inkscape.org/namespaces/inkscape"
   width="64"
   height="64"
   id="svg2"
   version="1.1"
   inkscape:version="0.48.4 r9939"
   sodipodi:docname="known.svg">
  <defs
     id="defs4" />
  <sodipodi:namedview
     id="base"
     pagecolor="#ffffff"
     bordercolor="#666666"
     borderopacity="1.0"
     inkscape:pageopacity="0.0"
     inkscape:pageshadow="2"
     inkscape:zoom="5.2480581"
     inkscape:cx="-3.6621877"
     inkscape:cy="14.995005"
     inkscape:document-units="px"
     inkscape:current-layer="layer1"
     showgrid="false"
     inkscape:window-width="1920"
     inkscape:window-height="1137"
     inkscape:window-x="-8"
     inkscape:window-y="-8"
     inkscape:window-maximized="1" />
  <metadata
     id="metadata7">
    <rdf:RDF>
      <cc:Work
         rdf:about="">
        <dc:format>image/svg+xml</dc:format>
        <dc:type
           rdf:resource="http://purl.org/dc/dcmitype/StillImage" />
        <dc:title />
      </cc:Work>
    </rdf:RDF>
  </metadata>
  <g
     inkscape:label="Layer 1"
     inkscape:groupmode="layer"
     id="layer1"
     transform="translate(0,-988.36218)">
    <path
       style="fill:#ffffff;fill-opacity:1;fill-rule:nonzero;stroke-width:0.50000000000000000;stroke-miterlimit:4;stroke-dasharray:none"
       d="m 27.258671,1035.6416 c -0.723517,-0.4546 -8.106443,-7.6734 -10.02853,-9.8056 -1.87612,-2.0811 -1.864152,-2.2844 0.26033,-4.4223 1.65671,-1.6671 2.431472,-2.0972 3.134492,-1.7398 0.209602,0.1065 1.82404,1.5731 3.587641,3.259 3.018226,2.8852 3.701055,3.4771 3.831256,3.3209 0.02985,-0.036 2.181046,-3.1948 4.780442,-7.02 6.962406,-10.2458 9.270723,-13.574 9.746565,-14.0529 0.695852,-0.7003 1.372632,-0.5551 3.242106,0.6953 2.222901,1.4869 2.404939,1.7016 2.309268,2.724 -0.06678,0.7137 -1.172059,2.4339 -8.502273,13.2324 -4.63403,6.8265 -8.747877,12.7752 -9.14188,13.2192 -0.626236,0.7056 -0.835647,0.8175 -1.664361,0.8892 -0.721184,0.062 -1.09323,-0.01 -1.555056,-0.2994 l 0,0 z"
       id="path3789"
       inkscape:connector-curvature="0" />
  </g>
</svg>
