<?xml version="1.0" encoding="UTF-8" standalone="no"?>
<!-- Created with Inkscape (http://www.inkscape.org/) -->

<svg
   xmlns:dc="http://purl.org/dc/elements/1.1/"
   xmlns:cc="http://creativecommons.org/ns#"
   xmlns:rdf="http://www.w3.org/1999/02/22-rdf-syntax-ns#"
   xmlns:svg="http://www.w3.org/2000/svg"
   xmlns="http://www.w3.org/2000/svg"
   xmlns:sodipodi="http://sodipodi.sourceforge.net/DTD/sodipodi-0.dtd"
   xmlns:inkscape="http://www.inkscape.org/namespaces/inkscape"
   width="64"
   height="64"
   id="svg2"
   version="1.1"
   inkscape:version="0.48.4 r9939"
   sodipodi:docname="edit.svg">
  <defs
     id="defs4" />
  <sodipodi:namedview
     id="base"
     pagecolor="#ffffff"
     bordercolor="#666666"
     borderopacity="1.0"
     inkscape:pageopacity="0.0"
     inkscape:pageshadow="2"
     inkscape:zoom="5.6"
     inkscape:cx="7.8717464"
     inkscape:cy="19.173161"
     inkscape:document-units="px"
     inkscape:current-layer="g4441"
     showgrid="false"
     inkscape:window-width="1920"
     inkscape:window-height="1137"
     inkscape:window-x="-8"
     inkscape:window-y="-8"
     inkscape:window-maximized="1"
     inkscape:snap-center="true" />
  <metadata
     id="metadata7">
    <rdf:RDF>
      <cc:Work
         rdf:about="">
        <dc:format>image/svg+xml</dc:format>
        <dc:type
           rdf:resource="http://purl.org/dc/dcmitype/StillImage" />
        <dc:title></dc:title>
      </cc:Work>
    </rdf:RDF>
  </metadata>
  <g
     inkscape:label="Layer 1"
     inkscape:groupmode="layer"
     id="layer1"
     transform="translate(0,-988.36218)">
    <g
       id="g4441"
       transform="matrix(0.08748833,0,0,0.08742175,24.823021,929.59518)"
       style="fill:#000000">
      <path
         style="fill:#ffffff"
         d="m 192.4054,1254.9605 c -2.6942,-1.1926 -4.9131,-3.2255 -6.6784,-6.1189 -1.7218,-2.8222 -1.82,-4.0686 -1.8231,-23.135 l 0,-20.1521 -16.8533,-0.3965 c -14.0693,-0.3309 -17.903,-0.7057 -23.2077,-2.2689 -20.7205,-6.106 -34.8251,-18.4462 -54.184496,-47.4065 -9.8225,-14.6939 -12.7537,-20.3532 -14.2242,-27.4638 -1.3042,-6.3061 -0.1964,-13.3355 3.1369,-19.9051 2.8261,-5.5701 9.9791,-12.4693 15.6766,-15.1206 4.1517,-1.9319 5.877596,-2.2123 13.709596,-2.2274 15.5545,-0.03 20.3806,3.41 34.525,24.6089 5.3495,8.0177 11.596,16.6545 13.8811,19.1931 l 4.1546,4.6156 11.693,0.396 11.6929,0.3961 0,-20.2362 c 0,-19.0325 0.1075,-20.4271 1.8073,-23.4477 2.589,-4.6006 7.4759,-7.1301 12.79,-6.6201 2.3064,0.2213 4.8614,0.9734 5.678,1.6714 0.8166,0.698 20.8883,16.6313 44.6038,35.4073 23.7154,18.7761 44.7394,35.894 46.7199,38.0399 5.603,6.0709 4.9165,11.0153 -2.5173,18.1288 -2.9792,2.8508 -73.3992,59.0556 -87.6004,69.917 -3.014,2.3053 -4.4243,2.8128 -7.68,2.7639 -2.1934,-0.033 -4.5769,-0.3206 -5.2967,-0.6392 z m -304.367,-50.8203 c -8.7448,-2.7295 -16.5667,-9.6505 -20.5872,-18.2162 -1.9839,-4.2265 -2.2702,-5.9116 -2.2702,-13.3592 0,-7.463 0.2843,-9.1284 2.287,-13.3957 3.1782,-6.7724 8.972,-12.6575 15.8596,-16.1097 l 5.7467,-2.8802 32.310104,-0.4261 32.3101,-0.4262 3.8649,-4.2612 c 7.1131,-7.8426 21.065,-30.1373 71.4669,-114.2021 52.2,-87.06378 65.2123,-107.71278 75.876296,-120.40678 9.9847,-11.8854 20.9892,-20.1788 32.5585,-24.5372 9.3761,-3.5321 17.0492,-4.6266 32.4347,-4.6266 l 14.005,0 0,-20.1661 c 0,-19.8986 0.028,-20.2138 2.1042,-23.7523 4.0642,-6.9262 12.8512,-8.5319 19.377,-3.5408 7.1638,5.4791 83.9455,66.4752 86.892,69.0279 8.95,7.7536 9.1403,13.5502 0.7085,21.5801 -2.0324,1.9354 -18.8631,15.5321 -37.4018,30.2148 -58.639,46.4424 -53.3447,42.543 -57.7614,42.543 -5.019,0 -9.7823,-2.6828 -12.1113,-6.8215 -1.6997,-3.0204 -1.8072,-4.4154 -1.8072,-23.4352 l 0,-20.2238 -11.6409,0.3398 -11.6409,0.3397 -3.6819,4.0616 c -8.7327,9.6335 -14.797,19.2999 -71.201196,113.49358 -49.0947,81.9869 -55.5132,92.4523 -65.3369,106.5317 -18.5951,26.6506 -33.4307,38.0994 -55.1288,42.5439 -8.8035,1.8032 -71.521304,1.8932 -77.231804,0.1108 z M 8.114204,1002.1728 c -8.79639999,-2.44448 -15.7525,-8.00078 -21.3333,-17.04028 -16.0279,-25.9612 -26.9815,-41.9533 -31.5658,-46.0853 -1.8015,-1.6238 -3.4125,-1.7247 -34.0159,-2.1306 l -32.124904,-0.4261 -5.7467,-2.8803 c -11.3335,-5.6804 -17.8671,-15.5949 -18.4278,-27.9631 -0.6374,-14.06 6.4334,-25.6199 19.3788,-31.6821 l 4.7957,-2.2459 33.706604,-0.2684 c 37.3394,-0.2974 42.198,0.1021 53.7895,4.4229 20.8186,7.7602 35.2655,23.5668 63.1002,69.0393 8.2577,13.4902 9.6779,17.6441 9.2363,27.015 -0.2736,5.8073 -0.8334,8.311 -2.7188,12.1598 -7.0245,14.3394 -23.4601,22.14628 -38.0739,18.08508 z"
         id="path4723"
         inkscape:connector-curvature="0" />
    </g>
  </g>
</svg>
