<?xml version="1.0" encoding="UTF-8" standalone="no"?>
<!-- Created with Inkscape (http://www.inkscape.org/) -->

<svg
   xmlns:dc="http://purl.org/dc/elements/1.1/"
   xmlns:cc="http://creativecommons.org/ns#"
   xmlns:rdf="http://www.w3.org/1999/02/22-rdf-syntax-ns#"
   xmlns:svg="http://www.w3.org/2000/svg"
   xmlns="http://www.w3.org/2000/svg"
   xmlns:sodipodi="http://sodipodi.sourceforge.net/DTD/sodipodi-0.dtd"
   xmlns:inkscape="http://www.inkscape.org/namespaces/inkscape"
   width="64"
   height="64"
   id="svg2"
   version="1.1"
   inkscape:version="0.48.4 r9939"
   sodipodi:docname="sidethree.svg">
  <defs
     id="defs4" />
  <sodipodi:namedview
     id="base"
     pagecolor="#ffffff"
     bordercolor="#666666"
     borderopacity="1.0"
     inkscape:pageopacity="0.0"
     inkscape:pageshadow="2"
     inkscape:zoom="5.6"
     inkscape:cx="23.063974"
     inkscape:cy="30.131385"
     inkscape:document-units="px"
     inkscape:current-layer="g4441"
     showgrid="false"
     inkscape:window-width="1920"
     inkscape:window-height="1137"
     inkscape:window-x="-8"
     inkscape:window-y="-8"
     inkscape:window-maximized="1"
     inkscape:snap-center="true" />
  <metadata
     id="metadata7">
    <rdf:RDF>
      <cc:Work
         rdf:about="">
        <dc:format>image/svg+xml</dc:format>
        <dc:type
           rdf:resource="http://purl.org/dc/dcmitype/StillImage" />
        <dc:title></dc:title>
      </cc:Work>
    </rdf:RDF>
  </metadata>
  <g
     inkscape:label="Layer 1"
     inkscape:groupmode="layer"
     id="layer1"
     transform="translate(0,-988.36218)">
    <g
       id="g4441"
       transform="matrix(0.08748833,0,0,0.08742175,24.823021,929.59518)"
       style="fill:#000000">
      <path
         style="fill:#ffffff"
         d="m -60.915904,1254.8041 c -17.8688,-1.617 -34.5297,-9.1292 -47.794096,-21.5498 -15.1362,-14.1732 -23.6975,-32.0521 -25.5888,-53.4379 -1.1193,-12.6558 -1.1193,-270.32956 0,-282.98526 1.8913,-21.3858 10.4526,-39.2647 25.5888,-53.438 13.755196,-12.8801 29.752996,-19.8836 49.396396,-21.6244 12.6427,-1.1204 270.051604,-1.1204 282.694404,0 21.3638,1.8933 39.2243,10.4634 53.383,25.6152 12.8669,13.7694 19.8631,29.7836 21.6022,49.4472 1.1192,12.6557 1.1192,270.32946 0,282.98526 -1.7391,19.6635 -8.7353,35.6778 -21.6022,49.4472 -14.1587,15.1517 -32.0192,23.7218 -53.383,25.6151 -11.4092,1.0111 -273.057904,0.9424 -284.296704,-0.075 z M 230.0008,1220.9284 c 9.2215,-2.3609 14.3726,-5.3819 21.723,-12.7398 7.3504,-7.358 10.3683,-12.5145 12.7268,-21.7454 1.639,-6.4153 1.6782,-9.8695 1.6782,-148.1195 0,-138.24996 -0.039,-141.70416 -1.6782,-148.11936 -2.3585,-9.231 -5.3764,-14.3875 -12.7268,-21.7454 -7.3504,-7.358 -12.5015,-10.379 -21.723,-12.7399 -6.4087,-1.6407 -9.8593,-1.6799 -147.967204,-1.6799 -138.1079,0 -141.5586,0.039 -147.9672,1.6799 -9.2215,2.3609 -14.3727,5.3819 -21.7231,12.7399 -7.3504,7.3579 -10.3683,12.5144 -12.726696,21.7454 -1.6391,6.4152 -1.6782,9.8694 -1.6782,148.11936 0,138.25 0.039,141.7042 1.6782,148.1195 2.358396,9.2309 5.376296,14.3874 12.726696,21.7454 7.2496,7.2571 12.4835,10.3649 21.3881,12.7 5.9864,1.5699 11.1084,1.6278 147.9544,1.673 138.535104,0.046 141.902304,0.01 148.315004,-1.6332 z M 17.297596,1142.1929 c -0.8431,-0.2229 -1.8929,-1.3534 -2.333,-2.5121 -0.8679,-2.285 -1.0881,-20.7927 -0.2831,-23.7968 0.2717,-1.0139 6.661,-7.5011 14.1985,-14.416 30.4377,-27.9233 55.5773,-53.7982 64.3694,-66.2522 14.765004,-20.9145 16.505004,-42.60366 4.3198,-53.84716 -5.558,-5.1284 -10.288,-6.9217 -19.5336,-7.4058 -13.4509,-0.7043 -24.3588,2.5817 -37.5295,11.3059 -3.8598,2.5566 -7.2842,4.6485 -7.6098,4.6485 -1.9648,0 -4.0298,-3.5965 -8.9576,-15.601 -3.0429,-7.4129 -5.5325,-14.1603 -5.5325,-14.9943 0,-2.8594 14.9459,-12.1321 26.6784,-16.5517 18.9509,-7.1388 42.7839,-8.6096 60.655204,-3.7434 19.8317,5.4001 34.7893,19.7204 41.4759,39.7087 1.9662,5.8776 2.1822,7.8324 2.2205,20.0987 0.045,14.42416 -0.4517,17.24206 -5.1595,29.27076 -6.7382,17.2162 -23.5805,38.5471 -49.088004,62.1704 -7.7019,7.133 -14.0035,13.266 -14.0035,13.629 0,0.3629 15.9577,0.6599 35.461704,0.6599 26.4501,0 35.7203,0.2589 36.4796,1.0191 1.2513,1.2525 1.4221,33.5432 0.1878,35.4981 -0.7027,1.113 -9.243,1.2892 -67.644104,1.3952 -36.7619,0.067 -67.5296,-0.061 -68.3726,-0.2838 z"
         id="path4851"
         inkscape:connector-curvature="0" />
    </g>
  </g>
</svg>
