<?xml version="1.0" encoding="UTF-8" standalone="no"?>
<!-- Created with Inkscape (http://www.inkscape.org/) -->

<svg
   xmlns:dc="http://purl.org/dc/elements/1.1/"
   xmlns:cc="http://creativecommons.org/ns#"
   xmlns:rdf="http://www.w3.org/1999/02/22-rdf-syntax-ns#"
   xmlns:svg="http://www.w3.org/2000/svg"
   xmlns="http://www.w3.org/2000/svg"
   xmlns:sodipodi="http://sodipodi.sourceforge.net/DTD/sodipodi-0.dtd"
   xmlns:inkscape="http://www.inkscape.org/namespaces/inkscape"
   width="64"
   height="64"
   id="svg2"
   version="1.1"
   inkscape:version="0.48.4 r9939"
   sodipodi:docname="sideone.svg">
  <defs
     id="defs4" />
  <sodipodi:namedview
     id="base"
     pagecolor="#ffffff"
     bordercolor="#666666"
     borderopacity="1.0"
     inkscape:pageopacity="0.0"
     inkscape:pageshadow="2"
     inkscape:zoom="5.6"
     inkscape:cx="1.7246883"
     inkscape:cy="30.131385"
     inkscape:document-units="px"
     inkscape:current-layer="g4441"
     showgrid="false"
     inkscape:window-width="1920"
     inkscape:window-height="1137"
     inkscape:window-x="-8"
     inkscape:window-y="-8"
     inkscape:window-maximized="1"
     inkscape:snap-center="true" />
  <metadata
     id="metadata7">
    <rdf:RDF>
      <cc:Work
         rdf:about="">
        <dc:format>image/svg+xml</dc:format>
        <dc:type
           rdf:resource="http://purl.org/dc/dcmitype/StillImage" />
        <dc:title />
      </cc:Work>
    </rdf:RDF>
  </metadata>
  <g
     inkscape:label="Layer 1"
     inkscape:groupmode="layer"
     id="layer1"
     transform="translate(0,-988.36218)">
    <g
       id="g4441"
       transform="matrix(0.08748833,0,0,0.08742175,24.823021,929.59518)"
       style="fill:#000000">
      <path
         style="fill:#ffffff"
         d="m -60.915916,1254.8041 c -17.86879,-1.617 -34.52966,-9.1292 -47.794154,-21.5498 -15.13611,-14.1732 -23.69745,-32.0522 -25.58879,-53.438 -1.11921,-12.6557 -1.11921,-270.32949 0,-282.98529 1.89134,-21.3858 10.45268,-39.2647 25.58879,-53.43788 13.755294,-12.88022 29.753114,-19.88362 49.396444,-21.62438 12.64272,-1.12041 270.051646,-1.12041 282.694426,0 21.36378,1.89323 39.22431,10.46336 53.38299,25.61509 12.86698,13.76937 19.86313,29.78367 21.60217,49.44717 1.11922,12.6558 1.11922,270.32959 0,282.98529 -1.73904,19.6636 -8.73519,35.6779 -21.60217,49.4473 -14.15868,15.1517 -32.01921,23.7218 -53.38299,25.6151 -11.40915,1.0111 -273.057866,0.9424 -284.296716,-0.075 z m 290.916666,-33.8757 c 9.22154,-2.3609 14.37267,-5.3818 21.72306,-12.7398 7.35038,-7.358 10.3683,-12.5144 12.72673,-21.7454 1.63911,-6.4153 1.67824,-9.8695 1.67824,-148.1195 0,-138.24999 -0.0392,-141.70419 -1.67824,-148.11949 -2.35843,-9.2309 -5.37635,-14.3874 -12.72673,-21.7454 -7.35039,-7.3579 -12.50152,-10.3789 -21.72306,-12.7398 -6.40864,-1.6408 -9.85927,-1.6799 -147.967196,-1.6799 -138.10786,0 -141.55856,0.039 -147.9672,1.6799 -9.22147,2.3609 -14.37267,5.3819 -21.72305,12.7398 -7.35039,7.358 -10.3683,12.5145 -12.726744,21.7454 -1.63905,6.4153 -1.67817,9.8695 -1.67817,148.11949 0,138.25 0.0392,141.7042 1.67817,148.1195 2.358444,9.231 5.376354,14.3874 12.726744,21.7454 7.24962,7.2571 12.48347,10.3649 21.38812,12.7 5.98637,1.5699 11.10841,1.6278 147.954371,1.6729 138.535125,0.046 141.902285,0.01 148.314955,-1.6331 z m -161.328946,-79.0006 -1.908788,-0.7916 0,-79.4311 c 0,-43.6871 -0.19469,-79.43109 -0.432665,-79.43109 -0.237975,0 -7.693516,3.638 -16.567882,8.0844 -13.352365,6.6901 -16.423545,7.9299 -17.807155,7.1887 -0.9196,-0.4927 -1.672,-1.0852 -1.672,-1.3167 0,-0.2315 -1.51757,-7.0903 -3.37244,-15.2418 -1.85482,-8.1516 -3.17045,-15.3478 -2.92363,-15.9917 0.24688,-0.644 11.84306,-6.765 25.769287,-13.6024 l 25.32047,-12.4316 15.77956,0 c 14.648469,0 15.901219,0.1217 17.476319,1.6985 1.67717,1.6789 1.6967,2.8307 1.6967,100.04769 0,83.5462 -0.18103,98.5974 -1.20282,99.9978 -1.11951,1.5344 -2.48466,1.661 -19.724433,1.8305 -10.18691,0.1002 -19.380654,-0.1742 -20.430523,-0.6096 z"
         id="path4753"
         inkscape:connector-curvature="0" />
    </g>
  </g>
</svg>
