<?xml version="1.0" encoding="UTF-8" standalone="no"?>
<!-- Generator: Adobe Illustrator 15.1.0, SVG Export Plug-In . SVG Version: 6.00 Build 0)  -->

<svg
   xmlns:dc="http://purl.org/dc/elements/1.1/"
   xmlns:cc="http://creativecommons.org/ns#"
   xmlns:rdf="http://www.w3.org/1999/02/22-rdf-syntax-ns#"
   xmlns:svg="http://www.w3.org/2000/svg"
   xmlns="http://www.w3.org/2000/svg"
   xmlns:sodipodi="http://sodipodi.sourceforge.net/DTD/sodipodi-0.dtd"
   xmlns:inkscape="http://www.inkscape.org/namespaces/inkscape"
   version="1.1"
   x="0px"
   y="0px"
   width="24"
   height="24"
   viewBox="0 0 24 24"
   xml:space="preserve"
   id="svg2"
   inkscape:version="0.48.4 r9939"
   sodipodi:docname="add.svg"><metadata
   id="metadata12"><rdf:RDF><cc:Work
       rdf:about=""><dc:format>image/svg+xml</dc:format><dc:type
         rdf:resource="http://purl.org/dc/dcmitype/StillImage" /><dc:title /></cc:Work></rdf:RDF></metadata><defs
   id="defs10"><inkscape:path-effect
     is_visible="true"
     id="path-effect3631-7"
     effect="spiro" /><inkscape:path-effect
     is_visible="true"
     id="path-effect3631-5"
     effect="spiro" /><inkscape:path-effect
     is_visible="true"
     id="path-effect3788-4-7"
     effect="spiro" /><inkscape:path-effect
     is_visible="true"
     id="path-effect3792-0-0"
     effect="spiro" /><inkscape:path-effect
     is_visible="true"
     id="path-effect3800-0-2"
     effect="spiro" /><inkscape:path-effect
     is_visible="true"
     id="path-effect3804-5-9"
     effect="spiro" /><inkscape:path-effect
     is_visible="true"
     id="path-effect3804-1-4"
     effect="spiro" /><inkscape:path-effect
     is_visible="true"
     id="path-effect3792-6-1"
     effect="spiro" /><inkscape:path-effect
     is_visible="true"
     id="path-effect3792-6"
     effect="spiro" /><inkscape:path-effect
     is_visible="true"
     id="path-effect3804-1"
     effect="spiro" /><inkscape:path-effect
     is_visible="true"
     id="path-effect3631-4"
     effect="spiro" /><inkscape:path-effect
     is_visible="true"
     id="path-effect3635-5"
     effect="spiro" /><inkscape:path-effect
     is_visible="true"
     id="path-effect3788-4"
     effect="spiro" /><inkscape:path-effect
     is_visible="true"
     id="path-effect3792-0"
     effect="spiro" /><inkscape:path-effect
     is_visible="true"
     id="path-effect3800-0"
     effect="spiro" /><inkscape:path-effect
     is_visible="true"
     id="path-effect3804-5"
     effect="spiro" /><inkscape:path-effect
     is_visible="true"
     id="path-effect3631"
     effect="spiro" /><inkscape:path-effect
     is_visible="true"
     id="path-effect3635"
     effect="spiro" /><inkscape:path-effect
     is_visible="true"
     id="path-effect3788"
     effect="spiro" /><inkscape:path-effect
     is_visible="true"
     id="path-effect3792"
     effect="spiro" /><inkscape:path-effect
     is_visible="true"
     id="path-effect3800"
     effect="spiro" /><inkscape:path-effect
     is_visible="true"
     id="path-effect3804"
     effect="spiro" /></defs><sodipodi:namedview
   pagecolor="#ffffff"
   bordercolor="#666666"
   borderopacity="1"
   objecttolerance="10"
   gridtolerance="10"
   guidetolerance="10"
   inkscape:pageopacity="0"
   inkscape:pageshadow="2"
   inkscape:window-width="1482"
   inkscape:window-height="960"
   id="namedview8"
   showgrid="false"
   inkscape:zoom="9.8333333"
   inkscape:cx="17.696427"
   inkscape:cy="5.4887658"
   inkscape:window-x="167"
   inkscape:window-y="49"
   inkscape:window-maximized="0"
   inkscape:current-layer="svg2" />

<g
   id="Guides"
   style="display:none"
   transform="translate(0,12)">
</g>
<path
   style="fill:#ffffff;fill-opacity:1;fill-rule:nonzero;stroke:none"
   d="m 8.3271475,11.568014 c -1.0283685,0.05834 -2.105034,-0.09905 -3.098517,0.168432 -0.8289723,0.44543 -0.5066789,1.562383 -0.5974576,2.323093 0.0476,1.921646 -0.1209767,3.860002 0.1048729,5.771187 0.098152,0.743322 0.9034866,0.979163 1.5476695,0.902542 3.9939677,0.02357 7.9922427,0.08275 11.9841097,-0.04449 0.685335,0.02361 1.12354,-0.636492 1.058263,-1.268009 0.02273,-2.337273 0.09791,-4.684015 -0.05085,-7.016949 -0.07942,-0.817718 -1.038712,-0.819857 -1.658899,-0.813559 -3.096061,-0.04612 -6.192885,-0.0195 -9.2891945,-0.02225 z"
   id="path3009"
   inkscape:connector-curvature="0" /><path
   style="fill:#ffffff;fill-opacity:1;fill-rule:nonzero;stroke:none"
   d="M 9.2074441,3.2322087 C 8.3100424,3.3167956 7.3127681,3.0807911 6.4775712,3.4832681 5.805101,4.0400187 6.1570404,5.0556661 6.0520371,5.8095325 6.1138061,7.1262258 5.9195856,8.481944 6.1979102,9.7756409 6.5810201,10.525105 7.6038695,10.211737 8.279478,10.312717 c 2.737082,-0.01749 5.483608,0.09896 8.215042,-0.06991 0.855686,-0.103246 0.835188,-1.1224104 0.819916,-1.7733051 -0.05906,-1.503602 0.0905,-3.0366156 -0.155721,-4.5222458 -0.419834,-0.9472661 -1.645798,-0.6281783 -2.462923,-0.7150424 -1.829405,-0.00897 -3.658948,-0.010568 -5.4883479,0 z m 5.2245759,1.601695 c 0.90444,-0.2741436 0.47282,0.7877733 0.568856,1.3220339 0,0.8877119 0,1.7754236 0,2.6631355 -0.623702,0.00718 -1.42425,0.1911996 -1.137712,-0.7118644 0,-1.0911017 0,-2.1822033 0,-3.273305 0.189619,0 0.379238,0 0.568856,0 z"
   id="path3011"
   inkscape:connector-curvature="0" /><path
   style="fill:#000000"
   d="m 4.8561945,20.963377 c -0.29535,-0.0349 -0.44097,-0.0811 -0.73043,-0.23172 -0.6151,-0.32002 -1.00694,-0.90184 -1.08884,-1.61676 -0.0492,-0.42925 -0.0492,-13.8052496 0,-14.2344996 0.10097,-0.88133 0.69045,-1.56777 1.55035,-1.80535 0.21016,-0.0581 0.61181,-0.0619 6.4131595,-0.0619 5.88099,0 6.19803,0.003 6.37135,0.0636 0.42714,0.149 0.94417,0.56669 1.96461,1.58713 0.99421,0.99421 1.39237,1.48064 1.57288,1.9216 l 0.0779,0.19025 0.0105,5.9779696 c 0.007,4.02189 -0.002,6.09124 -0.0266,6.32415 -0.097,0.90484 -0.65929,1.57969 -1.53441,1.84141 -0.19536,0.0584 -0.6289,0.0624 -7.27581,0.0671 -3.8874395,0.003 -7.1745395,-0.008 -7.3046695,-0.023 z m 13.5639495,-0.67055 c 0.19036,-0.052 0.35539,-0.183 0.44036,-0.34957 0.0694,-0.136 0.0703,-0.19546 0.0612,-3.82468 l -0.009,-3.68653 -0.0944,-0.14261 c -0.0568,-0.0859 -0.15566,-0.17227 -0.24847,-0.2172 l -0.15408,-0.0746 -6.4129,0 -6.4129095,0 -0.15408,0.0746 c -0.0928,0.0449 -0.19161,0.1313 -0.24846,0.2172 l -0.0944,0.14261 -0.009,3.68653 c -0.009,3.62922 -0.008,3.68868 0.0612,3.82468 0.0821,0.16101 0.24844,0.29753 0.42278,0.34707 0.18019,0.0512 12.6654395,0.0536 12.8526295,0.002 z M 16.544594,9.8206174 c 0.068,-0.0466 0.1618,-0.14038 0.20841,-0.20839 l 0.0847,-0.12366 0.009,-2.63338 c 0.009,-2.52199 0.007,-2.63976 -0.0574,-2.7844 -0.081,-0.18301 -0.2494,-0.31812 -0.46198,-0.37054 -0.11292,-0.0279 -1.47733,-0.0362 -4.76479,-0.029 l -4.6065595,0.01 -0.14883,0.0852 c -0.0819,0.0469 -0.19262,0.14974 -0.24615,0.22857 l -0.0973,0.14332 -0.01,2.60217 c -0.0109,2.85043 -0.0155,2.77979 0.19516,2.98078 0.22712,0.21669 -0.14553,0.20244 5.0392795,0.19281 l 4.73221,-0.009 0.12366,-0.0847 z m -3.13539,-3.00974 0,-2.40877 1.01977,0 1.01977,0 0,2.40877 0,2.40877 -1.01977,0 -1.01977,0 0,-2.40877 z"
   id="path3018"
   inkscape:connector-curvature="0" /></svg>