<?xml version="1.0" encoding="UTF-8" standalone="no"?>
<!-- Created with Inkscape (http://www.inkscape.org/) -->

<svg
   xmlns:dc="http://purl.org/dc/elements/1.1/"
   xmlns:cc="http://creativecommons.org/ns#"
   xmlns:rdf="http://www.w3.org/1999/02/22-rdf-syntax-ns#"
   xmlns:svg="http://www.w3.org/2000/svg"
   xmlns="http://www.w3.org/2000/svg"
   xmlns:sodipodi="http://sodipodi.sourceforge.net/DTD/sodipodi-0.dtd"
   xmlns:inkscape="http://www.inkscape.org/namespaces/inkscape"
   width="24"
   height="24"
   id="svg2"
   version="1.1"
   inkscape:version="0.48.4 r9939"
   sodipodi:docname="bold.svg">
  <defs
     id="defs4" />
  <sodipodi:namedview
     id="base"
     pagecolor="#ffffff"
     bordercolor="#666666"
     borderopacity="1.0"
     inkscape:pageopacity="0.0"
     inkscape:pageshadow="2"
     inkscape:zoom="11.313708"
     inkscape:cx="20.504493"
     inkscape:cy="9.3309425"
     inkscape:document-units="px"
     inkscape:current-layer="layer1"
     showgrid="false"
     inkscape:window-width="1509"
     inkscape:window-height="899"
     inkscape:window-x="33"
     inkscape:window-y="98"
     inkscape:window-maximized="0" />
  <metadata
     id="metadata7">
    <rdf:RDF>
      <cc:Work
         rdf:about="">
        <dc:format>image/svg+xml</dc:format>
        <dc:type
           rdf:resource="http://purl.org/dc/dcmitype/StillImage" />
        <dc:title />
      </cc:Work>
    </rdf:RDF>
  </metadata>
  <g
     inkscape:label="Layer 1"
     inkscape:groupmode="layer"
     id="layer1"
     transform="translate(0,-1028.3622)">
    <flowRoot
       xml:space="preserve"
       id="flowRoot3007"
       style="font-size:48px;font-style:normal;font-variant:normal;font-weight:bold;font-stretch:normal;line-height:125%;letter-spacing:0px;word-spacing:0px;fill:#000000;fill-opacity:1;stroke:none;font-family:Arial;-inkscape-font-specification:Arial Bold"><flowRegion
         id="flowRegion3009"><rect
           id="rect3011"
           width="260"
           height="145.71428"
           x="245.71428"
           y="298.79074" /></flowRegion><flowPara
         id="flowPara3013" /></flowRoot>    <flowRoot
       xml:space="preserve"
       id="flowRoot3019"
       style="font-size:48px;font-style:normal;font-variant:normal;font-weight:bold;font-stretch:normal;line-height:125%;letter-spacing:0px;word-spacing:0px;fill:#000000;fill-opacity:1;stroke:none;font-family:Arial;-inkscape-font-specification:Arial Bold"><flowRegion
         id="flowRegion3021"><rect
           id="rect3023"
           width="157.85715"
           height="120"
           x="277.85715"
           y="185.93361" /></flowRegion><flowPara
         id="flowPara3025" /></flowRoot>    <g
       style="font-size:26.88840294px;font-style:normal;font-variant:normal;font-weight:normal;font-stretch:normal;line-height:125%;letter-spacing:0px;word-spacing:0px;fill-opacity:1;stroke:none;font-family:Eras Bold ITC;-inkscape-font-specification:Eras Bold ITC"
       id="text3863">
      <path
         d="m 3.7483587,1049.3622 c 0.1838059,-1.9256 0.306344,-3.4398 0.3676148,-4.5427 0.087526,-1.5055 0.1728647,-3.5711 0.2560176,-6.1969 0.083149,-2.6258 0.1247243,-4.477 0.1247264,-5.5536 -2.1e-6,-0.3851 -0.00438,-0.9278 -0.013129,-1.628 1.1641106,0.026 2.0875232,0.039 2.7702408,0.039 0.9540423,10e-5 2.0656386,-0.02 3.3347918,-0.059 1.269137,-0.039 2.358852,-0.059 3.269147,-0.059 1.094079,0 1.873072,0.031 2.33698,0.092 0.612677,0.079 1.148782,0.2188 1.608315,0.4201 0.459503,0.2013 0.842435,0.4508 1.148797,0.7484 0.34134,0.3501 0.608298,0.7702 0.800875,1.2604 0.218801,0.5602 0.32821,1.1597 0.328228,1.7987 -1.8e-5,0.4989 -0.06348,0.9759 -0.190372,1.431 -0.126932,0.4552 -0.306363,0.86 -0.538293,1.2145 -0.231965,0.3545 -0.492358,0.6499 -0.781182,0.8862 -0.288856,0.2363 -0.571132,0.4201 -0.846827,0.5514 -0.275726,0.1313 -0.645529,0.2626 -1.109409,0.3939 0.46388,0.079 0.835871,0.1685 1.115973,0.2691 0.280072,0.1007 0.579853,0.2626 0.899344,0.4858 0.319458,0.2232 0.60611,0.5099 0.859956,0.86 0.253812,0.3501 0.444184,0.7418 0.571116,1.175 0.126897,0.4333 0.190354,0.8906 0.190372,1.372 -1.8e-5,0.6652 -0.109427,1.291 -0.328227,1.8775 -0.218836,0.5864 -0.525182,1.0897 -0.919038,1.5098 -0.33262,0.3589 -0.76588,0.6652 -1.299781,0.9191 -0.533931,0.2538 -1.080977,0.4288 -1.641138,0.5251 -0.455155,0.07 -1.284476,0.1226 -2.487965,0.1576 -1.203511,0.035 -2.479221,0.053 -3.8271333,0.053 l -3.4529541,-0.013 z m 5.8555799,-10.9366 1.8643324,0 c 0.612682,10e-5 1.04813,-0.015 1.306346,-0.046 0.258195,-0.031 0.509836,-0.085 0.754923,-0.1641 0.245066,-0.079 0.457319,-0.2101 0.636762,-0.3939 0.179419,-0.1838 0.306334,-0.3895 0.380744,-0.6171 0.07439,-0.2275 0.111585,-0.4551 0.111597,-0.6827 -1.2e-5,-0.3238 -0.0766,-0.6127 -0.229759,-0.8665 -0.153185,-0.2538 -0.400449,-0.442 -0.741794,-0.5646 -0.341368,-0.1225 -0.862155,-0.1837 -1.562364,-0.1838 l -2.3632382,0 z m -0.3019694,7.3392 2.5207878,0 c 0.665198,0 1.15535,-0.039 1.47046,-0.1182 0.385109,-0.096 0.678325,-0.2231 0.879649,-0.3807 0.201301,-0.1575 0.361039,-0.372 0.479213,-0.6433 0.118149,-0.2714 0.17723,-0.5733 0.177243,-0.9059 -1.3e-5,-0.2889 -0.04815,-0.5427 -0.144421,-0.7615 -0.09629,-0.2188 -0.240712,-0.4026 -0.43326,-0.5514 -0.192572,-0.1488 -0.428895,-0.2561 -0.708972,-0.3217 -0.280098,-0.066 -0.717734,-0.099 -1.31291,-0.099 l -2.7702405,0 z"
         style=""
         id="path2996" />
    </g>
  </g>
</svg>
