<?xml version="1.0" encoding="UTF-8" standalone="no"?>
<!-- Generator: Adobe Illustrator 15.1.0, SVG Export Plug-In . SVG Version: 6.00 Build 0)  -->

<svg
   xmlns:dc="http://purl.org/dc/elements/1.1/"
   xmlns:cc="http://creativecommons.org/ns#"
   xmlns:rdf="http://www.w3.org/1999/02/22-rdf-syntax-ns#"
   xmlns:svg="http://www.w3.org/2000/svg"
   xmlns="http://www.w3.org/2000/svg"
   xmlns:sodipodi="http://sodipodi.sourceforge.net/DTD/sodipodi-0.dtd"
   xmlns:inkscape="http://www.inkscape.org/namespaces/inkscape"
   version="1.1"
   x="0px"
   y="0px"
   width="24px"
   height="24px"
   viewBox="0 0 24 24"
   style="enable-background:new 0 0 24 24;"
   xml:space="preserve"
   id="svg2"
   inkscape:version="0.48.4 r9939"
   sodipodi:docname="bullet.svg"><metadata
   id="metadata17"><rdf:RDF><cc:Work
       rdf:about=""><dc:format>image/svg+xml</dc:format><dc:type
         rdf:resource="http://purl.org/dc/dcmitype/StillImage" /></cc:Work></rdf:RDF></metadata><defs
   id="defs15" /><sodipodi:namedview
   pagecolor="#ffffff"
   bordercolor="#666666"
   borderopacity="1"
   objecttolerance="10"
   gridtolerance="10"
   guidetolerance="10"
   inkscape:pageopacity="0"
   inkscape:pageshadow="2"
   inkscape:window-width="1502"
   inkscape:window-height="912"
   id="namedview13"
   showgrid="false"
   inkscape:zoom="9.8333333"
   inkscape:cx="-3.8644068"
   inkscape:cy="12"
   inkscape:window-x="0"
   inkscape:window-y="0"
   inkscape:window-maximized="0"
   inkscape:current-layer="svg2" />
<g
   id="Icons"
   style="opacity:1;fill-opacity:1;fill-rule:nonzero">
	<g
   id="bullet-list-ltr"
   style="fill-opacity:1;fill-rule:nonzero">
		<path
   id="bottom_dot"
   d="M5,10H4c-0.552,0-1,0.447-1,1v1c0,0.553,0.448,1,1,1h1c0.552,0,1-0.447,1-1v-1C6,10.447,5.552,10,5,10z"
   style="fill-opacity:1;fill-rule:nonzero" />
		<path
   id="middle_dot"
   d="M5,17H4c-0.552,0-1,0.447-1,1v1c0,0.553,0.448,1,1,1h1c0.552,0,1-0.447,1-1v-1C6,17.447,5.552,17,5,17z"
   style="fill-opacity:1;fill-rule:nonzero" />
		<path
   id="top_dot"
   d="M5,3H4C3.448,3,3,3.447,3,4v1c0,0.553,0.448,1,1,1h1c0.552,0,1-0.447,1-1V4C6,3.447,5.552,3,5,3z"
   style="fill-opacity:1;fill-rule:nonzero" />
		<path
   id="bottom_line"
   d="M20,17H9c-0.552,0-1,0.447-1,1v1c0,0.553,0.448,1,1,1h11c0.552,0,1-0.447,1-1v-1    C21,17.447,20.552,17,20,17z"
   style="fill-opacity:1;fill-rule:nonzero" />
		<path
   id="middle_line"
   d="M20,10H9c-0.552,0-1,0.447-1,1v1c0,0.553,0.448,1,1,1h11c0.552,0,1-0.447,1-1v-1    C21,10.447,20.552,10,20,10z"
   style="fill-opacity:1;fill-rule:nonzero" />
		<path
   id="top_line"
   d="M20,3H9C8.448,3,8,3.447,8,4v1c0,0.553,0.448,1,1,1h11c0.552,0,1-0.447,1-1V4C21,3.447,20.552,3,20,3z"
   style="fill-opacity:1;fill-rule:nonzero" />
	</g>
</g>
<g
   id="Guides"
   style="display:none;">
</g>
</svg>