<?xml version="1.0" encoding="UTF-8" standalone="no"?>
<!-- Generator: Adobe Illustrator 15.1.0, SVG Export Plug-In . SVG Version: 6.00 Build 0)  -->

<svg
   xmlns:dc="http://purl.org/dc/elements/1.1/"
   xmlns:cc="http://creativecommons.org/ns#"
   xmlns:rdf="http://www.w3.org/1999/02/22-rdf-syntax-ns#"
   xmlns:svg="http://www.w3.org/2000/svg"
   xmlns="http://www.w3.org/2000/svg"
   xmlns:sodipodi="http://sodipodi.sourceforge.net/DTD/sodipodi-0.dtd"
   xmlns:inkscape="http://www.inkscape.org/namespaces/inkscape"
   version="1.1"
   x="0px"
   y="0px"
   width="24px"
   height="24px"
   viewBox="0 0 24 24"
   style="enable-background:new 0 0 24 24;"
   xml:space="preserve"
   id="svg2"
   inkscape:version="0.48.4 r9939"
   sodipodi:docname="clear.svg"><metadata
   id="metadata12"><rdf:RDF><cc:Work
       rdf:about=""><dc:format>image/svg+xml</dc:format><dc:type
         rdf:resource="http://purl.org/dc/dcmitype/StillImage" /><dc:title /></cc:Work></rdf:RDF></metadata><defs
   id="defs10" /><sodipodi:namedview
   pagecolor="#ffffff"
   bordercolor="#666666"
   borderopacity="1"
   objecttolerance="10"
   gridtolerance="10"
   guidetolerance="10"
   inkscape:pageopacity="0"
   inkscape:pageshadow="2"
   inkscape:window-width="1920"
   inkscape:window-height="1137"
   id="namedview8"
   showgrid="false"
   inkscape:zoom="19.666667"
   inkscape:cx="8.4618149"
   inkscape:cy="10.960191"
   inkscape:window-x="-8"
   inkscape:window-y="-8"
   inkscape:window-maximized="1"
   inkscape:current-layer="svg2" />

<g
   id="Guides"
   style="display:none;">
</g>
<path
   style="fill:#ffffff;fill-opacity:1;fill-rule:nonzero;stroke:none"
   d="m 9.8172174,7.8978596 c -0.6217897,0.4347233 -1.089431,1.0585 -1.6462881,1.572859 -0.7652995,0.8095274 -1.6148272,1.5513334 -2.2848559,2.4440904 -0.3591932,0.654641 -0.1902431,1.43546 -0.2474443,2.149879 0.012794,0.778013 -0.05743,1.564886 0.012834,2.337119 0.075899,0.555216 0.8519725,0.725903 1.2056898,0.31621 1.2897402,-1.171281 2.4830754,-2.444987 3.7243649,-3.667085 0.352023,-0.435827 0.157386,-1.035117 0.221764,-1.549101 -0.0094,-1.019977 0.0977,-2.0509495 -0.05015,-3.0637172 C 10.660523,8.0093052 10.23537,7.7660102 9.8172174,7.8978596 z"
   id="path2983"
   inkscape:connector-curvature="0" /><path
   style="fill:#ffffff;fill-opacity:1;fill-rule:nonzero;stroke:none"
   d="m 10.570395,13.200296 c -1.3529767,1.283297 -2.6443896,2.636127 -3.9729314,3.946927 -0.3295592,0.294475 -0.7591446,0.71515 -0.5066527,1.190313 0.3501565,0.485989 0.8451623,0.870342 1.2698388,1.296552 0.3808995,0.400624 0.9082588,0.692868 1.4777542,0.599047 0.8046673,-0.06106 1.2951921,-0.790825 1.8489841,-1.283307 0.907892,-0.937917 1.84964,-1.852798 2.721822,-2.820233 0.311614,-0.38439 0.03658,-0.895519 -0.311365,-1.148672 -0.607597,-0.577016 -1.16055,-1.222375 -1.80312,-1.755651 -0.208232,-0.164618 -0.496201,-0.126661 -0.72433,-0.02498 z"
   id="path2985"
   inkscape:connector-curvature="0" /><path
   style="fill:#000000"
   d="m 8.0645497,20.948709 c -0.108095,-0.0283 -0.333219,-0.11774 -0.500275,-0.19878 -0.290447,-0.1409 -0.344493,-0.18819 -1.235007,-1.08077 -0.97605,-0.9783 -1.042767,-1.06351 -1.240827,-1.58466 -0.07784,-0.20482 -0.07852,-0.22669 -0.0898,-2.90429 -0.008,-1.88899 6.58e-4,-2.7622 0.02874,-2.91231 0.02206,-0.11793 0.112954,-0.36717 0.201984,-0.55388 l 0.161872,-0.33947 3.989902,-3.9889698 c 3.9732983,-3.97236 3.9911243,-3.98956 4.2833903,-4.13347 0.411603,-0.20267 0.745448,-0.27052 1.220076,-0.24797 0.441296,0.021 0.733398,0.10293 1.077148,0.30224 0.304712,0.17667 2.279057,2.12965 2.495588,2.46858 0.165848,0.2596 0.321495,0.64876 0.453993,1.13512 l 0.09287,0.34089 -0.01359,1.86525 c -0.01302,1.7861598 -0.01691,1.8772198 -0.09177,2.1475098 -0.168149,0.60713 0.07342,0.34395 -4.647529,5.06333 -4.199752,4.19835 -4.3176363,4.31262 -4.5787413,4.43843 -0.147402,0.071 -0.372526,0.1537 -0.500275,0.18372 -0.289082,0.0679 -0.847233,0.0677 -1.107753,-5e-4 z m 1.071214,-1.47537 c 0.088,-0.0461 0.200561,-0.11856 0.250138,-0.16099 0.04958,-0.0424 0.8596293,-0.8632 1.8001153,-1.82394 l 1.709975,-1.7468 -0.986384,-0.98639 -0.986384,-0.98638 -2.1350833,2.13588 -2.135082,2.13588 0.643211,0.63726 c 0.838147,0.83038 0.951028,0.90135 1.411492,0.88743 0.20057,-0.006 0.308262,-0.0292 0.428002,-0.0919 z m -0.90441,-5.01674 1.8996493,-1.90283 0.01359,-2.04577 c 0.0075,-1.1251698 0.0045,-2.0457698 -0.0067,-2.0457698 -0.01116,0 -0.8181913,0.79999 -1.7934043,1.7777598 -1.107785,1.11069 -1.799888,1.8314 -1.844469,1.9207 -0.197411,0.39545 -0.197693,0.39857 -0.213543,2.36738 -0.0081,1.00725 -0.0013,1.83136 0.01524,1.83136 0.01649,0 0.884824,-0.85627 1.929632,-1.90283 z"
   id="path3023"
   inkscape:connector-curvature="0" /></svg>