<?xml version="1.0" encoding="UTF-8" standalone="no"?>
<!-- Generator: Adobe Illustrator 15.1.0, SVG Export Plug-In . SVG Version: 6.00 Build 0)  -->

<svg
   xmlns:dc="http://purl.org/dc/elements/1.1/"
   xmlns:cc="http://creativecommons.org/ns#"
   xmlns:rdf="http://www.w3.org/1999/02/22-rdf-syntax-ns#"
   xmlns:svg="http://www.w3.org/2000/svg"
   xmlns="http://www.w3.org/2000/svg"
   xmlns:sodipodi="http://sodipodi.sourceforge.net/DTD/sodipodi-0.dtd"
   xmlns:inkscape="http://www.inkscape.org/namespaces/inkscape"
   version="1.1"
   x="0px"
   y="0px"
   width="24px"
   height="24px"
   viewBox="0 0 24 24"
   style="enable-background:new 0 0 24 24;"
   xml:space="preserve"
   id="svg2"
   inkscape:version="0.48.4 r9939"
   sodipodi:docname="format.svg"><metadata
   id="metadata17"><rdf:RDF><cc:Work
       rdf:about=""><dc:format>image/svg+xml</dc:format><dc:type
         rdf:resource="http://purl.org/dc/dcmitype/StillImage" /></cc:Work></rdf:RDF></metadata><defs
   id="defs15">
	

		
		
		
		
		
		
	</defs><sodipodi:namedview
   pagecolor="#ffffff"
   bordercolor="#666666"
   borderopacity="1"
   objecttolerance="10"
   gridtolerance="10"
   guidetolerance="10"
   inkscape:pageopacity="0"
   inkscape:pageshadow="2"
   inkscape:window-width="1920"
   inkscape:window-height="1137"
   id="namedview13"
   showgrid="true"
   inkscape:zoom="11.313709"
   inkscape:cx="12.9589"
   inkscape:cy="28.307873"
   inkscape:window-x="-8"
   inkscape:window-y="-8"
   inkscape:window-maximized="1"
   inkscape:current-layer="svg2"><inkscape:grid
     type="xygrid"
     id="grid2990" /></sodipodi:namedview>

<g
   id="Guides"
   style="display:none;">
</g>
<path
   style="fill:#000000"
   d="m 12.218318,20.957426 c -0.31838,-0.0587 -0.47038,-0.10824 -0.73433,-0.23936 -0.71997,-0.35764 -1.22175,-0.95812 -1.46834,-1.75717 l -0.0796,-0.25799 -0.0111,-4.78755 c -0.008,-3.44307 1.7e-4,-4.8666296 0.029,-5.0691696 0.13282,-0.93424 0.70602,-1.70889 1.56527,-2.1154 0.52903,-0.25028 0.63001,-0.26077 2.50999,-0.26077 1.52141,0 1.66538,0.005 1.84082,0.0659 0.28022,0.097 0.57088,0.28004 0.94718,0.59649 0.45613,0.38359 3.46243,3.4141296 3.69061,3.7203596 0.23614,0.31693 0.4189,0.68621 0.46486,0.93932 0.0239,0.13147 0.0323,1.34433 0.0245,3.53785 -0.0132,3.70316 -4.2e-4,3.49843 -0.2516,4.04207 -0.29409,0.63652 -0.73752,1.08097 -1.3701,1.37324 -0.54811,0.25324 -0.36692,0.24133 -3.80793,0.25039 -2.43904,0.006 -3.15128,-0.002 -3.34917,-0.0382 z m 6.48991,-1.41466 c 0.38493,-0.158 0.69186,-0.46949 0.8449,-0.85746 0.058,-0.14699 0.0632,-0.39299 0.0726,-3.41198 0.007,-2.2214 -0.002,-3.31138 -0.0277,-3.43581 -0.0499,-0.24047 -0.19686,-0.38066 -0.50636,-0.48312 -0.0604,-0.02 -0.6397,-0.0459 -1.29148,-0.0577 l -1.18197,-0.0215 -0.14623,-0.0968 c -0.0806,-0.0534 -0.18189,-0.16394 -0.22573,-0.24642 -0.0769,-0.1447 -0.0801,-0.18913 -0.0981,-1.3640596 -0.0174,-1.13779 -0.0232,-1.22449 -0.0924,-1.3729 -0.0406,-0.0871 -0.11687,-0.19801 -0.16947,-0.24641 l -0.0956,-0.088 -1.73164,0 -1.73164,0 -0.22805,0.11258 c -0.39609,0.19553 -0.69452,0.57878 -0.77303,0.99277 -0.0489,0.25781 -0.0493,9.2519496 -4e-4,9.5096396 0.10812,0.57012 0.56462,1.02914 1.11848,1.12466 0.0914,0.0158 1.4968,0.0263 3.12316,0.0233 2.93574,-0.005 2.95834,-0.006 3.14074,-0.0807 z m -6.00975,-2.7056 0,-0.68645 2.7634,0 2.7634,0 0,0.68645 0,0.68646 -2.7634,0 -2.7634,0 0,-0.68646 z m 0,-2.07695 0,-0.68645 2.07695,0 2.07695,0 0,0.68645 0,0.68645 -2.07695,0 -2.07695,0 0,-0.68645 z m 0,-2.07695 0,-0.68645 2.7634,0 2.7634,0 0,0.68645 0,0.68645 -2.7634,0 -2.7634,0 0,-0.68645 z m -7.4602996,4.80208 c -0.79452,-0.15588 -1.53402,-0.6971 -1.91385,-1.40069 -0.0692,-0.12824 -0.17048,-0.37573 -0.22501,-0.54998 l -0.0991,-0.31682 0,-4.92836 c 0,-5.4977796 -0.017,-5.1046996 0.24565,-5.6732296 0.29256,-0.63321 0.73673,-1.07636 1.37389,-1.37075 0.52028,-0.24038 0.54639,-0.24296 2.46396,-0.24296 1.66814,0 1.7308,0.002 1.90346,0.0734 0.24379,0.10028 0.61753,0.34669 0.93219,0.6146 0.3081796,0.2624 2.0751096,2.0053 2.0751096,2.04689 0,0.0157 -0.0805,0.0285 -0.17895,0.0285 -0.0984,0 -0.30832,0.0325 -0.46644,0.0723 -0.78797,0.19822 -1.4691396,0.74336 -1.8105696,1.44899 -0.0723,0.14939 -0.14038,0.27216 -0.15131,0.27282 -0.0109,6.6e-4 -0.0501,-0.0582 -0.087,-0.13081 -0.0609,-0.11968 -0.0689,-0.24385 -0.0863,-1.3289 -0.0186,-1.16337 -0.0215,-1.2021 -0.10275,-1.38311 -0.0633,-0.14109 -0.12034,-0.20776 -0.23517,-0.27505 l -0.15156,-0.0888 -1.63002,0.0123 c -1.81156,0.0136 -1.76058,0.007 -2.13197,0.26165 -0.21295,0.1458 -0.40545,0.39139 -0.51393,0.65568 l -0.0754,0.18372 -0.0103,4.6467396 c -0.007,3.25106 0.001,4.71429 0.0283,4.87164 0.0912,0.53214 0.46319,0.95841 0.97064,1.11235 0.14379,0.0436 0.48388,0.0526 2.01237,0.0529 l 1.83933,3.8e-4 0,0.68645 0,0.68645 -1.90974,-0.004 c -1.05035,-0.002 -1.97983,-0.0176 -2.0655,-0.0344 z m 0.52539,-4.09803 0,-0.68645 1.72493,0 1.72492,0 0,0.68645 0,0.68645 -1.72492,0 -1.72493,0 0,-0.68645 z m 0,-2.07695 0,-0.68645 1.72493,0 1.72492,0 0,0.68645 0,0.68645 -1.72492,0 -1.72493,0 0,-0.68645 z m 0,-2.0769496 0,-0.68645 1.72493,0 1.72492,0 0,0.68645 0,0.68645 -1.72492,0 -1.72493,0 0,-0.68645 z"
   id="path3004"
   inkscape:connector-curvature="0" /></svg>