<?xml version="1.0" encoding="UTF-8" standalone="no"?>
<!-- Generator: Adobe Illustrator 15.1.0, SVG Export Plug-In . SVG Version: 6.00 Build 0)  -->

<svg
   xmlns:dc="http://purl.org/dc/elements/1.1/"
   xmlns:cc="http://creativecommons.org/ns#"
   xmlns:rdf="http://www.w3.org/1999/02/22-rdf-syntax-ns#"
   xmlns:svg="http://www.w3.org/2000/svg"
   xmlns="http://www.w3.org/2000/svg"
   xmlns:sodipodi="http://sodipodi.sourceforge.net/DTD/sodipodi-0.dtd"
   xmlns:inkscape="http://www.inkscape.org/namespaces/inkscape"
   version="1.1"
   x="0px"
   y="0px"
   width="24px"
   height="24px"
   viewBox="0 0 24 24"
   style="enable-background:new 0 0 24 24;"
   xml:space="preserve"
   id="svg2"
   inkscape:version="0.48.4 r9939"
   sodipodi:docname="formattab.svg"><metadata
   id="metadata12"><rdf:RDF><cc:Work
       rdf:about=""><dc:format>image/svg+xml</dc:format><dc:type
         rdf:resource="http://purl.org/dc/dcmitype/StillImage" /><dc:title /></cc:Work></rdf:RDF></metadata><defs
   id="defs10" /><sodipodi:namedview
   pagecolor="#ffffff"
   bordercolor="#666666"
   borderopacity="1"
   objecttolerance="10"
   gridtolerance="10"
   guidetolerance="10"
   inkscape:pageopacity="0"
   inkscape:pageshadow="2"
   inkscape:window-width="1920"
   inkscape:window-height="1137"
   id="namedview8"
   showgrid="false"
   inkscape:zoom="6.9532167"
   inkscape:cx="21.235539"
   inkscape:cy="19.20824"
   inkscape:window-x="-8"
   inkscape:window-y="-8"
   inkscape:window-maximized="1"
   inkscape:current-layer="svg2" />

<g
   id="Guides"
   style="display:none;">
</g>
<g
   id="g3049"
   transform="matrix(0.03522505,0,0,0.03522505,9.8317488,11.463713)"
   style="fill:#000000;fill-opacity:1"><path
     style="fill:#000000;fill-opacity:1"
     d="m 198.98779,157.72708 c -6.1e-4,-13.75 0.14023,-19.5137 0.31298,-12.80822 0.17275,6.70549 0.17325,17.95549 0.001,25 -0.17214,7.04452 -0.31348,1.55822 -0.31409,-12.19178 z m 0.0428,-142.5 c 0,-43.725 0.12298,-61.6125 0.27328,-39.75 0.1503,21.8625 0.1503,57.6375 0,79.5 -0.1503,21.8625 -0.27328,3.975 -0.27328,-39.75 z m -0.0439,-142 c 0,-13.475 0.14155,-18.9875 0.31456,-12.25 0.17301,6.7375 0.17301,17.7625 0,24.5 -0.17301,6.7375 -0.31456,1.225 -0.31456,-12.25 z m 7.56755,-38.5 c 0.68469,-0.825 1.46989,-1.5 1.74489,-1.5 0.275,0 -0.0602,0.675 -0.74489,1.5 -0.68469,0.825 -1.46989,1.5 -1.74489,1.5 -0.275,0 0.0602,-0.675 0.74489,-1.5 z"
     id="path3053"
     inkscape:connector-curvature="0" /><path
     style="fill:#000000;fill-opacity:1"
     d="m 63.55424,269.41662 c -4.57505,-1.27534 -10.71601,-5.06333 -13.42201,-8.27922 -12.71888,-15.11553 -8.77832,-35.91315 8.47191,-44.71334 6.0963,-3.11002 7.35035,-3.35562 21.46236,-4.20335 8.24325,-0.49519 17.46274,-1.40321 20.48774,-2.01783 17.08801,-3.47194 30.91194,-10.66194 36.48402,-18.9758 l 3.01598,-4.5 0.2944,-169 c 0.20297,-116.51035 -0.0336,-170.13513 -0.7616,-172.65475 -1.58765,-5.4947 -8.97531,-13.04369 -16.74736,-17.11306 -11.52789,-6.03591 -21.72013,-8.35033 -42.78544,-9.71559 -16.14407,-1.04631 -19.57988,-1.95695 -26.0752,-6.91105 -13.86849,-10.57776 -15.03861,-30.41386 -2.53032,-42.89427 6.63594,-6.62113 11.73605,-8.2224 26.1691,-8.21623 33.4148,0.0143 65.04726,9.21518 86.08258,25.03872 l 6.261,4.70974 6.04642,-4.63207 c 21.24252,-16.27355 55.74685,-25.97607 88.66183,-24.93146 13.99816,0.44426 17.52415,1.68647 24.08524,8.48529 7.17896,7.43906 9.81295,16.82964 7.38209,26.31823 -2.46313,9.61454 -7.16142,15.27178 -16.31681,19.64716 -4.48328,2.14256 -7.43222,2.63303 -20.55829,3.41925 -25.0517,1.50053 -42.66095,7.06129 -52.03002,16.43037 -7.97818,7.97817 -8.1362,8.67186 -8.49002,37.26972 l -0.31241,25.25 49.81241,0.006 c 32.899,0.004 51.17057,0.37657 53.8124,1.0982 5.45372,1.48972 10.07791,5.1879 12.75923,10.20415 l 2.24077,4.19165 0,102 0,102 -2.5,4.99974 c -1.66647,3.33277 -4.00036,6.00007 -7,8 l -4.5,3.00026 -52.31109,0.29971 -52.31108,0.29971 0.31108,25.70029 c 0.29248,24.16304 0.44134,25.94363 2.48867,29.7685 4.18242,7.81369 14.67569,15.05739 27.32242,18.86116 7.7265,2.32391 23.19723,4.55776 31.61351,4.56473 18.15504,0.015 27.74318,4.93219 34.13553,17.5059 1.95868,3.85271 2.54231,6.51188 2.54351,11.5889 0.003,11.82969 -6.35698,21.71569 -17.07106,26.53618 -4.63318,2.08457 -6.78046,2.37492 -17.56358,2.37492 -20.14816,0 -39.25991,-3.09421 -56.35602,-9.12408 -13.33602,-4.70368 -20.88053,-8.81106 -34.39123,-18.72326 -1.61676,-1.18615 -2.34939,-0.93625 -6.12357,2.08871 -13.55031,10.86042 -33.56842,19.05634 -56.78709,23.25008 -9.92765,1.79312 -40.5181,2.94746 -45,1.69809 z m 215,-254.18954 0,-79 -40,0 -40,0 0,79 0,79 40,0 40,0 0,-79 z m -458,116.82505 c -4.99442,-1.41923 -9.66509,-5.27982 -12.25923,-10.13298 l -2.24077,-4.19207 0,-102 0,-102 2.5,-4.99974 c 1.66647,-3.33277 4.00036,-6.00007 7,-8 l 4.5,-3.00026 140.25,-0.27022 140.25,-0.27022 0,19.52022 0,19.52022 -128,0 -128,0 0,79 0,79 128,0 128,0 0,19.5 0,19.5 -138.25,-0.0902 c -88.37024,-0.0576 -139.51278,-0.44901 -141.75,-1.08475 z m 64,-116.82505 0,-39 88.5,0 88.5,0 0,39 0,39 -88.5,0 -88.5,0 0,-39 z"
     id="path3051"
     inkscape:connector-curvature="0" /></g></svg>