<?xml version="1.0" encoding="UTF-8" standalone="no"?>
<!-- Generator: Adobe Illustrator 15.1.0, SVG Export Plug-In . SVG Version: 6.00 Build 0)  -->

<svg
   xmlns:dc="http://purl.org/dc/elements/1.1/"
   xmlns:cc="http://creativecommons.org/ns#"
   xmlns:rdf="http://www.w3.org/1999/02/22-rdf-syntax-ns#"
   xmlns:svg="http://www.w3.org/2000/svg"
   xmlns="http://www.w3.org/2000/svg"
   xmlns:sodipodi="http://sodipodi.sourceforge.net/DTD/sodipodi-0.dtd"
   xmlns:inkscape="http://www.inkscape.org/namespaces/inkscape"
   version="1.1"
   x="0px"
   y="0px"
   width="24px"
   height="24px"
   viewBox="0 0 24 24"
   style="enable-background:new 0 0 24 24;"
   xml:space="preserve"
   id="svg2"
   inkscape:version="0.48.4 r9939"
   sodipodi:docname="fractions.svg"><metadata
   id="metadata12"><rdf:RDF><cc:Work
       rdf:about=""><dc:format>image/svg+xml</dc:format><dc:type
         rdf:resource="http://purl.org/dc/dcmitype/StillImage" /><dc:title /></cc:Work></rdf:RDF></metadata><defs
   id="defs10" /><sodipodi:namedview
   pagecolor="#ffffff"
   bordercolor="#666666"
   borderopacity="1"
   objecttolerance="10"
   gridtolerance="10"
   guidetolerance="10"
   inkscape:pageopacity="0"
   inkscape:pageshadow="2"
   inkscape:window-width="1920"
   inkscape:window-height="1017"
   id="namedview8"
   showgrid="false"
   inkscape:zoom="19.666667"
   inkscape:cx="10.356293"
   inkscape:cy="16.995907"
   inkscape:window-x="-8"
   inkscape:window-y="-8"
   inkscape:window-maximized="1"
   inkscape:current-layer="svg2" />

<g
   id="Guides"
   style="display:none;">
</g>
<g
   style="font-size:14.87067032px;font-style:normal;font-variant:normal;font-weight:bold;font-stretch:normal;line-height:125%;letter-spacing:0px;word-spacing:0px;fill:#000000;fill-opacity:1;stroke:none;font-family:Segoe UI;-inkscape-font-specification:Segoe UI Bold"
   id="text3823"><path
     d="m 9.2725634,10.922868 -1.8076687,0 L 6.2991136,8.7187391 C 6.2550592,8.6369322 6.2094349,8.4858999 6.1622405,8.265642 l -0.018879,0 C 6.1213327,8.3694793 6.0694154,8.5268045 5.9876093,8.7376181 l -1.1705009,2.1852499 -1.8171082,0 2.156931,-3.3840693 -1.9728603,-3.3840692 1.8548663,0 0.9675511,2.0294976 c 0.075513,0.1604764 0.143163,0.35084 0.2029498,0.5710911 l 0.018879,0 C 6.2660719,6.6231692 6.3368683,6.4265127 6.4407064,6.165348 l 1.0761057,-2.0106185 1.6991142,0 -2.0294975,3.3557506 z"
     style="font-size:9.66607189px;baseline-shift:super;fill:#000000;fill-opacity:1"
     id="path2988" /><path
     d="m 15.218291,6.4587621 -4.995616,12.1405079 -1.1109439,0 4.9810939,-12.1405079 z"
     style="font-weight:normal;fill:#000000;fill-opacity:1;-inkscape-font-specification:Segoe UI"
     id="path2990" /><path
     d="m 21,13.077131 -2.204129,4.36106 0,2.407079 -1.524483,0 0,-2.37876 -2.147491,-4.389379 1.741592,0 1.090265,2.525073 c 0.01888,0.0472 0.07079,0.231272 0.155752,0.552212 l 0.01888,0 c 0.0409,-0.226545 0.08967,-0.404322 0.146312,-0.533333 l 1.109144,-2.543952 z"
     style="font-size:9.66607189px;font-weight:bold;baseline-shift:sub;fill:#000000;-inkscape-font-specification:Segoe UI Bold"
     id="path2992" /></g>
</svg>