<?xml version="1.0" encoding="UTF-8" standalone="no"?>
<!-- Generator: Adobe Illustrator 15.1.0, SVG Export Plug-In . SVG Version: 6.00 Build 0)  -->

<svg
   xmlns:dc="http://purl.org/dc/elements/1.1/"
   xmlns:cc="http://creativecommons.org/ns#"
   xmlns:rdf="http://www.w3.org/1999/02/22-rdf-syntax-ns#"
   xmlns:svg="http://www.w3.org/2000/svg"
   xmlns="http://www.w3.org/2000/svg"
   xmlns:sodipodi="http://sodipodi.sourceforge.net/DTD/sodipodi-0.dtd"
   xmlns:inkscape="http://www.inkscape.org/namespaces/inkscape"
   version="1.1"
   x="0px"
   y="0px"
   width="24px"
   height="24px"
   viewBox="0 0 24 24"
   style="enable-background:new 0 0 24 24;"
   xml:space="preserve"
   id="svg2"
   inkscape:version="0.48.4 r9939"
   sodipodi:docname="help.svg"><metadata
   id="metadata15"><rdf:RDF><cc:Work
       rdf:about=""><dc:format>image/svg+xml</dc:format><dc:type
         rdf:resource="http://purl.org/dc/dcmitype/StillImage" /></cc:Work></rdf:RDF></metadata><defs
   id="defs13" /><sodipodi:namedview
   pagecolor="#ffffff"
   bordercolor="#666666"
   borderopacity="1"
   objecttolerance="10"
   gridtolerance="10"
   guidetolerance="10"
   inkscape:pageopacity="0"
   inkscape:pageshadow="2"
   inkscape:window-width="1311"
   inkscape:window-height="942"
   id="namedview11"
   showgrid="false"
   inkscape:zoom="9.8333333"
   inkscape:cx="-19.728814"
   inkscape:cy="7.2713883"
   inkscape:window-x="0"
   inkscape:window-y="0"
   inkscape:window-maximized="0"
   inkscape:current-layer="svg2" />
<g
   id="Icons"
   style="opacity:1;fill-opacity:1">
	<g
   id="help"
   style="fill-opacity:1">
		<path
   id="circle"
   style="fill-rule:evenodd;clip-rule:evenodd;fill-opacity:1"
   d="M12.001,2.085c-5.478,0-9.916,4.438-9.916,9.916    c0,5.476,4.438,9.914,9.916,9.914c5.476,0,9.914-4.438,9.914-9.914C21.915,6.523,17.477,2.085,12.001,2.085z M12.002,20.085    c-4.465,0-8.084-3.619-8.084-8.083c0-4.465,3.619-8.084,8.084-8.084c4.464,0,8.083,3.619,8.083,8.084    C20.085,16.466,16.466,20.085,12.002,20.085z" />
		<g
   id="question_mark"
   style="fill-opacity:1">
			<path
   id="top"
   style="fill-rule:evenodd;clip-rule:evenodd;fill-opacity:1"
   d="M11.766,6.688c-2.5,0-3.219,2.188-3.219,2.188l1.411,0.854     c0,0,0.298-0.791,0.901-1.229c0.516-0.375,1.625-0.625,2.219,0.125c0.701,0.885-0.17,1.587-1.078,2.719     C11.047,12.531,11,15,11,15h1.969c0,0,0.135-2.318,1.041-3.381c0.603-0.707,1.443-1.338,1.443-2.494S14.266,6.688,11.766,6.688z" />
			<rect
   id="bottom"
   x="11"
   y="16"
   style="fill-rule:evenodd;clip-rule:evenodd;fill-opacity:1"
   width="2"
   height="2" />
		</g>
	</g>
</g>
<g
   id="Guides"
   style="display:none;">
</g>
</svg>