<?xml version="1.0" encoding="UTF-8" standalone="no"?>
<!-- Generator: Adobe Illustrator 15.1.0, SVG Export Plug-In . SVG Version: 6.00 Build 0)  -->

<svg
   xmlns:dc="http://purl.org/dc/elements/1.1/"
   xmlns:cc="http://creativecommons.org/ns#"
   xmlns:rdf="http://www.w3.org/1999/02/22-rdf-syntax-ns#"
   xmlns:svg="http://www.w3.org/2000/svg"
   xmlns="http://www.w3.org/2000/svg"
   xmlns:sodipodi="http://sodipodi.sourceforge.net/DTD/sodipodi-0.dtd"
   xmlns:inkscape="http://www.inkscape.org/namespaces/inkscape"
   version="1.1"
   x="0px"
   y="0px"
   width="24px"
   height="24px"
   viewBox="0 0 24 24"
   style="enable-background:new 0 0 24 24;"
   xml:space="preserve"
   id="svg2"
   inkscape:version="0.48.4 r9939"
   sodipodi:docname="home.svg"><metadata
   id="metadata12"><rdf:RDF><cc:Work
       rdf:about=""><dc:format>image/svg+xml</dc:format><dc:type
         rdf:resource="http://purl.org/dc/dcmitype/StillImage" /><dc:title></dc:title></cc:Work></rdf:RDF></metadata><defs
   id="defs10" /><sodipodi:namedview
   pagecolor="#ffffff"
   bordercolor="#666666"
   borderopacity="1"
   objecttolerance="10"
   gridtolerance="10"
   guidetolerance="10"
   inkscape:pageopacity="0"
   inkscape:pageshadow="2"
   inkscape:window-width="1920"
   inkscape:window-height="1137"
   id="namedview8"
   showgrid="false"
   inkscape:zoom="6.9532167"
   inkscape:cx="26.484908"
   inkscape:cy="19.20824"
   inkscape:window-x="-8"
   inkscape:window-y="-8"
   inkscape:window-maximized="1"
   inkscape:current-layer="svg2" />

<g
   id="Guides"
   style="display:none;">
</g>
<path
   style="fill:#323232"
   d="m 7.635085,20.633885 0,-0.36624 0.32519,-0.10628 c 0.64002,-0.20917 1.28945,-0.37178 1.8457,-0.46213 l 0.25489,-0.0414 0,-7.66123 0,-7.66122 -1.67494,0.009 -1.67493,0.009 -0.68728,1.81933 -0.68728,1.81934 -0.30899,0 c -0.35641,0 -0.31954,0.0462 -0.37892,-0.47461 -0.10616,-0.93115 -0.24782,-3.33432 -0.24782,-4.20405 l 0,-0.31353 7.5993,0 7.59929,0 -0.0235,0.74707 c -0.0414,1.31747 -0.1916,3.72957 -0.25613,4.1145 l -0.0223,0.13305 -0.33196,-0.01 -0.33195,-0.01 -0.67669,-1.81055 -0.67669,-1.81054 -1.67601,-0.009 -1.67602,-0.009 0,7.65935 0,7.65936 0.57129,0.11305 c 0.77229,0.15284 1.06916,0.2276 1.49414,0.37628 l 0.36036,0.12607 0,0.36531 0,0.36532 -4.35938,0 -4.35937,0 0,-0.36624 z"
   id="path3036"
   inkscape:connector-curvature="0" /></svg>