<?xml version="1.0" encoding="UTF-8" standalone="no"?>
<!-- Generator: Adobe Illustrator 15.1.0, SVG Export Plug-In . SVG Version: 6.00 Build 0)  -->

<svg
   xmlns:dc="http://purl.org/dc/elements/1.1/"
   xmlns:cc="http://creativecommons.org/ns#"
   xmlns:rdf="http://www.w3.org/1999/02/22-rdf-syntax-ns#"
   xmlns:svg="http://www.w3.org/2000/svg"
   xmlns="http://www.w3.org/2000/svg"
   xmlns:sodipodi="http://sodipodi.sourceforge.net/DTD/sodipodi-0.dtd"
   xmlns:inkscape="http://www.inkscape.org/namespaces/inkscape"
   version="1.1"
   x="0px"
   y="0px"
   width="24px"
   height="24px"
   viewBox="0 0 24 24"
   style="enable-background:new 0 0 24 24;"
   xml:space="preserve"
   id="svg2"
   inkscape:version="0.48.4 r9939"
   sodipodi:docname="numberlist.svg"><metadata
   id="metadata17"><rdf:RDF><cc:Work
       rdf:about=""><dc:format>image/svg+xml</dc:format><dc:type
         rdf:resource="http://purl.org/dc/dcmitype/StillImage" /></cc:Work></rdf:RDF></metadata><defs
   id="defs15" /><sodipodi:namedview
   pagecolor="#ffffff"
   bordercolor="#666666"
   borderopacity="1"
   objecttolerance="10"
   gridtolerance="10"
   guidetolerance="10"
   inkscape:pageopacity="0"
   inkscape:pageshadow="2"
   inkscape:window-width="1413"
   inkscape:window-height="1016"
   id="namedview13"
   showgrid="false"
   inkscape:zoom="9.8333333"
   inkscape:cx="12"
   inkscape:cy="12"
   inkscape:window-x="0"
   inkscape:window-y="0"
   inkscape:window-maximized="0"
   inkscape:current-layer="svg2" />
<g
   id="Icons"
   style="opacity:1;fill-opacity:1;">
	<g
   id="number-list-ltr"
   style="fill-opacity:1;">
		<polygon
   id="_x33_"
   points="3,16 3,17 4.993,17 5.023,18 4,18 4,19 5,19 5,20 3,20 3,21 5.023,21 6,19.998 6,18.998 5.045,18.467    6,17.967 6,16.998 4.993,16   "
   style="fill-opacity:1;" />
		<polygon
   id="_x32_"
   points="3,9 3,10 5.117,10 3,12.187 3,13.998 6,13.936 6,13 3.882,13 6,10.812 6,9.78 5.332,9   "
   style="fill-opacity:1;" />
		<polygon
   id="_x31_"
   points="4.993,2 4.345,2 3.018,3.391 3.049,4 4.074,4 4.006,6 3,6 3,7 6,7 6,6 4.963,6   "
   style="fill-opacity:1;" />
		<path
   id="bottom_line_1_"
   d="M20.002,17H9c-0.553,0-1,0.447-1,1v1c0,0.553,0.447,1,1,1h11.002C20.553,20,21,19.553,21,19v-1    C21,17.447,20.553,17,20.002,17z"
   style="fill-opacity:1;" />
		<path
   id="middle_line_1_"
   d="M20.002,10H9c-0.553,0-1,0.447-1,1v1c0,0.553,0.447,1,1,1h11.002C20.553,13,21,12.553,21,12v-1    C21,10.447,20.553,10,20.002,10z"
   style="fill-opacity:1;" />
		<path
   id="top_line_1_"
   d="M20.002,3H9C8.447,3,8,3.447,8,4v1c0,0.553,0.447,1,1,1h11.002C20.553,6,21,5.553,21,5V4    C21,3.447,20.553,3,20.002,3z"
   style="fill-opacity:1;" />
	</g>
</g>
<g
   id="Guides"
   style="display:none;">
</g>
</svg>