<?xml version="1.0" encoding="UTF-8" standalone="no"?>
<!-- Generator: Adobe Illustrator 15.1.0, SVG Export Plug-In . SVG Version: 6.00 Build 0)  -->

<svg
   xmlns:dc="http://purl.org/dc/elements/1.1/"
   xmlns:cc="http://creativecommons.org/ns#"
   xmlns:rdf="http://www.w3.org/1999/02/22-rdf-syntax-ns#"
   xmlns:svg="http://www.w3.org/2000/svg"
   xmlns="http://www.w3.org/2000/svg"
   xmlns:sodipodi="http://sodipodi.sourceforge.net/DTD/sodipodi-0.dtd"
   xmlns:inkscape="http://www.inkscape.org/namespaces/inkscape"
   version="1.1"
   x="0px"
   y="0px"
   width="24px"
   height="24px"
   viewBox="0 0 24 24"
   style="enable-background:new 0 0 24 24;"
   xml:space="preserve"
   id="svg2"
   inkscape:version="0.48.4 r9939"
   sodipodi:docname="outdent.svg"><metadata
   id="metadata15"><rdf:RDF><cc:Work
       rdf:about=""><dc:format>image/svg+xml</dc:format><dc:type
         rdf:resource="http://purl.org/dc/dcmitype/StillImage" /></cc:Work></rdf:RDF></metadata><defs
   id="defs13" /><sodipodi:namedview
   pagecolor="#ffffff"
   bordercolor="#666666"
   borderopacity="1"
   objecttolerance="10"
   gridtolerance="10"
   guidetolerance="10"
   inkscape:pageopacity="0"
   inkscape:pageshadow="2"
   inkscape:window-width="640"
   inkscape:window-height="480"
   id="namedview11"
   showgrid="false"
   inkscape:zoom="9.8333333"
   inkscape:cx="12"
   inkscape:cy="12"
   inkscape:window-x="0"
   inkscape:window-y="0"
   inkscape:window-maximized="0"
   inkscape:current-layer="svg2" />
<g
   id="Icons"
   style="opacity:1">
	<g
   id="outdent-list-ltr">
		<polygon
   id="arrow_5_"
   points="8,13 10,13 10,10 7.948,10 7.917,7.94 3.205,11.525 8,15.079   " />
		<path
   id="bottom_line_3_"
   d="M20,17H4c-0.553,0-1,0.447-1,1v1c0,0.553,0.447,1,1,1h16c0.553,0,1-0.447,1-1v-1    C21,17.447,20.553,17,20,17z" />
		<path
   id="middle_line_3_"
   d="M20,10h-7c-0.553,0-1,0.447-1,1v1c0,0.553,0.447,1,1,1h7c0.553,0,1-0.447,1-1v-1    C21,10.447,20.553,10,20,10z" />
		<path
   id="top_line_3_"
   d="M20,3H4C3.447,3,3,3.447,3,4v1c0,0.553,0.447,1,1,1h16c0.553,0,1-0.447,1-1V4C21,3.447,20.553,3,20,3z" />
	</g>
</g>
<g
   id="Guides"
   style="display:none;">
</g>
</svg>