<?xml version="1.0" encoding="UTF-8" standalone="no"?>
<!-- Created with Inkscape (http://www.inkscape.org/) -->

<svg
   xmlns:dc="http://purl.org/dc/elements/1.1/"
   xmlns:cc="http://creativecommons.org/ns#"
   xmlns:rdf="http://www.w3.org/1999/02/22-rdf-syntax-ns#"
   xmlns:svg="http://www.w3.org/2000/svg"
   xmlns="http://www.w3.org/2000/svg"
   xmlns:sodipodi="http://sodipodi.sourceforge.net/DTD/sodipodi-0.dtd"
   xmlns:inkscape="http://www.inkscape.org/namespaces/inkscape"
   width="24"
   height="24"
   id="svg2"
   version="1.1"
   inkscape:version="0.48.4 r9939"
   sodipodi:docname="removeformat.svg">
  <defs
     id="defs4" />
  <sodipodi:namedview
     id="base"
     pagecolor="#ffffff"
     bordercolor="#666666"
     borderopacity="1.0"
     inkscape:pageopacity="0.0"
     inkscape:pageshadow="2"
     inkscape:zoom="22.627417"
     inkscape:cx="11.130476"
     inkscape:cy="9.6830038"
     inkscape:document-units="px"
     inkscape:current-layer="layer1"
     showgrid="false"
     inkscape:window-width="1509"
     inkscape:window-height="899"
     inkscape:window-x="3"
     inkscape:window-y="222"
     inkscape:window-maximized="0" />
  <metadata
     id="metadata7">
    <rdf:RDF>
      <cc:Work
         rdf:about="">
        <dc:format>image/svg+xml</dc:format>
        <dc:type
           rdf:resource="http://purl.org/dc/dcmitype/StillImage" />
        <dc:title />
      </cc:Work>
    </rdf:RDF>
  </metadata>
  <g
     inkscape:label="Layer 1"
     inkscape:groupmode="layer"
     id="layer1"
     transform="translate(0,-1028.3622)">
    <flowRoot
       xml:space="preserve"
       id="flowRoot3007"
       style="font-size:48px;font-style:normal;font-variant:normal;font-weight:bold;font-stretch:normal;line-height:125%;letter-spacing:0px;word-spacing:0px;fill:#000000;fill-opacity:1;stroke:none;font-family:Arial;-inkscape-font-specification:Arial Bold"><flowRegion
         id="flowRegion3009"><rect
           id="rect3011"
           width="260"
           height="145.71428"
           x="245.71428"
           y="298.79074" /></flowRegion><flowPara
         id="flowPara3013" /></flowRoot>    <flowRoot
       xml:space="preserve"
       id="flowRoot3019"
       style="font-size:48px;font-style:normal;font-variant:normal;font-weight:bold;font-stretch:normal;line-height:125%;letter-spacing:0px;word-spacing:0px;fill:#000000;fill-opacity:1;stroke:none;font-family:Arial;-inkscape-font-specification:Arial Bold"><flowRegion
         id="flowRegion3021"><rect
           id="rect3023"
           width="157.85715"
           height="120"
           x="277.85715"
           y="185.93361" /></flowRegion><flowPara
         id="flowPara3025" /></flowRoot>    <g
       id="g3134">
      <path
         d="m 5.8796211,1043.1207 c 0.2622586,-2.5492 0.4196147,-5.3554 0.4720681,-8.4186 L 3,1034.7887 l 0.039347,-0.8734 c 0.020996,-0.4668 0.036702,-0.9782 0.047209,-1.5342 1.4896374,0.011 3.2258027,0.016 5.2084961,0.016 l 1.9433509,-0.01 1.888276,0 1.022818,-0.01 -0.04721,0.7631 c -0.02099,0.4092 -0.0354,0.7475 -0.04327,1.015 -0.0079,0.2675 -0.0118,0.4695 -0.0118,0.6058 -1.122484,-0.053 -2.048265,-0.079 -2.777339,-0.079 l -0.5507501,0 c -0.078686,0.9284 -0.1390046,1.786 -0.1809599,2.5728 -0.0577,1.1277 -0.1022867,2.2227 -0.133752,3.2848 -0.031493,1.0622 -0.047213,1.9211 -0.047207,2.5767 -0.8602172,-0.011 -1.4162125,-0.016 -1.6679771,-0.016 -0.2255484,0 -0.8287479,0.01 -1.8095986,0.016 z"
         style="font-size:39.60021973px;font-style:normal;font-variant:normal;font-weight:normal;font-stretch:normal;text-align:start;line-height:125%;letter-spacing:0px;word-spacing:0px;writing-mode:lr-tb;text-anchor:start;fill:#000000;fill-opacity:1;stroke:none;font-family:Eras Bold ITC;-inkscape-font-specification:Eras Bold ITC"
         id="path3081"
         inkscape:connector-curvature="0" />
      <path
         d="m 10.771833,1048.3433 1.793864,-2.384 1.329661,-1.8253 -2.470496,-3.8237 c 0.7658,0.011 1.424074,0.016 1.974824,0.016 0.692363,0 1.261468,-0.01 1.707316,-0.016 l 0.833989,1.8017 c 0.05245,0.1101 0.128502,0.2806 0.228164,0.5114 0.403875,-0.6923 0.881193,-1.4634 1.431943,-2.3131 0.466819,0.011 1.025435,0.016 1.675847,0.016 0.603191,0 1.177541,-0.01 1.723055,-0.016 l -1.258853,1.6522 c -0.246536,0.3252 -0.773677,1.0386 -1.581433,2.14 0.482554,0.834 1.363746,2.2476 2.643587,4.2408 -0.592718,-0.011 -1.177558,-0.016 -1.754521,-0.016 -0.702869,0 -1.332294,0.01 -1.888276,0.016 -0.340946,-0.7343 -0.601898,-1.2772 -0.78285,-1.6286 -0.180964,-0.3514 -0.334389,-0.674 -0.460268,-0.9678 l -0.251769,0.4328 c -0.07868,0.1311 -0.199323,0.3252 -0.36192,0.5822 l -0.999214,1.5814 c -0.566486,-0.011 -1.117231,-0.016 -1.652243,-0.016 -0.618934,0 -1.245738,0.01 -1.880407,0.016 z"
         style="font-size:48px;font-style:normal;font-variant:normal;font-weight:bold;font-stretch:normal;line-height:125%;letter-spacing:0px;word-spacing:0px;baseline-shift:sub;fill:#000000;fill-opacity:1;stroke:none;font-family:Eras Bold ITC;-inkscape-font-specification:Eras Bold ITC"
         id="path3083"
         inkscape:connector-curvature="0" />
      <rect
         y="1044.3806"
         x="3.39308"
         height="1.3735414"
         width="8.4406319"
         id="rect3070"
         style="fill:#000000;fill-opacity:1;fill-rule:nonzero;stroke:none" />
    </g>
  </g>
</svg>
