<?xml version="1.0" encoding="UTF-8" standalone="no"?>
<!-- Created with Inkscape (http://www.inkscape.org/) -->

<svg
   xmlns:dc="http://purl.org/dc/elements/1.1/"
   xmlns:cc="http://creativecommons.org/ns#"
   xmlns:rdf="http://www.w3.org/1999/02/22-rdf-syntax-ns#"
   xmlns:svg="http://www.w3.org/2000/svg"
   xmlns="http://www.w3.org/2000/svg"
   xmlns:sodipodi="http://sodipodi.sourceforge.net/DTD/sodipodi-0.dtd"
   xmlns:inkscape="http://www.inkscape.org/namespaces/inkscape"
   width="24"
   height="24"
   id="svg2"
   version="1.1"
   inkscape:version="0.48.4 r9939"
   sodipodi:docname="subscript.svg">
  <defs
     id="defs4" />
  <sodipodi:namedview
     id="base"
     pagecolor="#ffffff"
     bordercolor="#666666"
     borderopacity="1.0"
     inkscape:pageopacity="0.0"
     inkscape:pageshadow="2"
     inkscape:zoom="5.6568542"
     inkscape:cx="-25.671223"
     inkscape:cy="3.0622277"
     inkscape:document-units="px"
     inkscape:current-layer="layer1"
     showgrid="false"
     inkscape:window-width="1509"
     inkscape:window-height="899"
     inkscape:window-x="3"
     inkscape:window-y="222"
     inkscape:window-maximized="0" />
  <metadata
     id="metadata7">
    <rdf:RDF>
      <cc:Work
         rdf:about="">
        <dc:format>image/svg+xml</dc:format>
        <dc:type
           rdf:resource="http://purl.org/dc/dcmitype/StillImage" />
        <dc:title />
      </cc:Work>
    </rdf:RDF>
  </metadata>
  <g
     inkscape:label="Layer 1"
     inkscape:groupmode="layer"
     id="layer1"
     transform="translate(0,-1028.3622)">
    <flowRoot
       xml:space="preserve"
       id="flowRoot3007"
       style="font-size:48px;font-style:normal;font-variant:normal;font-weight:bold;font-stretch:normal;line-height:125%;letter-spacing:0px;word-spacing:0px;fill:#000000;fill-opacity:1;stroke:none;font-family:Arial;-inkscape-font-specification:Arial Bold"><flowRegion
         id="flowRegion3009"><rect
           id="rect3011"
           width="260"
           height="145.71428"
           x="245.71428"
           y="298.79074" /></flowRegion><flowPara
         id="flowPara3013" /></flowRoot>    <flowRoot
       xml:space="preserve"
       id="flowRoot3019"
       style="font-size:48px;font-style:normal;font-variant:normal;font-weight:bold;font-stretch:normal;line-height:125%;letter-spacing:0px;word-spacing:0px;fill:#000000;fill-opacity:1;stroke:none;font-family:Arial;-inkscape-font-specification:Arial Bold"><flowRegion
         id="flowRegion3021"><rect
           id="rect3023"
           width="157.85715"
           height="120"
           x="277.85715"
           y="185.93361" /></flowRegion><flowPara
         id="flowPara3025" /></flowRoot>    <g
       style="font-size:17.40336418px;font-style:normal;font-variant:normal;font-weight:normal;font-stretch:normal;line-height:125%;letter-spacing:0px;word-spacing:0px;fill-opacity:1;stroke:none;font-family:Eras Bold ITC;-inkscape-font-specification:Eras Bold ITC"
       id="text3877">
      <path
         d="m 2.9999998,1042.96 1.9374839,-2.5749 1.4361175,-1.9714 -2.6682893,-4.1299 c 0.8271117,0.011 1.5380883,0.017 2.1329319,0.017 0.7477974,0 1.3624663,-0.01 1.8440088,-0.017 l 0.90076,1.946 c 0.056646,0.1189 0.1387908,0.303 0.2464344,0.5523 0.436211,-0.7478 0.9517399,-1.5806 1.546588,-2.4983 0.504191,0.011 1.10753,0.017 1.810018,0.017 0.651483,0 1.271817,-0.01 1.861004,-0.017 l -1.359638,1.7845 c -0.266271,0.3512 -0.835619,1.1217 -1.708045,2.3114 0.521186,0.9007 1.472932,2.4275 2.85524,4.5803 -0.640173,-0.011 -1.271838,-0.017 -1.894995,-0.017 -0.75914,0 -1.438958,0.01 -2.0394572,0.017 -0.3682416,-0.7932 -0.6500829,-1.3795 -0.8455248,-1.7591 -0.1954536,-0.3795 -0.3611593,-0.7279 -0.4971176,-1.0452 l -0.2719275,0.4674 c -0.084982,0.1416 -0.2152809,0.3512 -0.3908959,0.6288 l -1.0792125,1.7081 c -0.6118401,-0.011 -1.206681,-0.017 -1.7845247,-0.017 -0.6684898,0 -1.3454754,0.01 -2.030959,0.017 z"
         style=""
         id="path2994" />
      <path
         d="m 14.642329,1046.4406 c 0.01473,-0.173 0.0267,-0.4023 0.0359,-0.6877 0.0092,-0.2853 0.02117,-0.5772 0.0359,-0.8754 0.382969,-0.313 0.734639,-0.6168 1.055009,-0.9114 0.519217,-0.4788 0.979517,-0.928 1.380902,-1.3478 0.320365,-0.3351 0.589181,-0.6426 0.806446,-0.9224 0.125198,-0.1657 0.208052,-0.3038 0.248562,-0.4143 0.02946,-0.077 0.04418,-0.1565 0.04419,-0.2375 -4e-6,-0.1068 -0.02394,-0.1998 -0.07181,-0.279 -0.04788,-0.079 -0.123364,-0.1463 -0.226468,-0.2016 -0.10311,-0.055 -0.228312,-0.099 -0.375605,-0.1325 -0.147299,-0.033 -0.314848,-0.05 -0.502648,-0.05 -0.257771,0 -0.529348,0.022 -0.814732,0.066 -0.285388,0.044 -0.674802,0.1289 -1.168243,0.2541 l 0.143614,-0.7899 c 0.03314,-0.1583 0.08101,-0.4621 0.143614,-0.9114 0.96847,-0.162 1.876182,-0.243 2.723138,-0.243 0.386648,0 0.756729,0.035 1.110245,0.1049 0.353505,0.07 0.670192,0.1888 0.95006,0.3563 0.279856,0.1676 0.489753,0.3627 0.629691,0.5855 0.139925,0.2228 0.20989,0.4631 0.209897,0.7209 -7e-6,0.1693 -0.02026,0.3369 -0.06076,0.5026 -0.04051,0.1583 -0.116002,0.3443 -0.226467,0.5579 -0.139938,0.2651 -0.313011,0.5266 -0.519219,0.7843 -0.305646,0.3867 -0.659156,0.7862 -1.060533,1.1987 -0.382974,0.3903 -0.843274,0.8285 -1.380901,1.3146 l 0.607596,0.01 c 0.14361,0 0.428075,-0 0.853398,-0.011 0.425312,-0.01 0.720824,-0.015 0.886538,-0.022 0.165702,-0.01 0.370076,-0.024 0.613121,-0.05 -0.01105,0.1768 -0.02855,0.3977 -0.05247,0.6629 -0.02394,0.2651 -0.0488,0.5892 -0.07457,0.9721 -0.916924,-0.01 -1.87619,-0.011 -2.877799,-0.011 -1.207831,0 -2.229697,0 -3.065602,0.011 z"
         style="font-size:11.3123455px;baseline-shift:sub"
         id="path2996" />
    </g>
  </g>
</svg>
