<?xml version="1.0" encoding="UTF-8" standalone="no"?>
<!-- Created with Inkscape (http://www.inkscape.org/) -->

<svg
   xmlns:dc="http://purl.org/dc/elements/1.1/"
   xmlns:cc="http://creativecommons.org/ns#"
   xmlns:rdf="http://www.w3.org/1999/02/22-rdf-syntax-ns#"
   xmlns:svg="http://www.w3.org/2000/svg"
   xmlns="http://www.w3.org/2000/svg"
   xmlns:sodipodi="http://sodipodi.sourceforge.net/DTD/sodipodi-0.dtd"
   xmlns:inkscape="http://www.inkscape.org/namespaces/inkscape"
   width="24"
   height="24"
   id="svg2"
   version="1.1"
   inkscape:version="0.48.4 r9939"
   sodipodi:docname="underline.svg">
  <defs
     id="defs4" />
  <sodipodi:namedview
     id="base"
     pagecolor="#ffffff"
     bordercolor="#666666"
     borderopacity="1.0"
     inkscape:pageopacity="0.0"
     inkscape:pageshadow="2"
     inkscape:zoom="7.6545513"
     inkscape:cx="-21.961513"
     inkscape:cy="13.947596"
     inkscape:document-units="px"
     inkscape:current-layer="layer1"
     showgrid="false"
     inkscape:window-width="1509"
     inkscape:window-height="899"
     inkscape:window-x="33"
     inkscape:window-y="98"
     inkscape:window-maximized="0" />
  <metadata
     id="metadata7">
    <rdf:RDF>
      <cc:Work
         rdf:about="">
        <dc:format>image/svg+xml</dc:format>
        <dc:type
           rdf:resource="http://purl.org/dc/dcmitype/StillImage" />
        <dc:title />
      </cc:Work>
    </rdf:RDF>
  </metadata>
  <g
     inkscape:label="Layer 1"
     inkscape:groupmode="layer"
     id="layer1"
     transform="translate(0,-1028.3622)">
    <flowRoot
       xml:space="preserve"
       id="flowRoot3007"
       style="font-size:48px;font-style:normal;font-variant:normal;font-weight:bold;font-stretch:normal;line-height:125%;letter-spacing:0px;word-spacing:0px;fill:#000000;fill-opacity:1;stroke:none;font-family:Arial;-inkscape-font-specification:Arial Bold"><flowRegion
         id="flowRegion3009"><rect
           id="rect3011"
           width="260"
           height="145.71428"
           x="245.71428"
           y="298.79074" /></flowRegion><flowPara
         id="flowPara3013" /></flowRoot>    <flowRoot
       xml:space="preserve"
       id="flowRoot3019"
       style="font-size:48px;font-style:normal;font-variant:normal;font-weight:bold;font-stretch:normal;line-height:125%;letter-spacing:0px;word-spacing:0px;fill:#000000;fill-opacity:1;stroke:none;font-family:Arial;-inkscape-font-specification:Arial Bold"><flowRegion
         id="flowRegion3021"><rect
           id="rect3023"
           width="157.85715"
           height="120"
           x="277.85715"
           y="185.93361" /></flowRegion><flowPara
         id="flowPara3025" /></flowRoot>    <g
       id="g3032"
       transform="matrix(0.60000098,0,0,0.60000098,1.1999824,419.74387)">
      <g
         style="font-size:34.13144302px;font-style:normal;font-variant:normal;font-weight:normal;font-stretch:normal;line-height:125%;letter-spacing:0px;word-spacing:0px;fill:#000000;fill-opacity:1;stroke:none;font-family:Eras Bold ITC;-inkscape-font-specification:Eras Bold ITC"
         id="text3883">
        <path
           d="m 7.0256079,1019.3622 c 1.7332329,0.022 2.9553862,0.033 3.6664631,0.033 0.888833,0 2.0721,-0.011 3.549804,-0.033 l -0.499972,7.083 c -0.100004,1.3332 -0.175,2.5832 -0.224988,3.7498 -0.05001,1.1666 -0.075,1.9721 -0.075,2.4165 -9e-6,0.8444 0.0611,1.5499 0.183323,2.1165 0.122206,0.5667 0.344416,1.0472 0.66663,1.4416 0.322194,0.3945 0.769391,0.6917 1.341592,0.8916 0.572179,0.2 1.169368,0.3 1.791568,0.3 0.53329,0 1.033262,-0.061 1.499917,-0.1833 0.366631,-0.1 0.694391,-0.2389 0.983279,-0.4166 0.255525,-0.1667 0.477735,-0.3611 0.666629,-0.5833 0.233304,-0.2667 0.438848,-0.6 0.616633,-1 0.177751,-0.3777 0.311077,-0.8666 0.399978,-1.4666 0.09998,-0.611 0.233303,-1.9999 0.399978,-4.1664 0.144418,-1.8443 0.255523,-3.5331 0.333315,-5.0664 0.06665,-1.4888 0.127752,-3.1942 0.183323,-5.1164 1.677665,0.022 2.999812,0.033 3.966447,0.033 l 3.383146,-0.033 -0.816622,11.8327 c -0.01113,0.2222 -0.01669,0.4055 -0.01666,0.55 -0.04447,2.311 -0.186126,3.9414 -0.424977,4.8914 -0.2389,0.9499 -0.636099,1.7749 -1.191601,2.4748 -0.555547,0.7 -1.366612,1.3305 -2.433198,1.8916 -1.066627,0.5611 -2.27767,0.9583 -3.633132,1.1916 -1.355496,0.2333 -2.727641,0.35 -4.116439,0.35 -1.244387,0 -2.444319,-0.089 -3.599801,-0.2667 -1.066615,-0.1777 -2.027672,-0.4361 -2.883173,-0.7749 -0.855514,-0.3389 -1.5999165,-0.7361 -2.2332099,-1.1916 -0.5777494,-0.4222 -1.0221688,-0.8528 -1.3332595,-1.2916 -0.3110964,-0.4389 -0.5555271,-0.9639 -0.7332927,-1.5749 -0.1999909,-0.6889 -0.2999852,-1.4277 -0.2999834,-2.2166 -1.8e-6,-0.2666 0.011109,-0.6694 0.033332,-1.2083 0.022219,-0.5388 0.072216,-1.3138 0.1499917,-2.3248 l 0.2166546,-2.6665 c 0.05555,-0.7 0.1166579,-1.7277 0.1833232,-3.0832 z"
           style=""
           id="path2995" />
      </g>
      <path
         style="fill:#000000;fill-opacity:1;fill-rule:nonzero;stroke:none"
         d="m 5.5940008,1045.2769 24.8119982,0 0,4.0853 -24.8119982,0 z"
         id="rect3887" />
    </g>
  </g>
</svg>
