<?xml version="1.0" encoding="UTF-8" standalone="no"?>
<!-- Created with Inkscape (http://www.inkscape.org/) -->

<svg
   xmlns:dc="http://purl.org/dc/elements/1.1/"
   xmlns:cc="http://creativecommons.org/ns#"
   xmlns:rdf="http://www.w3.org/1999/02/22-rdf-syntax-ns#"
   xmlns:svg="http://www.w3.org/2000/svg"
   xmlns="http://www.w3.org/2000/svg"
   xmlns:sodipodi="http://sodipodi.sourceforge.net/DTD/sodipodi-0.dtd"
   xmlns:inkscape="http://www.inkscape.org/namespaces/inkscape"
   width="38"
   height="33.52"
   id="svg2"
   version="1.1"
   inkscape:version="0.48.4 r9939"
   sodipodi:docname="addimage.svg">
  <defs
     id="defs4" />
  <sodipodi:namedview
     id="base"
     pagecolor="#ffffff"
     bordercolor="#666666"
     borderopacity="1.0"
     inkscape:pageopacity="0.0"
     inkscape:pageshadow="2"
     inkscape:zoom="15.839192"
     inkscape:cx="8.949277"
     inkscape:cy="14.168913"
     inkscape:document-units="px"
     inkscape:current-layer="layer1"
     showgrid="false"
     inkscape:window-width="1920"
     inkscape:window-height="1137"
     inkscape:window-x="-8"
     inkscape:window-y="-8"
     inkscape:window-maximized="1" />
  <metadata
     id="metadata7">
    <rdf:RDF>
      <cc:Work
         rdf:about="">
        <dc:format>image/svg+xml</dc:format>
        <dc:type
           rdf:resource="http://purl.org/dc/dcmitype/StillImage" />
        <dc:title />
      </cc:Work>
    </rdf:RDF>
  </metadata>
  <g
     inkscape:label="Layer 1"
     inkscape:groupmode="layer"
     id="layer1"
     transform="translate(0,-1018.8422)">
    <path
       style="fill:#73594a;fill-opacity:1;fill-rule:nonzero;stroke:none"
       d="m 5.9874782,1024.7062 c -0.4181238,0.3986 -0.151681,1.0427 -0.2268897,1.5547 0,6.6922 0,13.3845 0,20.0767 0.03962,0.5508 0.6566938,0.5287 1.0673682,0.4992 8.3968933,0 16.7937863,0 25.1906793,0 0.550769,-0.04 0.528682,-0.6567 0.499157,-1.0674 0,-6.8816 0,-13.7633 0,-20.645 -0.03962,-0.5507 -0.656694,-0.5286 -1.067368,-0.4991 -8.396893,0 -16.793786,0 -25.1906791,0 -0.090756,0.027 -0.1815118,0.054 -0.2722677,0.081 z m 13.1517128,2.5589 c 3.558551,0 7.117103,0 10.675655,0 0,5.644 0,11.2879 0,16.9319 -7.117104,0 -14.234207,0 -21.3513103,0 0,-5.644 0,-11.2879 0,-16.9319 3.5585513,0 7.1171033,0 10.6756553,0 z"
       id="path2987"
       inkscape:connector-curvature="0" />
    <path
       style="fill:#1f5a1f;fill-opacity:1;fill-rule:nonzero;stroke:none"
       d="m 14.42383,12.828501 c -0.55316,0.175224 -0.820124,0.768713 -1.229317,1.140509 -1.575151,1.808595 -3.158714,3.618321 -4.6876868,5.461419 -0.2088998,0.515425 -0.040445,1.109486 -0.094587,1.656858 0.023756,1.206624 -0.047748,2.427101 0.035961,3.625007 0.1709451,0.57702 0.8989496,0.323062 1.3470797,0.378117 6.4456413,0 12.8912823,0 19.3369243,0 0.529056,-0.03505 0.543255,-0.624555 0.459698,-1.023963 -0.08857,-1.3042 0.0133,-2.624241 -0.07913,-3.92102 -0.168169,-0.487784 -0.818594,-0.484589 -1.216342,-0.716538 -1.181918,-0.458288 -2.352788,-0.963277 -3.541958,-1.391547 -0.520593,-0.05016 -0.943538,0.388452 -1.419414,0.551979 -1.072577,0.51675 -2.128035,1.076269 -3.223203,1.541083 -0.862902,-1.019918 -1.590009,-2.185218 -2.398355,-3.263944 -0.950993,-1.29512 -1.843845,-2.638538 -2.833919,-3.901826 -0.126172,-0.117277 -0.291596,-0.137358 -0.455753,-0.136134 z"
       id="path2991"
       inkscape:connector-curvature="0"
       transform="translate(0,1018.8422)" />
    <path
       style="fill:#c4e8ff;fill-opacity:1;fill-rule:nonzero;stroke:none"
       d="M 8.6391286,8.5156234 C 8.2206818,8.9142267 8.4883738,9.5583836 8.4137999,10.07031 c 0.014776,2.565924 -0.021475,5.133929 0.055655,7.698468 0.063702,0.532198 0.790703,0.602792 1.0634223,0.19335 1.6653372,-1.842547 3.2245012,-3.816776 4.9323852,-5.632784 0.139852,-0.0553 0.256149,0.253026 0.372376,0.347606 1.714779,2.301917 3.371308,4.670524 5.053248,6.976 0.457503,0.433702 1.05463,-0.05915 1.508904,-0.242596 1.063278,-0.528855 2.123725,-1.068055 3.210403,-1.548847 1.455326,0.496603 2.859466,1.129857 4.304986,1.651363 0.518224,0.08633 0.719145,-0.495153 0.674631,-0.911372 0.04917,-3.222138 0.01221,-6.445135 0.02379,-9.6676083 -0.03962,-0.5507693 -0.656693,-0.5286823 -1.067368,-0.4991575 -6.544947,0 -13.089893,0 -19.6348397,0 -0.090756,0.026964 -0.1815118,0.053928 -0.2722677,0.080891 z M 23.430366,11.676296 c 1.050647,-0.05809 1.959849,1.01866 1.732254,2.051872 -0.152505,1.066781 -1.433372,1.711664 -2.387275,1.244934 -0.903063,-0.385517 -1.300255,-1.587427 -0.789181,-2.430679 0.28407,-0.519537 0.860256,-0.830438 1.444202,-0.866127 z"
       id="path2989"
       inkscape:connector-curvature="0"
       transform="translate(0,1018.8422)" />
    <path
       style="fill:#e1d523;fill-opacity:1;fill-rule:nonzero;stroke:none"
       d="m 23.329745,11.851889 c -1.068789,0.02125 -1.846722,1.399321 -1.213366,2.298491 0.422354,0.859431 1.657374,1.094152 2.369518,0.459699 C 25.159847,14.092876 25.2538,13.0412 24.69503,12.404316 24.392638,11.95129 23.848565,11.80562 23.329745,11.851889 z"
       id="path3761"
       inkscape:connector-curvature="0"
       transform="translate(0,1018.8422)" />
    <path
       style="fill:#000000"
       d="m 5,1035.6022 0,-11.7578 14,0 14,0 0,11.7578 0,11.7578 -14,0 -14,0 0,-11.7578 z m 26.90625,0 0,-10.6641 -12.90625,0 -12.90625,0 0,10.6641 0,10.6641 12.90625,0 12.90625,0 0,-10.6641 z m -24.0625,0 0,-8.9141 11.15625,0 11.15625,0 0,8.9141 0,8.9141 -11.15625,0 -11.15625,0 0,-8.9141 z m 21.26039,5.6821 -0.0143,-2.1929 -2.23373,-0.8938 -2.23374,-0.8939 -2.1949,1.0958 c -1.9234,0.9602 -2.21834,1.0919 -2.38441,1.065 -0.10424,-0.017 -0.2429,-0.087 -0.30815,-0.1555 -0.0652,-0.069 -1.25756,-1.7244 -2.64961,-3.6795 -1.39205,-1.955 -2.54876,-3.5748 -2.57047,-3.5994 -0.0217,-0.025 -1.29778,1.4232 -2.83574,3.2173 l -2.79628,3.262 0,2.4839 0,2.4839 10.11781,0 10.11781,0 -0.0143,-2.1929 z m -6.71351,-4.0415 c 1.14266,-0.5715 2.13906,-1.039 2.21422,-1.039 0.0752,0 1.0043,0.3471 2.06474,0.7713 1.06043,0.4243 2.04496,0.8177 2.18783,0.8742 l 0.25977,0.1029 0,-5.1125 0,-5.1125 -10.11719,0 -10.11719,0 0.002,4.5801 c 0.002,4.3353 0.007,4.5741 0.0957,4.4681 0.0516,-0.062 1.24631,-1.4564 2.65484,-3.0996 1.68066,-1.9608 2.61173,-3.0055 2.70869,-3.0393 0.0976,-0.034 0.21206,-0.031 0.33748,0.01 0.16861,0.054 0.49104,0.4833 2.89414,3.8485 1.48742,2.0829 2.71187,3.7871 2.72099,3.7871 0.009,0 0.95149,-0.4676 2.09415,-1.0391 z m 0.58065,-2.8499 c -0.34784,-0.082 -0.83589,-0.3732 -1.1033,-0.6591 -1.1974,-1.2801 -0.48149,-3.3389 1.2746,-3.6655 0.92389,-0.1718 1.90214,0.3559 2.32679,1.2551 0.49944,1.0576 0.051,2.3511 -1.00062,2.886 -0.44083,0.2242 -1.02118,0.2953 -1.49747,0.1835 z m 1.15271,-1.2128 c 0.56169,-0.3892 0.6572,-1.1751 0.20381,-1.677 -0.27597,-0.3054 -0.51349,-0.4016 -0.92674,-0.3753 -0.45245,0.029 -0.73469,0.2181 -0.93469,0.6269 -0.11556,0.2362 -0.13898,0.3487 -0.11801,0.5669 0.0361,0.3758 0.27551,0.7477 0.58914,0.9153 0.34621,0.185 0.87405,0.1597 1.18649,-0.057 z"
       id="path3916"
       inkscape:connector-curvature="0" />
  </g>
</svg>
