<?xml version="1.0" encoding="UTF-8" standalone="no"?>
<!-- Created with Inkscape (http://www.inkscape.org/) -->

<svg
   xmlns:dc="http://purl.org/dc/elements/1.1/"
   xmlns:cc="http://creativecommons.org/ns#"
   xmlns:rdf="http://www.w3.org/1999/02/22-rdf-syntax-ns#"
   xmlns:svg="http://www.w3.org/2000/svg"
   xmlns="http://www.w3.org/2000/svg"
   xmlns:sodipodi="http://sodipodi.sourceforge.net/DTD/sodipodi-0.dtd"
   xmlns:inkscape="http://www.inkscape.org/namespaces/inkscape"
   width="28"
   height="28"
   id="svg2"
   version="1.1"
   inkscape:version="0.48.4 r9939"
   sodipodi:docname="exitfullscreen.svg">
  <defs
     id="defs4" />
  <sodipodi:namedview
     id="base"
     pagecolor="#ffffff"
     bordercolor="#666666"
     borderopacity="1.0"
     inkscape:pageopacity="0.0"
     inkscape:pageshadow="2"
     inkscape:zoom="22.4"
     inkscape:cx="21.029868"
     inkscape:cy="14.17989"
     inkscape:document-units="px"
     inkscape:current-layer="g4441"
     showgrid="false"
     inkscape:window-width="1920"
     inkscape:window-height="1137"
     inkscape:window-x="-8"
     inkscape:window-y="-8"
     inkscape:window-maximized="1"
     inkscape:snap-center="true" />
  <metadata
     id="metadata7">
    <rdf:RDF>
      <cc:Work
         rdf:about="">
        <dc:format>image/svg+xml</dc:format>
        <dc:type
           rdf:resource="http://purl.org/dc/dcmitype/StillImage" />
        <dc:title />
      </cc:Work>
    </rdf:RDF>
  </metadata>
  <g
     inkscape:label="Layer 1"
     inkscape:groupmode="layer"
     id="layer1"
     transform="translate(0,-1024.3622)">
    <g
       id="g4441"
       transform="matrix(0.08748833,0,0,0.08742175,24.823021,929.59518)"
       style="fill:#000000">
      <path
         style="fill:#cccccf;fill-opacity:0.94117647;fill-rule:nonzero;stroke:none"
         d="m 7.5814867,17.007889 c -1.7021045,0.03184 -3.4255275,0.04736 -5.093471,0.428292 -0.5176266,0.116232 -0.8426358,0.765728 -0.5371094,1.223494 0.51565,0.694292 1.2102321,1.2759 1.7578125,1.951729 -1.0078189,1.37991 -2.1882132,2.643587 -3.19335937,4.029018 -0.36488795,0.520264 -0.005247,1.150331 0.30412946,1.601563 0.50159611,0.709235 1.24788111,1.336846 2.13727681,1.436942 0.5519559,-0.124595 0.9143099,-0.612582 1.3555609,-0.933186 1.0173438,-0.834089 1.9777252,-1.741186 3.0389703,-2.51966 0.6717911,0.578046 1.2434549,1.26234 1.9454929,1.801498 0.4968986,0.288932 1.1297142,-0.09613 1.2227552,-0.633808 0.294579,-1.286565 0.386126,-2.608496 0.389599,-3.925735 0.0056,-1.234171 0.05211,-2.474662 -0.06733,-3.704009 -0.0662,-0.487206 -0.595382,-0.715373 -1.0449216,-0.717076 -0.7362013,-0.05516 -1.47587,-0.04129 -2.2154017,-0.03906 z"
         id="path3784"
         inkscape:connector-curvature="0"
         transform="matrix(11.430096,0,0,11.438801,-283.72951,1084.0211)" />
      <path
         style="font-size:medium;font-style:normal;font-variant:normal;font-weight:normal;font-stretch:normal;text-indent:0;text-align:start;text-decoration:none;line-height:normal;letter-spacing:normal;word-spacing:normal;text-transform:none;direction:ltr;block-progression:tb;writing-mode:lr-tb;text-anchor:start;baseline-shift:baseline;color:#000000;fill:#000000;fill-opacity:1;fill-rule:nonzero;stroke:none;stroke-width:11.43444729;marker:none;visibility:visible;display:inline;overflow:visible;enable-background:accumulate;font-family:Sans;-inkscape-font-specification:Sans"
         d="m -185.53125,1274.75 c -16.00033,-0.1339 -39.29787,0.4247 -47.4375,1.3438 -6.43444,0.7266 -12.36997,1.5728 -17,2.375 -2.31501,0.401 -4.31468,0.7666 -5.9375,1.1562 -1.62282,0.3896 -2.37264,0.2315 -4.59375,1.6875 -2.97047,1.9466 -4.73521,4.8013 -5.65625,7.8125 -0.92104,3.0112 -1.07402,6.4261 0.59375,9.7188 0.59722,1.1788 0.73008,1.1669 1,1.5 0.26992,0.333 0.56336,0.6742 0.90625,1.0624 0.68578,0.7765 1.57537,1.7265 2.625,2.8438 2.09926,2.2347 4.85467,5.0838 7.8125,8.0625 3.12524,3.1475 5.60456,5.7578 7.28125,7.625 -0.99948,1.3114 -2.17068,2.8155 -3.8125,4.875 -3.85077,4.8305 -9.35782,11.5683 -16.09375,19.6875 -3.52035,4.2434 -6.9503,8.4451 -9.65625,11.8125 -2.70595,3.3674 -4.43168,5.5218 -5.46875,7.0625 -1.02748,1.5265 -2.06941,2.8058 -2.5625,5.125 -0.49309,2.3192 -0.0468,3.9537 0.28125,5.7188 1.42607,7.6708 6.45455,14.541 12.4375,20.0937 5.98295,5.5527 12.85391,10 20.5625,10 0.87127,0 2.64261,-0.1393 4.21875,-0.7813 1.57614,-0.6419 2.87565,-1.5049 4.5625,-2.7812 3.37371,-2.5526 8.49675,-6.9885 18.5625,-15.6875 8.17251,-7.0628 14.68833,-12.6027 19.21875,-16.3125 1.60539,-1.3146 2.61217,-2.1009 3.6875,-2.9375 1.91364,1.8144 4.50561,4.3354 7.28125,7.125 2.87435,2.8889 5.6794,5.5943 7.90625,7.6875 1.11342,1.0466 2.07312,1.9539 2.875,2.6562 0.80188,0.7024 0.70224,0.9358 2.53125,1.9063 6.43773,3.4162 13.9783,1.1533 17.90625,-4.8437 1.42159,-2.1708 1.29695,-2.9402 1.6875,-4.5626 0.39055,-1.6223 0.78363,-3.6008 1.1875,-5.9374 0.80775,-4.6734 1.65783,-10.7512 2.4375,-17.5313 0.88154,-7.6658 1.08113,-15.1108 1.09375,-36.5313 0.006,-13.0297 0.0218,-19.6806 -0.15625,-23.75 -0.17806,-4.0693 -0.94944,-6.6194 -1.65625,-8.1562 -1.16897,-2.5417 -3.28156,-5.3018 -6.1875,-6.7188 -2.90594,-1.4169 -5.85191,-1.7531 -9.6875,-2.0312 -2.87752,-0.2086 -7.41656,-0.3304 -12.75,-0.375 z m -17.5625,11.6562 c 12.43177,-0.2012 25.01001,-0.1982 29.46875,0.125 3.37068,0.2444 5.09381,0.7082 5.5,0.9063 0.40619,0.1981 0.23924,-0.1269 0.84375,1.1875 0.5675,1.234 0.47231,0.4165 0.625,3.9062 0.15269,3.4898 0.16265,10.2248 0.15625,23.25 -0.0126,21.347 -0.22097,28.1726 -1.03125,35.2188 -0.76004,6.6094 -1.6213,12.5144 -2.375,16.875 -0.37685,2.1803 -0.7352,3.989 -1.03125,5.2188 -0.11313,0.4699 -0.24794,0.8174 -0.375,1.125 -0.61506,0.566 -2.11317,0.9023 -2.5625,0.8124 -0.18654,-0.1301 -0.35344,-0.2192 -0.53125,-0.375 -0.63589,-0.5569 -1.54313,-1.3561 -2.59375,-2.3437 -2.10125,-1.9751 -4.80192,-4.6316 -7.59375,-7.4375 -2.86648,-2.8808 -5.55522,-5.5062 -7.59375,-7.4375 -1.01926,-0.9657 -1.86891,-1.7341 -2.5625,-2.3437 -0.34679,-0.3049 -0.65149,-0.5737 -1,-0.8438 -0.17425,-0.1351 -0.32337,-0.2597 -0.65625,-0.4688 -0.16644,-0.1045 -0.36334,-0.2309 -0.75,-0.4062 -0.38666,-0.1753 -0.84186,-0.5663 -2.53125,-0.5312 -2.04554,0.044 -2.29454,0.4762 -2.71875,0.6874 -0.42421,0.2113 -0.70162,0.403 -1,0.5938 -0.59677,0.3815 -1.1932,0.8107 -1.90625,1.3438 -1.42611,1.066 -3.28857,2.5242 -5.625,4.4374 -4.67287,3.8265 -11.22044,9.3987 -19.4375,16.5 -10.06028,8.6943 -15.31745,13.1891 -18,15.2188 -1.27741,0.9665 -1.83819,1.2291 -1.875,1.25 -2.38322,0 -8.15008,-2.6104 -12.8125,-6.9375 -4.66242,-4.3271 -8.25931,-10.1645 -8.9375,-13.8125 -0.32096,-1.7269 -0.20676,-1.8943 -0.34375,-1.25 -0.13699,0.6443 -0.16302,0.3708 0.84375,-1.125 0.0977,-0.1452 2.27934,-2.9733 4.9375,-6.2812 2.65816,-3.308 6.04774,-7.4574 9.53125,-11.6563 6.76671,-8.1563 12.28937,-14.9459 16.21875,-19.875 1.96469,-2.4646 3.54199,-4.4446 4.6875,-5.9687 0.57276,-0.7621 1.01859,-1.4053 1.40625,-1.9688 0.38766,-0.5635 0.60863,-0.6785 1.15625,-2.0312 0.90812,-2.2445 0.36697,-3.3746 0.15625,-4.0313 -0.21072,-0.6567 -0.39658,-0.9861 -0.5625,-1.2813 -0.33183,-0.5902 -0.62622,-0.9639 -0.9375,-1.375 -0.62256,-0.822 -1.36094,-1.7168 -2.3125,-2.7812 -1.90312,-2.1289 -4.57955,-4.9311 -7.875,-8.25 -2.8912,-2.9117 -5.59473,-5.6845 -7.59375,-7.8125 -0.99951,-1.064 -1.82027,-1.9657 -2.375,-2.5937 -0.12834,-0.1454 -0.18531,-0.2006 -0.28125,-0.3126 0.0204,-0.025 -0.0769,-0.4022 0.125,-1.0624 0.18975,-0.6204 0.55038,-1.0511 0.8125,-1.3126 0.3152,-0.1317 0.69937,-0.289 1.1875,-0.4062 1.23788,-0.2972 3.0283,-0.6571 5.1875,-1.0312 4.31839,-0.7483 10.10086,-1.5763 16.34375,-2.2813 3.88361,-0.4385 16.16198,-0.83 28.59375,-1.0313 z"
         id="path3781"
         inkscape:connector-curvature="0" />
      <path
         style="fill:#cccccf;fill-opacity:0.94117647;fill-rule:nonzero;stroke:none"
         d="m 20.555817,17.059507 c -0.934089,0.02755 -1.876556,-0.0045 -2.804175,0.102883 -0.550658,0.106121 -0.736087,0.719082 -0.723692,1.211223 -0.02329,1.633759 -0.05838,3.274076 0.06691,4.904981 0.100945,0.784266 0.144702,1.593338 0.380603,2.348156 0.180452,0.52438 0.909945,0.720118 1.309989,0.340402 0.631923,-0.529098 1.187703,-1.166043 1.824776,-1.676897 1.349945,0.993819 2.588295,2.135374 3.934152,3.134766 0.443488,0.334409 1.049641,0.210126 1.470424,-0.09905 0.784039,-0.434485 1.397182,-1.184484 1.621094,-2.054966 0.08833,-0.580968 -0.445785,-0.979807 -0.745579,-1.404516 -0.87418,-1.07758 -1.831999,-2.089389 -2.661229,-3.203464 0.555374,-0.66595 1.236443,-1.224666 1.749442,-1.923828 0.327306,-0.520119 -0.08578,-1.171785 -0.650112,-1.270927 -1.159274,-0.217914 -2.337976,-0.352179 -3.517005,-0.40293 -0.418401,-0.01263 -0.837078,-0.0096 -1.255595,-0.0058 z"
         id="path3782"
         inkscape:connector-curvature="0"
         transform="matrix(11.430096,0,0,11.438801,-283.72951,1084.0211)" />
      <path
         style="font-size:medium;font-style:normal;font-variant:normal;font-weight:normal;font-stretch:normal;text-indent:0;text-align:start;text-decoration:none;line-height:normal;letter-spacing:normal;word-spacing:normal;text-transform:none;direction:ltr;block-progression:tb;writing-mode:lr-tb;text-anchor:start;baseline-shift:baseline;color:#000000;fill:#000000;fill-opacity:1;fill-rule:nonzero;stroke:none;stroke-width:11.43444729;marker:none;visibility:visible;display:inline;overflow:visible;enable-background:accumulate;font-family:Sans;-inkscape-font-specification:Sans"
         d="m -35.46875,1275.2188 0,0.375 c -1.196993,-0.01 -1.545762,-0.058 -3.15625,-0.063 -4.751497,-0.014 -10.862893,0.023 -17.21875,0.063 -10.989983,0.069 -16.774316,0.1095 -20.46875,0.3124 -3.694434,0.203 -6.152423,0.8731 -7.78125,1.5938 -2.881498,1.2754 -5.77126,4.1528 -7.09375,7.0312 -0.701875,1.5308 -1.505571,4.0942 -1.6875,8.1563 -0.181929,4.0621 -0.163151,10.6923 -0.15625,23.8125 0.01081,21.4209 0.212338,28.8663 1.09375,36.5312 0.779607,6.7801 1.629769,12.858 2.4375,17.5313 0.403866,2.3367 0.796948,4.3151 1.1875,5.9375 0.390552,1.6224 0.26589,2.423 1.6875,4.5938 1.945918,2.9702 4.802398,4.7353 7.8125,5.6562 3.010102,0.9209 6.425661,1.0755 9.71875,-0.5938 1.185925,-0.601 1.166455,-0.7605 1.5,-1.0312 0.333545,-0.2707 0.673075,-0.5618 1.0625,-0.9062 0.77885,-0.6889 1.721681,-1.5698 2.84375,-2.625 2.244139,-2.1105 5.131528,-4.8689 8.125,-7.8438 4.244084,-4.2178 6.073159,-5.9607 7.46875,-7.2188 1.363235,1.0134 2.502898,1.8412 5.4375,4.1876 4.249551,3.3977 9.846346,7.9599 16.25,13.2812 11.656813,9.6864 17.3878637,14.4953 21.375,17.2188 1.9935681,1.3617 3.6984197,2.3448 5.75,2.8124 2.0515803,0.4677 3.898686,0.1709 4.9375,0 8.064353,-1.3265 16.197634,-6.7773 21.5,-13.3437 5.376268,-6.658 9.15625,-12.9223 9.15625,-19.75 -0.0014,-1.1499 -0.279503,-3.0082 -0.96875,-4.5625 -0.689247,-1.5543 -1.599734,-2.9133 -2.9375,-4.6875 -2.675532,-3.5484 -7.202625,-8.8269 -15.625,-18.5625 -7.1434871,-8.2574 -12.6017057,-14.6744 -16.21875,-19.0938 -1.23535114,-1.5093 -1.9288816,-2.4517 -2.71875,-3.4687 1.81642973,-1.9155 4.335982,-4.5039 7.125,-7.2813 2.8877616,-2.8755 5.595166,-5.6785 7.6875,-7.9062 1.046167,-1.1139 1.922974,-2.0729 2.625,-2.875 0.702026,-0.8021 0.936955,-0.7038 1.90625,-2.5312 l 0,-0.031 c 3.414895,-6.4409 1.145393,-13.9804 -4.84375,-17.9063 -1.454478,-0.9534 -2.164539,-1.0611 -3.15625,-1.3437 -0.9917115,-0.2826 -2.1039501,-0.5237 -3.375,-0.7813 -2.5420999,-0.5151 -5.72806018,-1.049 -9.40625,-1.5624 -7.35638,-1.027 -16.613413,-1.9879 -25.71875,-2.6563 l -6.15625,-0.4687 z m -3.1875,11.75 c 4.704358,0.014 8.600125,0.101 8.5,0.094 8.844775,0.6492 17.917764,1.6407 24.96875,2.625 3.5254932,0.4922 6.548079,0.9976 8.71875,1.4375 1.0853355,0.2199 1.9587073,0.4083 2.5,0.5625 0.044261,0.013 0.052391,0.017 0.09375,0.031 0.676454,0.5696 1.0477038,2.226 0.9375,2.7187 -0.1300629,0.1866 -0.2193073,0.3534 -0.375,0.5313 -0.5567925,0.6362 -1.3878271,1.5114 -2.375,2.5624 -1.9743458,2.1022 -4.60147472,4.8322 -7.40625,7.625 -2.8791963,2.8672 -5.5060209,5.5555 -7.4375,7.5938 -0.96574,1.0192 -1.765816,1.8705 -2.375,2.5625 -0.304592,0.346 -0.544077,0.6238 -0.8125,0.9687 -0.134211,0.1725 -0.262136,0.3614 -0.46875,0.6876 -0.103307,0.163 -0.23216,0.3418 -0.40625,0.7187 -0.172526,0.3735 -0.531272,0.8124 -0.53125,2.4375 0,0.016 -5.4e-5,0.016 0,0.031 0.0068,1.9126 0.416235,2.2794 0.625,2.7188 0.21044,0.4429 0.405122,0.7292 0.59375,1.0312 0.377257,0.6041 0.79553,1.1777 1.3125,1.875 1.03394,1.3948 2.44167,3.2143 4.3125,5.5 3.741661,4.5716 9.22591274,11.0439 16.40625,19.3438 8.408278,9.7193 12.971185,15.0396 15.15625,17.9375 1.066674,1.4147 1.496169,2.1649 1.59375,2.375 0,1.1441 -2.152512,7.0625 -6.59375,12.5625 -2.946064,3.6484 -11.627888,8.7827 -14.46875,9.25 -0.9953104,0.1637 -0.6887362,0.089 -0.53125,0.125 0.1574862,0.036 -0.3862241,-0.098 -1.84375,-1.0938 -2.9150518,-1.9911 -8.8756932,-6.9083 -20.53125,-16.5937 -6.444332,-5.3551 -12.10257,-9.9402 -16.4375,-13.4063 -4.33493,-3.466 -6.939211,-5.5639 -8.9375,-6.8124 -0.722495,-0.4514 -3.360605,-1.4224 -5.375,-0.9376 -2.014395,0.4849 -2.921506,1.3328 -3.96875,2.1876 -2.094489,1.7094 -4.696162,4.3215 -9.8125,9.4062 -2.926822,2.9086 -5.73705,5.6456 -7.875,7.6562 -1.068975,1.0054 -1.994002,1.817 -2.625,2.375 -0.138894,0.1229 -0.203653,0.1565 -0.3125,0.25 -0.02994,-0.019 -0.376078,0.1067 -1.03125,-0.094 -0.619879,-0.1896 -1.052259,-0.5519 -1.3125,-0.8125 -0.127738,-0.3067 -0.286512,-0.6901 -0.40625,-1.1875 -0.296043,-1.2298 -0.654406,-3.0384 -1.03125,-5.2187 -0.753688,-4.3607 -1.583771,-10.2656 -2.34375,-16.875 -0.810386,-7.0473 -1.020478,-13.8723 -1.03125,-35.2188 -0.0069,-13.1164 0.0011,-19.8488 0.15625,-23.3125 0.155128,-3.4637 0.01757,-2.5814 0.625,-3.9063 0.88104,-1.9175 -0.552246,-0.5045 1.34375,-1.3437 1.129475,-0.4998 0.684018,-0.4548 3.78125,-0.625 3.097232,-0.1702 8.926561,-0.2435 19.90625,-0.3125 6.323351,-0.039 12.420642,-0.045 17.125,-0.031 z"
         id="path3779"
         inkscape:connector-curvature="0" />
      <path
         style="fill:#cccccf;fill-opacity:0.94117647;fill-rule:nonzero;stroke:none"
         d="m 24.728529,0.41051163 c -1.402312,1.06650367 -2.6597,2.31255567 -4.06808,3.36216517 -0.665308,-0.55696 -1.227199,-1.2322891 -1.90323,-1.7732405 -0.402977,-0.3003016 -1.062176,-0.028586 -1.239906,0.453486 -0.186664,0.6845341 -0.244189,1.4025286 -0.341797,2.1051898 -0.124133,1.7918727 -0.131022,3.5938585 -0.04743,5.3878348 -0.02263,0.4501371 0.280448,0.8740721 0.731026,0.9709821 0.823585,0.113259 1.664169,0.04649 2.49442,0.06976 1.353444,0.0054 2.711258,-0.0074 4.049944,-0.2274 0.515864,-0.108576 1.122901,-0.05641 1.541574,-0.425502 C 26.327046,9.9605473 26.155833,9.3565054 25.806933,9.0265831 25.325074,8.4609045 24.740851,7.9728442 24.296051,7.3873531 24.720421,6.7630956 25.237126,6.195104 25.706848,5.5977737 26.319555,4.8067809 27.033456,4.0866107 27.55498,3.2299871 27.821596,2.6744183 27.422614,2.0934418 27.10937,1.6487393 26.578122,1.0051401 25.8738,0.36293122 24.997781,0.31983082 c -0.08975,0.0302269 -0.179501,0.0604539 -0.269252,0.0906808 z"
         id="path3780"
         inkscape:connector-curvature="0"
         transform="matrix(11.430096,0,0,11.438801,-283.72951,1084.0211)" />
      <path
         style="font-size:medium;font-style:normal;font-variant:normal;font-weight:normal;font-stretch:normal;text-indent:0;text-align:start;text-decoration:none;line-height:normal;letter-spacing:normal;word-spacing:normal;text-transform:none;direction:ltr;block-progression:tb;writing-mode:lr-tb;text-anchor:start;baseline-shift:baseline;color:#000000;fill:#000000;fill-opacity:1;fill-rule:nonzero;stroke:none;stroke-width:11.43444729;marker:none;visibility:visible;display:inline;overflow:visible;enable-background:accumulate;font-family:Sans;-inkscape-font-specification:Sans"
         d="m 3.21875,1084.0312 c -1.0889213,-0.014 -2.94561755,0.1778 -4.5625,0.8438 -1.6168824,0.666 -3.0037749,1.577 -4.78125,2.9062 -3.5549502,2.6586 -8.786956,7.1781 -18.6875,15.75 -8.253931,7.1464 -14.676208,12.6003 -19.09375,16.2188 -1.523776,1.2482 -2.478608,1.9567 -3.5,2.75 -1.914649,-1.8172 -4.473847,-4.3661 -7.25,-7.1562 -2.874358,-2.8889 -5.67936,-5.5943 -7.90625,-7.6876 -1.113445,-1.0466 -2.073089,-1.9226 -2.875,-2.625 -0.801911,-0.7023 -0.701583,-0.9355 -2.53125,-1.9062 -6.437681,-3.4161 -13.97824,-1.1843 -17.90625,4.8125 -1.420778,2.1696 -1.297115,2.9724 -1.6875,4.5937 -0.390385,1.6214 -0.78363,3.6016 -1.1875,5.9376 -0.80774,4.6718 -1.656099,10.7451 -2.4375,17.5312 -0.884115,7.6774 -1.09375,15.0262 -1.09375,36.5 -0.0033,13.0993 -0.0255,19.7469 0.15625,23.8125 0.181752,4.0656 0.951299,6.6475 1.65625,8.1875 1.317853,2.879 4.185168,5.7079 7.0625,7.0312 l 0,0.031 c 1.529921,0.7018 4.09537,1.4741 8.15625,1.6563 4.06088,0.1821 10.697569,0.1945 23.8125,0.1874 21.412286,-0.011 28.837869,-0.2432 36.5,-1.125 6.7774245,-0.78 12.859644,-1.6293 17.53125,-2.4374 2.335803,-0.4041 4.3155805,-0.7968 5.9375,-1.1876 1.621919,-0.3907 2.422862,-0.2646 4.59375,-1.6874 2.970785,-1.947 4.736206,-4.7708 5.65625,-7.7813 0.920044,-3.0105 1.073785,-6.4261 -0.59375,-9.7187 -0.600278,-1.1849 -0.760668,-1.1977 -1.03125,-1.5313 -0.270582,-0.3336 -0.561977,-0.6729 -0.90625,-1.0625 -0.688547,-0.7791 -1.570176,-1.7212 -2.625,-2.8438 -2.109647,-2.245 -4.8700375,-5.1303 -7.84375,-8.125 -4.2234345,-4.2532 -5.96362619,-6.0744 -7.21875,-7.4687 1.01296773,-1.3639 1.84204101,-2.5017 4.1875,-5.4375 3.3964224,-4.2513 7.96217,-9.8438 13.28125,-16.25 9.682564,-11.6616 14.496561,-17.4177 17.21875,-21.4062 1.361095,-1.9943 2.345353,-3.6988 2.8125,-5.75 0.467147,-2.0513 0.139592,-3.8983 -0.03125,-4.9376 -2.050558,-12.4761 -12.867432,-23.9123 -25.53125,-29.0624 -2.3845487,-0.9697 -4.547119,-1.5257 -7.28125,-1.5626 z m -0.1875,11.4063 c 0.1202562,-0.05 -0.4147077,0.026 0.03125,0.031 -0.066052,-9e-4 2.4479485,0.4434 3.125,0.7187 8.678051,3.5292 17.551206,14.1595 18.5625,20.3125 0.163703,0.9958 0.120636,0.7189 0.15625,0.5625 0.03561,-0.1564 -0.09852,0.3855 -1.09375,1.8437 -1.99046,2.9165 -6.912228,8.871 -16.59375,20.5313 -5.3528571,6.4469 -9.9416128,12.0695 -13.40625,16.4063 -3.4646372,4.3367 -5.56476,6.97 -6.8125,8.9687 -0.451071,0.7226 -1.421716,3.3303 -0.9375,5.3437 0.484216,2.0135 1.333191,2.9524 2.1875,4 1.708619,2.0953 4.3236402,4.6941 9.40625,9.8126 2.90742989,2.9278 5.6464192,5.7361 7.65625,7.875 1.0049154,1.0694 1.8170931,1.9937 2.375,2.625 0.1290779,0.146 0.1847133,0.1999 0.28125,0.3124 -0.020707,0.025 0.076916,0.4019 -0.125,1.0626 -0.1891256,0.6188 -0.5521844,1.0201 -0.8125,1.2812 -0.306435,0.1278 -0.6903873,0.2865 -1.1875,0.4062 -1.2290701,0.2962 -3.0081369,0.6543 -5.1875,1.0313 -4.3587263,0.754 -10.2683629,1.6146 -16.875,2.375 -7.044049,0.8106 -13.881046,1.0206 -35.21875,1.0313 -13.110968,0.01 -19.850571,-0 -23.3125,-0.1563 -3.461929,-0.1552 -2.550496,-0.049 -3.875,-0.6563 -1.87883,-0.864 -0.577425,0.4415 -1.4375,-1.4374 -0.600102,-1.311 -0.469791,-0.4345 -0.625,-3.9063 -0.155209,-3.4718 -0.190825,-10.2169 -0.1875,-23.3125 0,-21.3974 0.217039,-28.1484 1.03125,-35.2188 0.761823,-6.616 1.59004,-12.5156 2.34375,-16.875 0.376855,-2.1796 0.735396,-3.99 1.03125,-5.2187 0.110501,-0.4589 0.279995,-0.787 0.40625,-1.0937 0.613878,-0.5671 2.112777,-0.9338 2.5625,-0.8438 0.186563,0.1301 0.353443,0.2193 0.53125,0.375 0.635877,0.5569 1.511864,1.3874 2.5625,2.375 2.101271,1.9751 4.833173,4.6316 7.625,7.4375 2.865944,2.8804 5.556311,5.474 7.59375,7.4063 1.01872,0.9661 1.870812,1.7655 2.5625,2.375 0.345844,0.3047 0.623979,0.5439 0.96875,0.8124 0.172385,0.1343 0.361464,0.2933 0.6875,0.5 0.163018,0.1034 0.341849,0.2008 0.71875,0.375 0.37353,0.1728 0.811501,0.5622 2.4375,0.5626 0.01551,0 0.01595,0 0.03125,0 1.913959,-0.01 2.279276,-0.4473 2.71875,-0.6563 0.442988,-0.2106 0.729257,-0.3738 1.03125,-0.5625 0.603987,-0.3775 1.177843,-0.7953 1.875,-1.3125 1.394314,-1.0344 3.21511,-2.4721 5.5,-4.3437 4.569781,-3.7433 11.015988,-9.2231 19.3125,-16.4063 9.8871813,-8.5604 15.2220052,-13.1257 18.0625,-15.25 1.4202474,-1.0621 2.1922438,-1.4505 2.3125,-1.5 z"
         id="path3777"
         inkscape:connector-curvature="0" />
      <path
         style="fill:#cccccf;fill-opacity:0.94117647;fill-rule:nonzero;stroke:none"
         d="M 2.7823795,0.34075716 C 2.1003633,0.49617448 1.4666917,0.92838657 1.024567,1.4735697 0.70359739,1.9217896 0.34903724,2.4217314 0.3293763,2.9873293 0.42435943,3.4686686 0.86625869,3.7758176 1.1368872,4.1623175 2.0110852,5.221552 2.9449695,6.2254804 3.7701027,7.3245741 3.2006356,7.9995625 2.5323868,8.5807996 1.9871786,9.2735139 1.6826574,9.7696786 2.071787,10.418771 2.6149688,10.512353 c 0.8766535,0.177718 1.7692223,0.296765 2.6604165,0.368202 1.6244706,0.01817 3.2508706,0.03616 4.8744607,-0.01943 0.499061,-0.05742 0.854906,-0.549857 0.806963,-1.0379013 0.03568,-1.5952634 0.06874,-3.1954603 -0.02251,-4.7890313 C 10.834207,4.1493079 10.768943,3.2486847 10.550237,2.3859581 10.385405,1.8524217 9.677955,1.6611405 9.2514085,2.0050987 8.5839746,2.5150791 8.0489465,3.1827405 7.3903594,3.6987371 6.0018969,2.6854056 4.733113,1.5009873 3.3487858,0.48863663 3.1812445,0.38178439 2.9821859,0.32085801 2.7823795,0.34075716 z"
         id="path3778"
         inkscape:connector-curvature="0"
         transform="matrix(11.430096,0,0,11.438801,-283.72951,1084.0211)" />
      <path
         style="font-size:medium;font-style:normal;font-variant:normal;font-weight:normal;font-stretch:normal;text-indent:0;text-align:start;text-decoration:none;line-height:normal;letter-spacing:normal;word-spacing:normal;text-transform:none;direction:ltr;block-progression:tb;writing-mode:lr-tb;text-anchor:start;baseline-shift:baseline;color:#000000;fill:#000000;fill-opacity:1;fill-rule:nonzero;stroke:none;stroke-width:11.43444729;marker:none;visibility:visible;display:inline;overflow:visible;enable-background:accumulate;font-family:Sans;-inkscape-font-specification:Sans"
         d="m -249.8125,1084.0312 c -0.86145,-0.011 -1.67634,0.074 -2.4375,0.1563 -6.9486,0.7545 -13.72568,4.8581 -19.125,10.125 -6.98349,6.8123 -12.34375,14.7193 -12.34375,23.125 0,0.8714 0.10854,2.6427 0.75,4.2187 0.64146,1.5761 1.53676,2.8751 2.8125,4.5626 2.55148,3.3749 6.99205,8.4927 15.6875,18.5624 7.05998,8.176 12.57288,14.6865 16.28125,19.2188 1.32092,1.6144 2.0995,2.6404 2.9375,3.7188 -1.81366,1.9144 -4.33649,4.5044 -7.125,7.2812 -2.88766,2.8755 -5.59516,5.6472 -7.6875,7.875 -1.04617,1.1139 -1.95419,2.104 -2.65625,2.9062 -0.70206,0.8023 -0.90528,0.7019 -1.875,2.5313 -3.4137,6.4382 -1.18344,13.9759 4.8125,17.9063 2.17102,1.423 2.94059,1.2967 4.5625,1.6874 1.62191,0.3908 3.6017,0.7835 5.9375,1.1876 4.67161,0.8081 10.7538,1.6575 17.53125,2.4374 7.66329,0.8819 15.08814,1.0808 36.5,1.0938 13.11462,0.01 19.7518,0.025 23.8125,-0.1562 4.0607,-0.1816 6.65525,-0.9829 8.1875,-1.6876 2.87726,-1.3232 5.71332,-4.1833 7.03125,-7.0624 0.70308,-1.5367 1.47352,-4.0894 1.65625,-8.1563 0.18273,-4.0669 0.1938,-10.7127 0.1875,-23.8125 -0.005,-21.4725 -0.20933,-28.8512 -1.09375,-36.5312 -0.78134,-6.7861 -1.62975,-12.8595 -2.4375,-17.5313 -0.40387,-2.3359 -0.79709,-4.3161 -1.1875,-5.9375 -0.39041,-1.6214 -0.26647,-2.3928 -1.6875,-4.5625 -1.9458,-2.9712 -4.80213,-4.7667 -7.8125,-5.6875 -3.01037,-0.9208 -6.42605,-1.0442 -9.71875,0.625 -1.18011,0.598 -1.16696,0.7299 -1.5,1 -0.33304,0.2701 -0.67441,0.5632 -1.0625,0.9062 -0.77619,0.6862 -1.72686,1.575 -2.84375,2.625 -2.23378,2.1002 -5.08503,4.8536 -8.0625,7.8126 -3.13938,3.1197 -5.72792,5.6038 -7.59375,7.2812 -1.31021,-0.9993 -2.81658,-2.1704 -4.875,-3.8125 -4.82788,-3.8514 -11.56535,-9.3511 -19.6875,-16.0937 -4.23706,-3.5174 -8.40121,-6.9377 -11.71875,-9.625 -3.31754,-2.6874 -5.46551,-4.409 -6.84375,-5.375 -1.37363,-0.9631 -2.66989,-1.8947 -4.59375,-2.4376 -0.96193,-0.2714 -1.8573,-0.3643 -2.71875,-0.375 z m -0.375,11.375 c -0.30547,-0.086 -0.0371,-0.033 1.125,0.7813 0.17866,0.1252 2.91604,2.2562 6.1875,4.9063 3.27146,2.65 7.42176,6.0419 11.625,9.5312 8.15913,6.7734 14.91737,12.32 19.84375,16.25 2.46319,1.965 4.47729,3.511 6,4.6562 0.76136,0.5727 1.40585,1.05 1.96875,1.4376 0.5629,0.3875 0.67794,0.6079 2.03125,1.1562 2.24532,0.9102 3.37394,0.336 4.03125,0.125 0.65731,-0.211 0.98602,-0.3964 1.28125,-0.5625 0.59047,-0.3322 0.96404,-0.5948 1.375,-0.9063 0.82193,-0.6229 1.68596,-1.3917 2.75,-2.3437 2.12809,-1.904 4.93252,-4.5783 8.25,-7.875 2.91045,-2.8924 5.71668,-5.5939 7.84375,-7.5937 1.06354,-1 1.96601,-1.8202 2.59375,-2.375 0.13818,-0.1222 0.20426,-0.1571 0.3125,-0.25 0.0301,0.019 0.37631,-0.1066 1.03125,0.094 0.62456,0.191 1.02398,0.5836 1.28125,0.8437 0.12752,0.307 0.32042,0.6701 0.4375,1.1563 0.29586,1.2287 0.6544,3.0391 1.03125,5.2187 0.75371,4.3593 1.582,10.259 2.34375,16.875 0.81392,7.0678 1.02586,13.8201 1.03125,35.2188 0.006,13.0951 -3.2e-4,19.842 -0.15625,23.3125 -0.15593,3.4705 -0.0549,2.5919 -0.65625,3.9063 -0.86001,1.8788 0.47265,0.5733 -1.40625,1.4374 -1.32218,0.6081 -0.44421,0.4703 -3.90625,0.625 -3.46204,0.1548 -10.16996,0.1627 -23.28125,0.1563 -21.33838,-0.013 -28.17586,-0.2207 -35.21875,-1.0313 -6.60661,-0.7603 -12.51631,-1.5897 -16.875,-2.3437 -2.17935,-0.377 -3.98971,-0.7351 -5.21875,-1.0313 -0.48217,-0.1161 -0.84898,-0.2786 -1.15625,-0.4062 -0.54663,-0.626 -0.85838,-2.061 -0.78125,-2.5312 0.13003,-0.1866 0.21933,-0.3534 0.375,-0.5313 0.55671,-0.6361 1.35659,-1.5427 2.34375,-2.5937 1.97431,-2.1021 4.63275,-4.8321 7.4375,-7.625 2.87983,-2.8678 5.50694,-5.5544 7.4375,-7.5938 0.96528,-1.0197 1.73438,-1.8687 2.34375,-2.5625 0.30469,-0.3469 0.57382,-0.6203 0.84375,-0.9687 0.13497,-0.1743 0.25996,-0.3549 0.46875,-0.6876 0.1044,-0.1663 0.23119,-0.3636 0.40625,-0.75 0.17506,-0.3863 0.56584,-0.8431 0.53125,-2.5312 -0.0441,-2.0433 -0.47644,-2.2946 -0.6875,-2.7188 -0.21106,-0.4241 -0.4031,-0.7015 -0.59375,-1 -0.38131,-0.5969 -0.81095,-1.1929 -1.34375,-1.9062 -1.06559,-1.4266 -2.52503,-3.2876 -4.4375,-5.625 -3.82494,-4.6747 -9.40155,-11.217 -16.5,-19.4375 -8.69072,-10.0643 -13.15854,-15.3162 -15.1875,-18 -0.94805,-1.254 -1.21744,-1.7842 -1.25,-1.8437 0.001,-0.034 0,0.022 0,-0.031 0,-1.6371 3.54209,-9.7354 8.875,-14.9375 3.55634,-3.4691 10.43257,-6.7544 12.40625,-6.9688 1.19382,-0.1296 1.11797,-0.039 0.8125,-0.125 z"
         id="path3769"
         inkscape:connector-curvature="0" />
    </g>
  </g>
</svg>
