<?xml version="1.0" encoding="UTF-8" standalone="no"?>
<!-- Created with Inkscape (http://www.inkscape.org/) -->

<svg
   xmlns:dc="http://purl.org/dc/elements/1.1/"
   xmlns:cc="http://creativecommons.org/ns#"
   xmlns:rdf="http://www.w3.org/1999/02/22-rdf-syntax-ns#"
   xmlns:svg="http://www.w3.org/2000/svg"
   xmlns="http://www.w3.org/2000/svg"
   xmlns:sodipodi="http://sodipodi.sourceforge.net/DTD/sodipodi-0.dtd"
   xmlns:inkscape="http://www.inkscape.org/namespaces/inkscape"
   width="28"
   height="28"
   id="svg2"
   version="1.1"
   inkscape:version="0.48.4 r9939"
   sodipodi:docname="fullscreen.svg">
  <defs
     id="defs4" />
  <sodipodi:namedview
     id="base"
     pagecolor="#ffffff"
     bordercolor="#666666"
     borderopacity="1.0"
     inkscape:pageopacity="0.0"
     inkscape:pageshadow="2"
     inkscape:zoom="22.4"
     inkscape:cx="8.2906397"
     inkscape:cy="14.1725"
     inkscape:document-units="px"
     inkscape:current-layer="g4441"
     showgrid="false"
     inkscape:window-width="1920"
     inkscape:window-height="1137"
     inkscape:window-x="-8"
     inkscape:window-y="-8"
     inkscape:window-maximized="1"
     inkscape:snap-center="true" />
  <metadata
     id="metadata7">
    <rdf:RDF>
      <cc:Work
         rdf:about="">
        <dc:format>image/svg+xml</dc:format>
        <dc:type
           rdf:resource="http://purl.org/dc/dcmitype/StillImage" />
        <dc:title />
      </cc:Work>
    </rdf:RDF>
  </metadata>
  <g
     inkscape:label="Layer 1"
     inkscape:groupmode="layer"
     id="layer1"
     transform="translate(0,-1024.3622)">
    <g
       id="g4441"
       transform="matrix(0.08748833,0,0,0.08742175,24.823021,929.59518)"
       style="fill:#000000">
      <path
         style="fill:#cccccc;fill-opacity:1;fill-rule:nonzero;stroke:none"
         d="M 3.0350471,0.32722084 C 2.3531306,0.35727459 1.6549706,0.28565133 0.98398196,0.42148869 0.50803212,0.58554828 0.30706514,1.1230861 0.34928273,1.5925377 0.32561528,3.1913975 0.29066577,4.7959705 0.39553813,6.391674 0.49979208,7.2116052 0.55738536,8.0458856 0.76802697,8.8470311 0.93567855,9.3985266 1.6941143,9.6225704 2.1156832,9.2181249 2.7428445,8.6817878 3.2888042,8.0542543 3.9292993,7.5342521 5.2913003,8.5612427 6.5582149,9.711378 7.9273685,10.728255 8.3366435,11.057762 8.891718,10.863486 9.2850471,10.602053 10.061254,10.187432 10.649147,9.4481539 10.927067,8.6196316 11.096628,7.9983789 10.531673,7.5387749 10.197023,7.0977365 9.3164935,6.0338387 8.3741578,5.0104079 7.5411855,3.9139954 8.1028395,3.2291675 8.8238145,2.6742654 9.3241096,1.9371539 9.6169288,1.4186102 9.1950703,0.74450369 8.6195895,0.70249985 6.7806944,0.34288218 4.9031956,0.30646682 3.0350471,0.32722084 z"
         id="path2998"
         inkscape:connector-curvature="0"
         transform="matrix(11.430096,0,0,11.438801,-283.72951,1084.0211)" />
      <path
         style="fill:#cccccc;fill-opacity:1;fill-rule:nonzero;stroke:none"
         d="m 23.913953,0.32582575 c -1.595135,0.003724 -3.206417,0.0734767 -4.762835,0.44363839 -0.520928,0.14981388 -0.731165,0.83336076 -0.40597,1.26116076 0.504108,0.6823697 1.19061,1.234837 1.699218,1.8931361 -0.400692,0.6072831 -0.902703,1.1455664 -1.348829,1.7192902 -0.629088,0.8032027 -1.331156,1.5551835 -1.898939,2.4031987 -0.271061,0.587529 0.124595,1.2440616 0.506418,1.6908482 0.512572,0.5485179 1.106596,1.1745779 1.904297,1.2179129 0.597991,-0.03499 0.990424,-0.56815 1.443917,-0.892857 1.014242,-0.8404242 1.989599,-1.7323198 3.037109,-2.5265068 0.666619,0.5596375 1.220794,1.2470946 1.909422,1.7676736 0.54891,0.3522014 1.267587,-0.1475616 1.31184,-0.7506535 0.11593,-0.7600357 0.27373,-1.5195188 0.32364,-2.286546 -0.0061,-1.6425023 0.06661,-3.2884341 -0.0014,-4.9288558 0.006,-0.51635358 -0.414098,-1.0069277 -0.949968,-0.97795216 -0.921595,-0.0419942 -1.84548,-0.0346508 -2.767945,-0.0334876 z"
         id="path3000"
         inkscape:connector-curvature="0"
         transform="matrix(11.430096,0,0,11.438801,-283.72951,1084.0211)" />
      <path
         style="fill:#cccccc;fill-opacity:1;fill-rule:nonzero;stroke:none"
         d="m 19.354802,17.104565 c -0.853196,0.294355 -1.637331,0.876394 -2.042411,1.695033 -0.262539,0.43106 -0.409455,1.033624 -0.03069,1.446708 1.028227,1.306892 2.175365,2.512326 3.183594,3.833705 -0.557668,0.661228 -1.25116,1.210592 -1.745257,1.923828 -0.31371,0.464485 -0.0098,1.152218 0.525949,1.24721 1.21064,0.254234 2.459607,0.369027 3.694165,0.405526 1.313668,0.0034 2.632137,0.03456 3.942553,-0.05954 0.510211,-0.09551 0.817457,-0.643307 0.764509,-1.143973 0.01136,-1.690904 0.02488,-3.384858 -0.05428,-5.073677 -0.08999,-0.754808 -0.173158,-1.518412 -0.369826,-2.253332 C 27.064791,18.62252 26.393122,18.409657 25.96892,18.732634 25.282177,19.236973 24.744133,19.9331 24.074389,20.447199 22.90923,19.590945 21.819358,18.622022 20.681658,17.726722 20.282039,17.45371 19.895675,16.93713 19.354802,17.104565 z"
         id="path3002"
         inkscape:connector-curvature="0"
         transform="matrix(11.430096,0,0,11.438801,-283.72951,1084.0211)" />
      <path
         style="fill:#cccccc;fill-opacity:1;fill-rule:nonzero;stroke:none"
         d="M 8.4745002,17.018069 C 7.905131,16.983288 7.5181797,17.49446 7.0947332,17.793948 6.0412127,18.690102 5.0084594,19.611447 3.9153484,20.456964 3.2677234,19.894854 2.7081802,19.239074 2.0208172,18.725658 1.5553704,18.402325 0.87283452,18.693533 0.74570554,19.239051 0.36314961,20.926012 0.31552126,22.669355 0.32638724,24.3953 c 0.0237633,0.837885 -0.0572633,1.687974 0.085892,2.516742 0.10141063,0.528316 0.67052459,0.738132 1.15231719,0.721405 1.6212988,0.01481 3.2467705,0.04109 4.8657681,-0.05664 0.8220772,-0.09611 1.6669442,-0.131421 2.4598723,-0.374586 0.5232018,-0.181749 0.748854,-0.917757 0.343192,-1.322545 C 8.6928515,25.252075 8.0582895,24.707777 7.5481609,24.05769 8.5827055,22.671918 9.7590658,21.368029 10.803075,19.981636 11.091089,19.518138 10.772419,18.977339 10.532257,18.562433 10.047809,17.847177 9.3331381,17.207117 8.4745002,17.018069 z"
         id="path3004"
         inkscape:connector-curvature="0"
         transform="matrix(11.430096,0,0,11.438801,-283.72951,1084.0211)" />
      <path
         style="font-size:medium;font-style:normal;font-variant:normal;font-weight:normal;font-stretch:normal;text-indent:0;text-align:start;text-decoration:none;line-height:normal;letter-spacing:normal;word-spacing:normal;text-transform:none;direction:ltr;block-progression:tb;writing-mode:lr-tb;text-anchor:start;baseline-shift:baseline;color:#000000;fill:#000000;fill-opacity:1;fill-rule:nonzero;stroke:none;stroke-width:11.43444729;marker:none;visibility:visible;display:inline;overflow:visible;enable-background:accumulate;font-family:Sans;-inkscape-font-specification:Sans"
         d="m -242.875,1084.0312 c -13.11463,-0.01 -19.7518,-0.025 -23.8125,0.1563 -4.0607,0.1815 -6.62394,0.9828 -8.15625,1.6875 -2.87734,1.3234 -5.71338,4.1835 -7.03125,7.0625 -0.70331,1.5368 -1.50481,4.0893 -1.6875,8.1563 -0.18269,4.0669 -0.16255,10.7127 -0.15625,23.8124 0.005,21.4727 0.20933,28.8513 1.09375,36.5313 0.78137,6.7861 1.62975,12.8594 2.4375,17.5313 0.40387,2.3359 0.7971,4.3161 1.1875,5.9374 0.3904,1.6214 0.26656,2.3929 1.6875,4.5626 1.94581,2.9711 4.77088,4.7667 7.78125,5.6874 3.01037,0.9208 6.42607,1.0442 9.71875,-0.625 1.18004,-0.598 1.16698,-0.7298 1.5,-1 0.33302,-0.2701 0.67441,-0.5631 1.0625,-0.9062 0.77618,-0.6861 1.75811,-1.5749 2.875,-2.625 2.23379,-2.1002 5.08501,-4.8535 8.0625,-7.8125 3.13938,-3.1197 5.72792,-5.6038 7.59375,-7.2813 1.31022,0.9994 2.81658,2.1704 4.875,3.8126 4.82789,3.8514 11.56536,9.351 19.6875,16.0937 4.23706,3.5173 8.40121,6.9377 11.71875,9.625 3.31754,2.6873 5.43423,4.4089 6.8125,5.375 1.37364,0.9631 2.66993,1.8946 4.59375,2.4375 1.92382,0.5429 3.66522,0.384 5.1875,0.2188 6.94831,-0.7548 13.72561,-4.8582 19.125,-10.125 6.98351,-6.8123 12.34375,-14.7194 12.34375,-23.125 0,-0.8715 -0.13979,-2.6428 -0.78125,-4.2188 -0.64146,-1.576 -1.50551,-2.875 -2.78125,-4.5625 -2.55149,-3.3749 -6.99206,-8.4928 -15.6875,-18.5625 -7.06,-8.176 -12.57284,-14.6865 -16.28125,-19.2188 -1.32093,-1.6143 -2.09954,-2.6403 -2.9375,-3.7187 1.81367,-1.9144 4.33651,-4.5045 7.125,-7.2813 2.88768,-2.8754 5.59515,-5.6472 7.6875,-7.875 1.04618,-1.1138 1.92292,-2.1039 2.625,-2.9062 0.70208,-0.8023 0.93663,-0.7019 1.90625,-2.5312 3.41384,-6.4382 1.18352,-13.9759 -4.8125,-17.9063 -2.17102,-1.423 -2.97183,-1.2967 -4.59375,-1.6875 -1.62192,-0.3908 -3.6017,-0.7834 -5.9375,-1.1875 -4.67161,-0.8081 -10.7226,-1.6575 -17.5,-2.4375 -7.66328,-0.8819 -15.11948,-1.0807 -36.53125,-1.0938 z m 238.3125,0 c -21.412352,0.011 -28.837932,0.212 -36.5,1.0938 -6.777467,0.78 -12.859643,1.6294 -17.53125,2.4375 -2.335803,0.4041 -4.315581,0.7967 -5.9375,1.1875 -1.621919,0.3908 -2.391684,0.2647 -4.5625,1.6875 -2.970229,1.947 -4.767379,4.8022 -5.6875,7.8125 -0.920121,3.0103 -1.042758,6.4258 0.625,9.7188 0.60029,1.185 0.729395,1.1663 1,1.5 0.270605,0.3336 0.561969,0.6729 0.90625,1.0624 0.688562,0.7792 1.570178,1.7525 2.625,2.875 2.109643,2.2451 4.901331,5.0992 7.875,8.0938 4.207007,4.2367 5.926938,6.0701 7.1875,7.4688 -1.01273,1.3635 -1.81017,2.5321 -4.15625,5.4687 -3.396423,4.2513 -7.993386,9.8437 -13.3125,16.25 -9.682534,11.6615 -14.496561,17.3865 -17.21875,21.375 -1.361094,1.9943 -2.31408,3.6988 -2.78125,5.75 -0.46717,2.0512 -0.170816,3.8983 0,4.9375 2.050675,12.4761 12.867522,23.9122 25.53125,29.0625 2.38433,0.9694 4.54712,1.5569 7.28125,1.5937 l 0.03125,0 c 1.088937,0.014 2.914323,-0.1777 4.53125,-0.8437 1.616927,-0.666 3.003768,-1.6082 4.78125,-2.9375 3.554965,-2.6586 8.818227,-7.1781 18.71875,-15.75 8.253971,-7.1463 14.676203,-12.6002 19.09375,-16.2188 1.512753,-1.2391 2.419636,-1.9589 3.4375,-2.75 1.917015,1.8188 4.5243109,4.354 7.3125,7.1563 2.8743551,2.8889 5.6481441,5.5943 7.875,7.6875 1.113428,1.0466 2.1043785,1.9539 2.90625,2.6562 0.801871,0.7024 0.702299,0.9357 2.53125,1.9063 6.437612,3.4159 13.978265,1.1532 17.90625,-4.8437 1.42093,-2.1697 1.297098,-2.9412 1.6875,-4.5626 0.390402,-1.6213 0.783627,-3.6015 1.1875,-5.9374 0.807747,-4.6719 1.656124,-10.7452 2.4375,-17.5313 0.884096,-7.6774 1.09375,-15.0574 1.09375,-36.5313 0.0033,-13.0992 -0.0058,-19.7469 -0.1875,-23.8124 -0.181744,-4.0656 -0.951271,-6.6162 -1.65625,-8.1563 -1.317875,-2.879 -4.153899,-5.7391 -7.03125,-7.0625 l -0.03125,0 c -1.529885,-0.7018 -4.095404,-1.5054 -8.15625,-1.6875 -4.060846,-0.1821 -10.697541,-0.1633 -23.8125,-0.1563 z m -238.3125,11.4376 c 21.33829,0.013 28.17589,0.2207 35.21875,1.0312 6.60661,0.7604 12.51627,1.5898 16.875,2.3438 2.17936,0.3769 3.98969,0.7351 5.21875,1.0312 0.47061,0.1134 0.81768,0.2791 1.125,0.4062 0.54663,0.6261 0.8896,2.0615 0.8125,2.5313 -0.13001,0.1866 -0.21933,0.3534 -0.375,0.5313 -0.5567,0.6361 -1.38785,1.5427 -2.375,2.5937 -1.9743,2.1021 -4.63272,4.8321 -7.4375,7.625 -2.87979,2.8677 -5.4757,5.5544 -7.40625,7.5937 -0.96527,1.0197 -1.76564,1.8688 -2.375,2.5626 -0.30468,0.3468 -0.54256,0.6202 -0.8125,0.9687 -0.13497,0.1742 -0.29118,0.3548 -0.5,0.6875 -0.10441,0.1664 -0.23116,0.3635 -0.40625,0.75 -0.17509,0.3865 -0.53502,0.8422 -0.5,2.5312 0.043,2.0447 0.47638,2.2944 0.6875,2.7188 0.21112,0.4244 0.40307,0.7014 0.59375,1 0.38137,0.5971 0.77969,1.1929 1.3125,1.9062 1.06563,1.4268 2.55625,3.2877 4.46875,5.625 3.825,4.6748 9.37033,11.2171 16.46875,19.4376 8.69072,10.0642 13.18978,15.3162 15.21875,18 0.94805,1.254 1.21744,1.7842 1.25,1.8437 -0.001,0.034 0,-0.023 0,0.031 0,1.6371 -3.54207,9.7353 -8.875,14.9374 -3.55651,3.4692 -10.43228,6.7544 -12.40625,6.9688 -1.19379,0.1296 -1.11792,0.039 -0.8125,0.125 0.30542,0.086 0.006,0.034 -1.15625,-0.7812 -0.17864,-0.1253 -2.91603,-2.2563 -6.1875,-4.9063 -3.27147,-2.65 -7.39049,-6.042 -11.59375,-9.5313 -8.1591,-6.7733 -14.94862,-12.3199 -19.875,-16.25 -2.46319,-1.965 -4.44603,-3.5109 -5.96875,-4.6562 -0.76136,-0.5727 -1.40584,-1.0499 -1.96875,-1.4375 -0.56291,-0.3876 -0.67786,-0.6079 -2.03125,-1.1563 -2.24555,-0.9099 -3.37408,-0.3359 -4.03125,-0.125 -0.65717,0.211 -0.98607,0.3965 -1.28125,0.5626 -0.59037,0.3321 -0.96406,0.5948 -1.375,0.9062 -0.82187,0.6229 -1.68597,1.3918 -2.75,2.3438 -2.12805,1.9039 -4.93252,4.5782 -8.25,7.875 -2.91046,2.8923 -5.71667,5.5939 -7.84375,7.5937 -1.06354,0.9999 -1.966,1.8201 -2.59375,2.375 -0.14524,0.1284 -0.20063,0.1853 -0.3125,0.2813 -0.0232,-0.021 -0.40303,0.077 -1.0625,-0.125 -0.6177,-0.189 -1.02007,-0.5519 -1.28125,-0.8126 -0.1276,-0.3063 -0.28659,-0.6905 -0.40625,-1.1874 -0.29586,-1.2288 -0.6544,-3.0391 -1.03125,-5.2188 -0.75371,-4.3593 -1.58195,-10.2589 -2.34375,-16.875 -0.8139,-7.0678 -1.02586,-13.82 -1.03125,-35.2188 -0.006,-13.0951 3.5e-4,-19.8419 0.15625,-23.3124 0.1559,-3.4706 0.0236,-2.5921 0.625,-3.9063 0.86003,-1.8788 -0.44132,-0.5733 1.4375,-1.4375 1.32209,-0.608 0.44417,-0.4703 3.90625,-0.625 3.46208,-0.1547 10.16993,-0.1627 23.28125,-0.1562 z m 238.3125,0 c 13.1109959,-0.01 19.850565,10e-4 23.3125,0.1562 3.461935,0.1552 2.581745,0.017 3.90625,0.625 1.878823,0.8642 0.546205,-0.4413 1.40625,1.4375 0.600102,1.3109 0.501047,0.4344 0.65625,3.9063 0.155203,3.4718 0.159563,10.2168 0.15625,23.3124 0,21.3976 -0.217046,28.1484 -1.03125,35.2188 -0.761797,6.6161 -1.590038,12.5157 -2.34375,16.875 -0.376856,2.1797 -0.735392,3.99 -1.03125,5.2188 -0.113286,0.4704 -0.279275,0.8178 -0.40625,1.125 -0.607467,0.5591 -2.057125,0.89 -2.53125,0.8124 -0.186548,-0.1301 -0.353438,-0.2192 -0.53125,-0.375 -0.635897,-0.5569 -1.543113,-1.3561 -2.59375,-2.3437 -2.101274,-1.9752 -4.8331621,-4.6316 -7.625,-7.4375 -2.8659633,-2.8804 -5.5250395,-5.5052 -7.5625,-7.4375 -1.0187302,-0.9661 -1.8708079,-1.7656 -2.5625,-2.375 -0.345846,-0.3047 -0.6552549,-0.544 -1,-0.8125 -0.1723726,-0.1343 -0.330295,-0.262 -0.65625,-0.4688 -0.1629775,-0.1033 -0.3732554,-0.232 -0.75,-0.4062 -0.3767446,-0.1742 -0.7757023,-0.5372 -2.4375,-0.5312 -1.954961,0 -2.275764,0.4143 -2.71875,0.625 -0.442986,0.2106 -0.76051,0.4049 -1.0625,0.5937 -0.60398,0.3775 -1.177848,0.7953 -1.875,1.3125 -1.394303,1.0344 -3.183865,2.4409 -5.46875,4.3125 -4.569769,3.7432 -11.047214,9.2543 -19.34375,16.4375 -9.887159,8.5604 -15.222025,13.0945 -18.0625,15.2188 -1.420237,1.0621 -2.161034,1.4504 -2.28125,1.5 -0.120216,0.049 0.383451,0.01 -0.0625,0 0.06604,8e-4 -2.447776,-0.4747 -3.125,-0.75 -8.678052,-3.5294 -17.551133,-14.1595 -18.5625,-20.3126 -0.163677,-0.9958 -0.08939,-0.6875 -0.125,-0.5312 -0.03561,0.1563 0.09851,-0.3855 1.09375,-1.8438 1.990476,-2.9164 6.881006,-8.9022 16.5625,-20.5624 5.352878,-6.447 9.941606,-12.0696 13.40625,-16.4063 3.464644,-4.3367 5.564659,-6.9698 6.8125,-8.9687 0.451141,-0.7227 1.421735,-3.3304 0.9375,-5.3438 -0.484235,-2.0134 -1.333193,-2.9211 -2.1875,-3.9688 -1.708615,-2.0952 -4.323649,-4.7252 -9.40625,-9.8437 -2.90742,-2.9279 -5.615181,-5.7362 -7.625,-7.875 -1.00491,-1.0694 -1.848364,-1.9625 -2.40625,-2.5937 -0.125681,-0.1423 -0.186313,-0.2019 -0.28125,-0.3126 0.02886,0 -0.08226,-0.3844 0.125,-1.0624 0.18654,-0.6103 0.55176,-1.0155 0.8125,-1.2813 0.306365,-0.1277 0.689573,-0.3175 1.1875,-0.4375 1.229073,-0.2961 3.039387,-0.6543 5.21875,-1.0312 4.358726,-0.754 10.268323,-1.5834 16.875,-2.3438 7.044092,-0.8106 13.849778,-1.0207 35.1875,-1.0312 z m -184,179.3124 c -0.87126,0 -2.64262,0.1393 -4.21875,0.7813 -1.57613,0.642 -2.87565,1.5049 -4.5625,2.7813 -3.37369,2.5526 -8.49675,6.9884 -18.5625,15.6874 -8.17248,7.0629 -14.68833,12.6028 -19.21875,16.3126 -1.60539,1.3145 -2.61212,2.1008 -3.6875,2.9374 -1.91361,-1.8143 -4.5056,-4.3354 -7.28125,-7.125 -2.87439,-2.8889 -5.6794,-5.5943 -7.90625,-7.6874 -1.11342,-1.0466 -2.07317,-1.954 -2.875,-2.6563 -0.80183,-0.7023 -0.70378,-0.9361 -2.53125,-1.9063 -6.43766,-3.4157 -13.97833,-1.1534 -17.90625,4.8438 -1.42173,2.1709 -1.29694,2.9401 -1.6875,4.5625 -0.39056,1.6224 -0.78362,3.6321 -1.1875,5.9687 -0.80775,4.6734 -1.65782,10.72 -2.4375,17.5 -0.88145,7.6659 -1.08113,15.1107 -1.09375,36.5313 -0.006,13.0298 -0.0218,19.6806 0.15625,23.75 0.17806,4.0694 0.94949,6.6507 1.65625,8.1875 1.16899,2.5417 3.28158,5.2705 6.1875,6.6875 2.90592,1.417 5.8519,1.7531 9.6875,2.0313 11.51016,0.8343 49.33474,0.2566 60.1875,-0.9688 6.43448,-0.7266 12.36995,-1.5416 17,-2.3438 2.31503,-0.401 4.31469,-0.7978 5.9375,-1.1874 1.62281,-0.3897 2.37272,-0.2317 4.59375,-1.6876 2.97001,-1.9467 4.73517,-4.8014 5.65625,-7.8124 0.92108,-3.0111 1.07405,-6.4259 -0.59375,-9.7188 -0.59728,-1.179 -0.73007,-1.1669 -1,-1.5 -0.26993,-0.3331 -0.56336,-0.6743 -0.90625,-1.0625 -0.68579,-0.7764 -1.57537,-1.7264 -2.625,-2.8437 -2.09926,-2.2347 -4.85474,-5.0838 -7.8125,-8.0626 -3.12526,-3.1473 -5.60457,-5.7578 -7.28125,-7.625 0.99948,-1.3114 2.17069,-2.8154 3.8125,-4.875 3.85077,-4.8305 9.35785,-11.5682 16.09375,-19.6874 3.52039,-4.2434 6.95028,-8.4451 9.65625,-11.8126 2.70597,-3.3674 4.43166,-5.5216 5.46875,-7.0624 1.02746,-1.5266 2.06942,-2.8058 2.5625,-5.125 0.49308,-2.3193 0.0469,-3.9538 -0.28125,-5.7188 -1.426,-7.6709 -6.42329,-14.541 -12.40625,-20.0938 -5.98296,-5.5527 -12.88512,-10 -20.59375,-10 z m 128.28125,0.7813 c -0.846866,0.038 -1.57434,0.1646 -2.09375,0.25 -8.064386,1.3265 -16.197616,6.7461 -21.5,13.3125 -5.376285,6.6579 -9.15625,12.9536 -9.15625,19.7812 0.0013,1.15 0.248247,2.977 0.9375,4.5313 0.689253,1.5543 1.630981,2.9446 2.96875,4.7187 2.675537,3.5484 7.20261,8.7957 15.625,18.5313 7.143446,8.2573 12.601699,14.6744 16.21875,19.0937 1.245989,1.5224 1.926154,2.4789 2.71875,3.5 -1.816444,1.9155 -4.335952,4.5039 -7.125,7.2813 -2.887678,2.8755 -5.595163,5.6473 -7.6875,7.875 -1.046169,1.1139 -1.954201,2.1041 -2.65625,2.9063 -0.702049,0.8021 -0.905547,0.703 -1.875,2.5312 -3.41502,6.4409 -1.14532,13.9803 4.84375,17.9062 1.454485,0.9534 2.164557,1.0612 3.15625,1.3438 0.991693,0.2826 2.103958,0.5237 3.375,0.7812 2.542085,0.5152 5.728059,1.0491 9.40625,1.5626 7.356383,1.0269 16.613416,2.0191 25.71875,2.6874 l 6.125,0.4376 0,-0.3438 c 1.205102,0.01 1.561188,0.026 3.1875,0.031 4.751614,0.014 10.8626092,0.01 17.21875,-0.031 10.990025,-0.069 16.77434,-0.1095 20.46875,-0.3125 3.69441,-0.203 6.121135,-0.9043 7.75,-1.625 l 0.03125,0 c 2.881475,-1.2755 5.771205,-4.1217 7.09375,-7 l 0,-0.031 c 0.702134,-1.531 1.505667,-4.0941 1.6875,-8.1562 0.181833,-4.0621 0.163001,-10.6924 0.15625,-23.8125 -0.0107,-21.4211 -0.212271,-28.8663 -1.09375,-36.5313 -0.779619,-6.78 -1.629764,-12.8266 -2.4375,-17.5 -0.403868,-2.3366 -0.796937,-4.3463 -1.1875,-5.9687 -0.390563,-1.6224 -0.265746,-2.3916 -1.6875,-4.5625 l -0.03125,0 c -1.945984,-2.9695 -4.771414,-4.7665 -7.78125,-5.6875 -3.009836,-0.921 -6.425209,-1.0445 -9.71875,0.625 -1.186019,0.6011 -1.166432,0.7292 -1.5,1 -0.333568,0.2708 -0.673066,0.5618 -1.0625,0.9063 -0.7788673,0.6888 -1.7529321,1.5697 -2.875,2.625 -2.2441358,2.1105 -5.1003047,4.9001 -8.09375,7.875 -4.2349939,4.2087 -6.0707322,5.9264 -7.46875,7.1874 -1.3639989,-1.0139 -2.505419,-1.8118 -5.4375,-4.1562 -4.24955,-3.3978 -9.846374,-7.9912 -16.25,-13.3125 -11.656831,-9.6864 -17.387868,-14.4953 -21.375,-17.2187 -1.993566,-1.3618 -3.698421,-2.3449 -5.75,-2.8126 -1.02579,-0.2338 -1.996884,-0.257 -2.84375,-0.2187 z m -128.28125,10.6563 c 2.38324,0 8.15007,2.6103 12.8125,6.9374 4.66243,4.3272 8.2906,10.1646 8.96875,13.8126 0.321,1.7267 0.17551,1.8943 0.3125,1.25 0.13699,-0.6444 0.16298,-0.3708 -0.84375,1.125 -0.0977,0.145 -2.24809,2.9733 -4.90625,6.2812 -2.65816,3.3079 -6.07898,7.4886 -9.5625,11.6875 -6.76668,8.1563 -12.28937,14.9146 -16.21875,19.8437 -1.96469,2.4646 -3.51073,4.4446 -4.65625,5.9688 -0.57276,0.7621 -1.04983,1.4053 -1.4375,1.9688 -0.38767,0.5634 -0.60867,0.6786 -1.15625,2.0312 -0.90842,2.2448 -0.36698,3.3746 -0.15625,4.0312 0.21073,0.6567 0.42784,0.9862 0.59375,1.2813 0.33182,0.5902 0.59498,0.964 0.90625,1.375 0.62254,0.8221 1.36094,1.7168 2.3125,2.7813 1.90313,2.1288 4.57946,4.9311 7.875,8.25 2.89117,2.9116 5.59472,5.7157 7.59375,7.8437 0.99952,1.064 1.85152,1.9345 2.40625,2.5625 0.12909,0.1462 0.15372,0.2314 0.25,0.3438 -0.0185,0.032 0.10686,0.3754 -0.0937,1.0312 -0.18697,0.6112 -0.58118,1.0147 -0.84375,1.2812 -0.31507,0.1319 -0.6953,0.3194 -1.1875,0.4376 -1.23791,0.2972 -3.02829,0.6571 -5.1875,1.0312 -4.31842,0.7482 -10.10087,1.5763 -16.34375,2.2812 -7.76718,0.8771 -49.14498,1.5527 -58.0625,0.9063 -3.37071,-0.2444 -5.09378,-0.7082 -5.5,-0.9063 -0.40622,-0.198 -0.2392,0.127 -0.84375,-1.1874 -0.56751,-1.2341 -0.44106,-0.4166 -0.59375,-3.9063 -0.15269,-3.4897 -0.16269,-10.2248 -0.15625,-23.25 0.0126,-21.347 0.22104,-28.1724 1.03125,-35.2187 0.76006,-6.6094 1.59004,-12.5144 2.34375,-16.875 0.37686,-2.1804 0.7352,-3.989 1.03125,-5.2188 0.11314,-0.47 0.24793,-0.8174 0.375,-1.125 0.615,-0.566 2.11305,-0.9024 2.5625,-0.8125 0.18651,0.1301 0.35343,0.2192 0.53125,0.375 0.63594,0.557 1.54311,1.3562 2.59375,2.3437 2.10128,1.9752 4.83319,4.6316 7.625,7.4376 2.86646,2.8808 5.52397,5.5061 7.5625,7.4374 1.01927,0.9657 1.86886,1.7654 2.5625,2.375 0.34682,0.3049 0.65139,0.5424 1,0.8126 0.1743,0.135 0.35445,0.2596 0.6875,0.4687 0.16652,0.1045 0.36314,0.231 0.75,0.4063 0.38686,0.1752 0.81053,0.5668 2.5,0.5312 l 0.0312,0 c 2.0424,-0.046 2.26385,-0.4764 2.6875,-0.6875 0.42365,-0.2111 0.70178,-0.403 1,-0.5937 0.59644,-0.3815 1.19327,-0.8108 1.90625,-1.3438 1.42595,-1.066 3.28858,-2.5243 5.625,-4.4375 4.67283,-3.8263 11.22036,-9.3986 19.4375,-16.5 10.06029,-8.6943 15.31744,-13.1891 18,-15.2187 1.27741,-0.9666 1.83819,-1.2292 1.875,-1.25 z M -60,1286.9375 c -0.157484,-0.036 0.386226,0.098 1.84375,1.0937 2.915049,1.9912 8.875672,6.9085 20.53125,16.5938 6.444321,5.3552 12.071305,9.9402 16.40625,13.4062 4.334945,3.4661 6.970378,5.564 8.96875,6.8126 0.722497,0.4513 3.3293544,1.4223 5.34375,0.9374 2.0143956,-0.4848 2.9527593,-1.3327 4,-2.1874 2.09448147,-1.7095 4.6961155,-4.3216 9.8125,-9.4063 2.9267942,-2.9086 5.737067,-5.6144 7.875,-7.625 1.068966,-1.0053 1.962761,-1.8482 2.59375,-2.4063 0.14215,-0.1257 0.201952,-0.1862 0.3125,-0.2812 -0.0052,0.03 0.385355,-0.082 1.0625,0.125 0.625001,0.1913 1.023755,0.5836 1.28125,0.8438 0.127664,0.3074 0.32035,0.6696 0.4375,1.1562 0.296046,1.2298 0.654404,3.0384 1.03125,5.2188 0.753692,4.3606 1.583756,10.2656 2.34375,16.875 0.810439,7.0472 1.020592,13.8722 1.03125,35.2187 0.0067,13.1164 -0.0012,19.8487 -0.15625,23.3125 -0.155053,3.4638 -0.04888,2.5818 -0.65625,3.9062 l 0.03125,0 c -0.881147,1.9177 0.521053,0.5045 -1.375,1.3438 -1.129429,0.4998 -0.652746,0.4549 -3.75,0.625 -3.097254,0.1701 -8.926501,0.2435 -19.90625,0.3125 -6.3230568,0.04 -12.420786,0.045 -17.125,0.031 -4.704214,-0.014 -8.598925,-0.101 -8.5,-0.094 -8.844753,-0.6492 -17.917751,-1.6407 -24.96875,-2.625 -3.525499,-0.4922 -6.54807,-0.9664 -8.71875,-1.4062 -1.08534,-0.22 -1.958699,-0.4396 -2.5,-0.5938 -0.04426,-0.013 -0.05239,-0.017 -0.09375,-0.031 -0.668568,-0.5631 -1.034537,-2.1706 -0.9375,-2.6876 0.130046,-0.1865 0.219315,-0.3533 0.375,-0.5312 0.556765,-0.6362 1.356574,-1.5427 2.34375,-2.5938 1.974352,-2.1021 4.632721,-4.832 7.4375,-7.625 2.879213,-2.8671 5.506018,-5.5554 7.4375,-7.5937 0.965741,-1.0191 1.734568,-1.8705 2.34375,-2.5625 0.304591,-0.346 0.575333,-0.6239 0.84375,-0.9688 0.134208,-0.1724 0.262145,-0.3614 0.46875,-0.6874 0.103303,-0.1631 0.232163,-0.3419 0.40625,-0.7188 0.172523,-0.3735 0.531128,-0.8126 0.53125,-2.4375 0,-0.015 5.4e-5,-0.016 0,-0.031 -0.0067,-1.9124 -0.416229,-2.248 -0.625,-2.6874 -0.21044,-0.443 -0.405117,-0.7605 -0.59375,-1.0626 -0.377265,-0.6041 -0.795523,-1.1775 -1.3125,-1.875 -1.033954,-1.3948 -2.441662,-3.2141 -4.3125,-5.5 -3.741676,-4.5716 -9.257204,-11.0126 -16.4375,-19.3124 -8.408302,-9.7194 -12.939925,-15.0709 -15.125,-17.9688 -1.066679,-1.4146 -1.496185,-2.1649 -1.59375,-2.375 0.01295,-1.1692 2.165876,-7.0791 6.59375,-12.5625 2.946116,-3.6484 11.627836,-8.7515 14.46875,-9.2187 0.995322,-0.1638 0.688734,-0.1204 0.53125,-0.1563 z"
         id="path3769"
         inkscape:connector-curvature="0" />
    </g>
  </g>
</svg>
