<?xml version="1.0" encoding="UTF-8" standalone="no"?>
<!-- Created with Inkscape (http://www.inkscape.org/) -->

<svg
   xmlns:dc="http://purl.org/dc/elements/1.1/"
   xmlns:cc="http://creativecommons.org/ns#"
   xmlns:rdf="http://www.w3.org/1999/02/22-rdf-syntax-ns#"
   xmlns:svg="http://www.w3.org/2000/svg"
   xmlns="http://www.w3.org/2000/svg"
   xmlns:sodipodi="http://sodipodi.sourceforge.net/DTD/sodipodi-0.dtd"
   xmlns:inkscape="http://www.inkscape.org/namespaces/inkscape"
   width="28"
   height="28"
   id="svg2"
   version="1.1"
   inkscape:version="0.48.4 r9939"
   sodipodi:docname="new.svg">
  <defs
     id="defs4" />
  <sodipodi:namedview
     id="base"
     pagecolor="#ffffff"
     bordercolor="#666666"
     borderopacity="1.0"
     inkscape:pageopacity="0.0"
     inkscape:pageshadow="2"
     inkscape:zoom="22.4"
     inkscape:cx="19.207251"
     inkscape:cy="14.292074"
     inkscape:document-units="px"
     inkscape:current-layer="g4441"
     showgrid="false"
     inkscape:window-width="1920"
     inkscape:window-height="1137"
     inkscape:window-x="-8"
     inkscape:window-y="-8"
     inkscape:window-maximized="1"
     inkscape:snap-center="true" />
  <metadata
     id="metadata7">
    <rdf:RDF>
      <cc:Work
         rdf:about="">
        <dc:format>image/svg+xml</dc:format>
        <dc:type
           rdf:resource="http://purl.org/dc/dcmitype/StillImage" />
        <dc:title />
      </cc:Work>
    </rdf:RDF>
  </metadata>
  <g
     inkscape:label="Layer 1"
     inkscape:groupmode="layer"
     id="layer1"
     transform="translate(0,-1024.3622)">
    <g
       id="g4441"
       transform="matrix(0.08748833,0,0,0.08742175,24.823021,929.59518)"
       style="fill:#000000">
      <path
         style="fill:#000000"
         d="m -202.7043,1404.1467 c -9.4638,-1.4779 -15.4264,-3.6013 -21.9362,-7.812 -10.2587,-6.6356 -17.6827,-17.117 -21.0381,-29.7023 -1.1223,-4.2092 -1.1695,-9.1587 -1.1695,-122.5062 0,-113.3474 0.047,-118.2969 1.1695,-122.5061 4.0866,-15.3281 13.6014,-26.783 27.6375,-33.273 9.7352,-4.5014 6.9621,-4.3248 67.9337,-4.3248 52.153696,0 54.952196,0.057 58.196396,1.1871 4.9548,1.7258 9.991,4.8598 16.5138,10.2763 7.7887,6.4677 58.4741,57.317 64.1514,64.3588 5.2260001,6.4822 9.2675001,14.097 10.1882001,19.1962 0.41900001,2.3211 0.57220001,34.4117 0.44700001,93.6812 -0.2125,100.6565 0.1533,92.4815 -4.60380001,102.8965 -5.0665001,11.0924 -13.0569001,19.0595 -24.3546001,24.2833 -9.8749,4.5659 -3.621,4.268 -92.048496,4.3846 -43.7368,0.058 -80.2258,-0.01 -81.0868,-0.1396 z m 156.819296,-24.6595 c 10.5731,-1.7327 18.9532,-10.3901 20.4382,-21.1145 0.3613,-2.609 0.5301,-36.4977 0.4271,-85.7552 -0.1585,-75.833 -0.2448,-81.5779 -1.2535,-83.4227 -1.4722,-2.6927 -3.7978,-4.4073 -7.6124,-5.6123 -2.6614,-0.8408 -7.5831,-1.0592 -29.1866,-1.2957 -14.4273,-0.1579 -26.8731,-0.5595 -27.9812,-0.903 -2.7988,-0.8674 -5.044,-2.7847 -6.3972,-5.4628 -1.0535,-2.0851 -1.1887,-4.681 -1.5066,-28.9224 -0.2131,-16.2552 -0.6212,-27.7305 -1.047396,-29.4516 -0.9699,-3.9168 -3.4553,-7.453 -5.9804,-8.5089 -1.774,-0.7418 -9.6409,-0.89 -47.0766,-0.887 -26.1834,0 -46.5015,0.2585 -48.6715,0.6141 -10.4171,1.7071 -18.8999,10.3411 -20.4064,20.77 -0.765,5.2952 -0.765,223.8868 0,229.182 1.4631,10.1281 10.0349,19.0835 19.8425,20.7304 4.4452,0.7465 151.871096,0.7838 156.411996,0.04 z"
         id="path3842"
         inkscape:connector-curvature="0" />
      <path
         style="fill:#ffffff;fill-opacity:1;fill-rule:nonzero;stroke:none"
         d="M 11.597412,1.1448263 C 10.063687,1.1713208 8.5261327,1.1197663 6.9950121,1.218766 5.4986717,1.4532689 4.3111926,2.9208937 4.4142994,4.4372182 4.3647123,10.716305 4.3692567,16.995954 4.4067751,23.275114 c -0.027289,0.69018 0.052974,1.406171 0.4370093,1.999177 0.5228892,0.863863 1.4591145,1.533712 2.498605,1.515067 2.8089906,0.06388 5.6205236,0.0338 8.4305236,0.04239 1.711921,-0.01908 3.426922,0.03244 5.13672,-0.05913 1.226994,-0.126327 2.240522,-1.129691 2.580358,-2.287531 0.192172,-0.634093 0.06119,-1.31149 0.102635,-1.964694 5.64e-4,-4.257673 0.0591,-8.516646 -0.0454,-12.7734031 C 23.550961,9.1311776 23.382509,8.4411191 22.81248,8.1110656 22.065334,7.5557495 21.081869,7.695379 20.209385,7.6307352 19.213035,7.5963968 17.821609,7.5458583 17.211251,7.5357303 17.128276,5.9618288 17.15346,4.3812841 17.022914,2.8105629 16.885722,1.9677772 16.175382,1.1530488 15.27078,1.1753388 14.048275,1.1174012 12.821117,1.1534398 11.597412,1.1448263 z"
         id="path2989"
         inkscape:connector-curvature="0"
         transform="matrix(11.430096,0,0,11.438801,-283.72951,1084.0211)"
         sodipodi:nodetypes="ccccccccccccccccc" />
    </g>
  </g>
</svg>
