<?xml version="1.0" encoding="UTF-8" standalone="no"?>
<!-- Created with Inkscape (http://www.inkscape.org/) -->

<svg
   xmlns:dc="http://purl.org/dc/elements/1.1/"
   xmlns:cc="http://creativecommons.org/ns#"
   xmlns:rdf="http://www.w3.org/1999/02/22-rdf-syntax-ns#"
   xmlns:svg="http://www.w3.org/2000/svg"
   xmlns="http://www.w3.org/2000/svg"
   xmlns:sodipodi="http://sodipodi.sourceforge.net/DTD/sodipodi-0.dtd"
   xmlns:inkscape="http://www.inkscape.org/namespaces/inkscape"
   width="28"
   height="28"
   id="svg2"
   version="1.1"
   inkscape:version="0.48.4 r9939"
   sodipodi:docname="open.svg">
  <defs
     id="defs4" />
  <sodipodi:namedview
     id="base"
     pagecolor="#ffffff"
     bordercolor="#666666"
     borderopacity="1.0"
     inkscape:pageopacity="0.0"
     inkscape:pageshadow="2"
     inkscape:zoom="15.839192"
     inkscape:cx="8.0725274"
     inkscape:cy="19.968147"
     inkscape:document-units="px"
     inkscape:current-layer="layer1"
     showgrid="false"
     inkscape:window-width="1920"
     inkscape:window-height="1137"
     inkscape:window-x="-8"
     inkscape:window-y="-8"
     inkscape:window-maximized="1"
     inkscape:snap-center="true" />
  <metadata
     id="metadata7">
    <rdf:RDF>
      <cc:Work
         rdf:about="">
        <dc:format>image/svg+xml</dc:format>
        <dc:type
           rdf:resource="http://purl.org/dc/dcmitype/StillImage" />
        <dc:title />
      </cc:Work>
    </rdf:RDF>
  </metadata>
  <g
     inkscape:label="Layer 1"
     inkscape:groupmode="layer"
     id="layer1"
     transform="translate(0,-1024.3622)">
    <path
       inkscape:connector-curvature="0"
       id="path3825"
       d="m 19.84878,1051.8826 c -0.553597,0.317 -1.238812,0.1191 -1.847321,0.1919 -4.997147,0.04 -9.9956965,0.082 -14.992405,0.01 -0.5031538,-0.093 -0.3630202,-0.7599 -0.4150425,-1.1422 -0.095603,-5.2822 -0.04562,-10.566 -0.059985,-15.8487 0.020366,-3.1796 -0.032462,-6.3614 0.06609,-9.5395 0.00475,-0.573 0.69985,-0.4236 1.0883741,-0.4686 5.0654259,-0.118 10.1339649,-0.098 15.1999329,-0.029 0.380494,-0.01 0.95567,0.046 0.962392,0.5578 0.112473,2.5381 0.04433,5.0828 0.06841,7.6233 0.0017,6.1472 2.8e-4,12.2942 7.65e-4,18.4415 -0.02374,0.067 -0.04747,0.1352 -0.0712,0.2028 z"
       style="fill:#decd87;stroke:none" />
    <path
       inkscape:connector-curvature="0"
       id="path3829"
       d="m 26.051813,1048.5857 c -0.03364,0.9331 0.03584,1.8821 -0.107744,2.8054 -0.294061,0.4252 -1.025325,0.2577 -1.508356,0.3282 -1.385264,0.01 -2.789218,0.066 -4.163113,0.017 -0.133515,-0.5491 -0.01636,-1.1817 -0.05588,-1.7619 0,-8.2838 0,-16.5678 0,-24.8515 0.290581,-0.2403 0.873145,-0.016 1.273287,-0.077 0.529486,0.066 1.2875,-0.087 1.635685,0.3403 0.201314,0.5665 0.03593,1.1876 0.105296,1.7723 0.07466,5.1865 0.02107,10.3806 0.168955,15.5623 0.217884,0.6492 1.093531,0.9471 1.672413,1.3409 0.352025,0.2705 1.059864,0.4174 0.945172,0.9156 0.04829,1.2018 0.04075,2.4052 0.03428,3.6075 z"
       style="fill:#fff6d5;stroke:none" />
    <path
       inkscape:connector-curvature="0"
       id="path3813"
       d="m 1.7876357,1051.334 c 0.131832,0.343 0.4898765,0.7195 0.8555268,0.8995 l 0.2613648,0.1287 11.0958917,0 11.095892,0 0.261365,-0.1287 c 0.376491,-0.1854 0.723738,-0.5556 0.858219,-0.915 0.110056,-0.2942 0.113281,-0.3995 0.112774,-3.6844 l -8.74e-4,-3.3815 -0.16201,-0.2825 c -0.187817,-0.3274 -0.40436,-0.5131 -1.23422,-1.0581 -0.331503,-0.2177 -0.658216,-0.4471 -0.72602,-0.5097 l -0.123291,-0.114 0,-8.2897 c 0,-8.2374 -8.74e-4,-8.2917 -0.112932,-8.5916 -0.136736,-0.3655 -0.47206,-0.726 -0.846837,-0.9104 l -0.273105,-0.1344 -9.97261,0 -9.9726012,0 -0.2613648,0.1287 c -0.3764905,0.1854 -0.7237384,0.5557 -0.8582193,0.9151 l -0.1132898,0.3028 0.00288,12.6692 c 0.0028,12.5601 0.00376,12.6716 0.1131237,12.956 z m 1.0872031,-25.6128 c 0.076293,-0.1251 0.1742578,-0.1939 0.3422562,-0.2401 0.1789436,-0.049 2.1338075,-0.056 8.153188,-0.029 l 7.917806,0.036 0.150689,0.1637 0.15068,0.1638 0,12.5462 0,12.5462 -0.15068,0.1638 -0.150689,0.1638 -7.917806,0.036 c -6.0193805,0.027 -7.9742444,0.021 -8.153188,-0.029 -0.1679984,-0.046 -0.2659632,-0.115 -0.3422562,-0.2401 -0.1051596,-0.1725 -0.1068818,-0.3769 -0.1068818,-12.6411 0,-12.2642 0.00175,-12.4686 0.1068818,-12.641 z m 17.8379102,12.641 c 0,-6.9164 -0.01788,-12.6555 -0.03972,-12.7534 l -0.03972,-0.1781 0.861637,0 c 1.014591,0 1.236153,0.047 1.384839,0.2907 0.10426,0.171 0.106568,0.3518 0.10794,8.4761 0.0013,7.9151 0.006,8.3116 0.101322,8.5206 0.162639,0.3567 0.358525,0.5441 1.036324,0.9915 0.353201,0.2331 0.746975,0.5077 0.875056,0.6102 l 0.232883,0.1864 0,3.1607 c 0,3.0339 -0.0045,3.1678 -0.106742,3.3355 -0.07159,0.1174 -0.174878,0.1937 -0.314867,0.2325 -0.128475,0.036 -0.969105,0.058 -2.193254,0.058 l -1.984937,0 0.03972,-0.1781 c 0.02185,-0.098 0.03973,-5.837 0.03973,-12.7534 z"
       style="fill:#000000" />
    <path
       inkscape:connector-curvature="0"
       id="path3819"
       d="m 19.214476,1050.8403 c -0.316639,0.1464 -0.760034,0.023 -1.124563,0.068 -4.822869,0.014 -9.647221,0.098 -14.469327,0.03 -0.186253,-0.037 -0.517515,0.018 -0.462011,-0.2736 -0.06826,-5.828 -0.02856,-11.6577 -0.0333,-17.4863 0.02223,-2.4426 -0.03002,-4.8989 0.07078,-7.3335 1.492089,-0.078 3.01329,-0.03 4.516092,-0.047 3.811756,-2e-4 7.623494,0.015 11.435243,0.022 0.28512,0.2979 0.07244,0.7848 0.138107,1.166 0,7.9227 0,15.8454 0,23.7682 l -0.03998,0.049 -0.03105,0.038 z"
       style="fill:#decd87;stroke:none" />
  </g>
</svg>
