<?xml version="1.0" encoding="UTF-8" standalone="no"?>
<!-- Created with Inkscape (http://www.inkscape.org/) -->

<svg
   xmlns:dc="http://purl.org/dc/elements/1.1/"
   xmlns:cc="http://creativecommons.org/ns#"
   xmlns:rdf="http://www.w3.org/1999/02/22-rdf-syntax-ns#"
   xmlns:svg="http://www.w3.org/2000/svg"
   xmlns="http://www.w3.org/2000/svg"
   xmlns:sodipodi="http://sodipodi.sourceforge.net/DTD/sodipodi-0.dtd"
   xmlns:inkscape="http://www.inkscape.org/namespaces/inkscape"
   width="28"
   height="28"
   id="svg2"
   version="1.1"
   inkscape:version="0.48.4 r9939"
   sodipodi:docname="refresh.svg">
  <defs
     id="defs4" />
  <sodipodi:namedview
     id="base"
     pagecolor="#ffffff"
     bordercolor="#666666"
     borderopacity="1.0"
     inkscape:pageopacity="0.0"
     inkscape:pageshadow="2"
     inkscape:zoom="22.4"
     inkscape:cx="-11.048671"
     inkscape:cy="14.785635"
     inkscape:document-units="px"
     inkscape:current-layer="g4441"
     showgrid="false"
     inkscape:window-width="1920"
     inkscape:window-height="1137"
     inkscape:window-x="-8"
     inkscape:window-y="-8"
     inkscape:window-maximized="1"
     inkscape:snap-center="true" />
  <metadata
     id="metadata7">
    <rdf:RDF>
      <cc:Work
         rdf:about="">
        <dc:format>image/svg+xml</dc:format>
        <dc:type
           rdf:resource="http://purl.org/dc/dcmitype/StillImage" />
        <dc:title />
      </cc:Work>
    </rdf:RDF>
  </metadata>
  <g
     inkscape:label="Layer 1"
     inkscape:groupmode="layer"
     id="layer1"
     transform="translate(0,-1024.3622)">
    <g
       id="g4441"
       transform="matrix(0.08748833,0,0,0.08742175,24.823021,929.59518)"
       style="fill:#000000">
      <path
         style="fill:#89a3bd;fill-opacity:1;stroke:#000000;stroke-width:11.43444729;stroke-miterlimit:4;stroke-opacity:1;stroke-dasharray:none"
         d="m -150.24781,1375.045 -37.67419,-23.5431 37.64422,-23.541 c 20.70427,-12.9476 37.87451,-23.632 38.15589,-23.7429 0.2815,-0.1106 0.5118,5.3645 0.5118,12.1682 l 0,12.37 3.78481,-0.7341 c 20.98773,-4.0706 39.048417,-15.2375 52.095222,-32.2099 11.310622,-14.7138 17.411461,-32.8897 17.384564,-51.7928 -0.02947,-20.795 -7.067434,-39.5784 -20.901147,-55.7831 -3.937979,-4.6131 -4.026164,-4.7884 -2.92889,-5.8261 0.622207,-0.5884 7.792932,-7.142 15.934918,-14.5632 l 14.803622,-13.4937 3.23766,3.5745 c 23.1477716,25.5558 35.598162,61.5364 32.931003,95.1689 -2.5481486,32.1323 -15.075794,59.4611 -37.568073,81.9535 -21.11682,21.1171 -44.427326,32.4567 -76.502749,37.2157 l -2.27094,0.337 0,12.9926 c 0,7.146 -0.2168,12.9926 -0.48184,12.9926 -0.26492,0 -17.43515,-10.5944 -38.15588,-23.5431 z m -69.67704,-45.4464 c -22.79737,-25.6513 -34.76949,-60.5715 -32.24762,-94.0603 2.42311,-32.1775 14.97999,-59.6745 37.56536,-82.2599 21.11682,-21.117 44.42733,-32.4566 76.50288,-37.2158 l 2.27095,-0.3369 0,-12.9927 c 0,-7.146 0.21678,-12.9925 0.48169,-12.9925 0.26506,0 17.43518,10.5944 38.156011,23.5431 l 37.674189,23.5431 -37.644212,23.541 c -20.704398,12.9476 -37.874518,23.6318 -38.156018,23.7428 -0.28138,0.1105 -0.51166,-5.3659 -0.51166,-12.1713 l 0,-12.3733 -3.24626,0.5091 c -18.83727,2.9539 -39.12543,15.1929 -51.55433,31.1008 -26.18338,33.512 -24.44179,79.7818 4.17833,111.0046 l 2.38813,2.6052 -1.46868,1.4088 c -3.33298,3.1968 -30.25722,27.5963 -30.45188,27.5963 -0.11665,0 -1.88775,-1.8864 -3.93688,-4.1921 z"
         id="path3800"
         inkscape:connector-curvature="0" />
    </g>
  </g>
</svg>
