<?xml version="1.0" encoding="UTF-8" standalone="no"?>
<!-- Created with Inkscape (http://www.inkscape.org/) -->

<svg
   xmlns:dc="http://purl.org/dc/elements/1.1/"
   xmlns:cc="http://creativecommons.org/ns#"
   xmlns:rdf="http://www.w3.org/1999/02/22-rdf-syntax-ns#"
   xmlns:svg="http://www.w3.org/2000/svg"
   xmlns="http://www.w3.org/2000/svg"
   xmlns:sodipodi="http://sodipodi.sourceforge.net/DTD/sodipodi-0.dtd"
   xmlns:inkscape="http://www.inkscape.org/namespaces/inkscape"
   width="28"
   height="28"
   id="svg2"
   version="1.1"
   inkscape:version="0.48.4 r9939"
   sodipodi:docname="removeimage.svg">
  <defs
     id="defs4" />
  <sodipodi:namedview
     id="base"
     pagecolor="#ffffff"
     bordercolor="#666666"
     borderopacity="1.0"
     inkscape:pageopacity="0.0"
     inkscape:pageshadow="2"
     inkscape:zoom="11.2"
     inkscape:cx="17.297639"
     inkscape:cy="23.822824"
     inkscape:document-units="px"
     inkscape:current-layer="layer1"
     showgrid="false"
     inkscape:window-width="1920"
     inkscape:window-height="1137"
     inkscape:window-x="-8"
     inkscape:window-y="-8"
     inkscape:window-maximized="1" />
  <metadata
     id="metadata7">
    <rdf:RDF>
      <cc:Work
         rdf:about="">
        <dc:format>image/svg+xml</dc:format>
        <dc:type
           rdf:resource="http://purl.org/dc/dcmitype/StillImage" />
        <dc:title />
      </cc:Work>
    </rdf:RDF>
  </metadata>
  <g
     inkscape:label="Layer 1"
     inkscape:groupmode="layer"
     id="layer1"
     transform="translate(0,-1024.3622)">
    <g
       id="g3005">
      <path
         inkscape:connector-curvature="0"
         id="path3211"
         d="m 7.904223,1043.1348 c -0.722384,0.086 -1.557056,-0.146 -2.207031,0.2427 -0.533278,0.8996 -1.208408,1.7904 -1.383928,2.8432 -0.149696,0.7526 0.06349,1.5502 0.665813,2.0498 0.546469,0.6289 1.34242,0.9921 2.180169,0.9246 1.968511,0.019 3.949597,0.05 5.91052,-0.01 0.688374,-0.208 0.323862,-1.098 0.414815,-1.6317 -0.03887,-1.3626 0.07794,-2.7512 -0.05831,-4.0974 -0.308038,-0.5959 -1.14434,-0.2296 -1.691135,-0.3307 -1.276964,0 -2.553987,-0.01 -3.830916,0.01 z"
         style="fill:#676c53;fill-opacity:1;fill-rule:nonzero;stroke:none" />
      <path
         inkscape:connector-curvature="0"
         id="path3213"
         d="m 11.258019,1025.3251 c -1.115753,-0.071 -2.414997,0.1876 -3.014071,1.2368 -1.099409,1.7641 -2.175127,3.5729 -3.132693,5.4261 -0.08739,0.7057 0.798481,0.8727 1.236104,1.2296 1.142031,0.6562 2.261746,1.3678 3.443025,1.9429 0.740558,0 0.84805,-0.9556 1.244478,-1.4278 1.450091,-2.5366 2.942142,-5.0545 4.405634,-7.5789 0.25976,-0.5528 -0.365804,-0.9076 -0.867745,-0.8064 -1.10459,-0.027 -2.209878,-0.032 -3.314732,-0.022 z"
         style="fill:#676c53;fill-opacity:1;fill-rule:nonzero;stroke:none" />
      <path
         inkscape:connector-curvature="0"
         id="path3215"
         d="m 23.31159,1033.5589 c -1.476607,0.8537 -3.015866,1.6132 -4.391741,2.6228 -0.434292,0.5709 0.315986,1.1601 0.515649,1.6839 0.96143,1.6377 1.85156,3.3206 2.852326,4.929 0.494947,0.3997 1.226475,0.077 1.821714,0.1505 1.007372,-0.015 2.299321,-0.068 2.809753,-1.105 0.413229,-0.8319 0.715637,-1.8933 0.142236,-2.7309 -0.966667,-1.8529 -2.018428,-3.6769 -3.146095,-5.4289 -0.140262,-0.1823 -0.40588,-0.2105 -0.603842,-0.1214 z"
         style="fill:#676c53;fill-opacity:1;fill-rule:nonzero;stroke:none" />
      <path
         inkscape:connector-curvature="0"
         id="path3217"
         d="m 6.202214,1034.7531 c -0.934913,0.096 -1.90718,0.102 -2.806919,0.3822 -0.737836,0.7708 -1.169402,1.792 -1.750133,2.6822 -0.532286,0.9775 -1.37767,2.1207 -0.858684,3.2777 0.778465,1.5621 1.651185,3.0861 2.606027,4.548 0.35095,0.3893 0.879055,0.033 1.026785,-0.3823 1.310508,-2.3547 2.69782,-4.6807 3.987343,-7.0436 0.07504,-0.6467 -0.453748,-1.2171 -0.630074,-1.8301 -0.32772,-0.5205 -0.347096,-1.374 -0.982827,-1.6062 -0.197,-0.015 -0.393577,-0.041 -0.591518,-0.028 z"
         style="fill:#a7ac93;fill-opacity:1;fill-rule:nonzero;stroke:none" />
      <path
         inkscape:connector-curvature="0"
         id="path3219"
         d="m 17.650318,1025.3641 c -1.594412,0.056 -2.588328,1.5517 -3.186319,2.8587 -0.532862,0.6933 0.247057,1.3459 0.519793,1.9658 0.64199,1.0695 1.208221,2.1986 1.901785,3.2287 0.48704,0.3697 1.186701,0.2582 1.763625,0.3899 0.691367,0.043 1.415249,0.2563 2.089843,0.042 0.569684,-0.9595 0.891126,-2.0634 1.361607,-3.0804 0.06923,-0.6946 -0.574212,-1.2202 -0.819494,-1.8379 -0.723571,-1.1262 -1.228383,-2.496 -2.350148,-3.2988 -0.383481,-0.2318 -0.840614,-0.2861 -1.280692,-0.2679 z"
         style="fill:#a7ac93;fill-opacity:1;fill-rule:nonzero;stroke:none" />
      <path
         inkscape:connector-curvature="0"
         id="path3221"
         d="m 23.194402,1043.1125 c -2.133083,0.031 -4.279502,0 -6.403907,0.091 -0.599578,0.2697 -0.848459,1.0061 -1.29824,1.4717 -0.287416,0.5066 -0.899365,0.9172 -0.905288,1.5325 0.426628,1.0412 1.262009,1.8667 1.880315,2.8002 0.564916,0.4169 1.349273,0.1105 2.008927,0.2055 1.186499,-0.046 2.400406,0.1002 3.569086,-0.071 1.333939,-0.6382 1.81496,-2.127 2.572252,-3.2863 0.366505,-0.7267 0.91378,-1.3845 1.14661,-2.1661 -0.108062,-0.7408 -1.004263,-0.531 -1.531808,-0.5775 -0.34597,0 -0.691971,0 -1.037947,0 z"
         style="fill:#a7ac93;fill-opacity:1;fill-rule:nonzero;stroke:none" />
      <path
         style="fill:#000000"
         d="m 16.088713,1049.5048 c -1.04161,-1.3866 -1.91236,-2.5225 -1.93501,-2.5242 -0.0226,0 -0.0412,0.6402 -0.0412,1.4263 l 0,1.4293 -3.93864,-0.017 c -3.813741,-0.016 -3.948381,-0.02 -4.245851,-0.1291 -0.44107,-0.1617 -0.76721,-0.3661 -1.15042,-0.7209 -0.63148,-0.5846 -0.69332,-0.6807 -2.53644,-3.9408 -0.64862,-1.1473 -1.36845,-2.4071 -1.59962,-2.7996 -0.5138,-0.8724 -0.63811,-1.2439 -0.64143,-1.9169 -0.003,-0.5217 0.0516,-0.856 0.1938,-1.1964 0.0466,-0.1117 0.48052,-0.8748 0.96416,-1.6959 0.48363,-0.8211 0.87281,-1.4981 0.86484,-1.5044 -0.008,-0.01 -0.40974,-0.2394 -0.89281,-0.5179 -0.48306,-0.2785 -0.8964,-0.5236 -0.91853,-0.5446 -0.0221,-0.021 1.36738,-0.2093 3.08778,-0.4185 1.72041,-0.2091 3.12712,-0.3936 3.12603,-0.4099 -0.001,-0.016 -0.5448,-0.3384 -1.20825,-0.7158 -0.85451,-0.486 -1.20054,-0.7106 -1.18659,-0.7699 0.0295,-0.1254 3.53363,-6.1851 3.76311,-6.5075 0.39016,-0.5481 0.98701,-0.9493 1.76267,-1.1848 0.40962,-0.1243 0.4321,-0.1251 4.446401,-0.1439 2.86137,-0.013 4.13049,-8e-4 4.36407,0.044 0.72147,0.1369 1.57664,0.6927 1.94657,1.265 0.11574,0.1791 0.55171,0.931 0.96881,1.6708 0.4171,0.7398 0.78057,1.3451 0.80772,1.3451 0.0271,0 0.45418,-0.2337 0.94899,-0.5193 0.4948,-0.2856 0.89964,-0.5067 0.89964,-0.4914 0,0.015 -0.51611,1.2433 -1.14691,2.7288 -1.40644,3.312 -1.32755,3.1214 -1.28019,3.0938 2.11862,-1.2324 2.44942,-1.4093 2.51002,-1.3422 0.13438,0.1486 3.67869,6.3447 3.8087,6.6582 0.18497,0.446 0.22548,1.2897 0.0889,1.8516 -0.18919,0.7784 -0.27192,0.9356 -2.3046,4.3789 -0.57925,0.9812 -1.23523,2.1052 -1.45773,2.4977 -0.59909,1.0568 -1.04925,1.4772 -1.96154,1.8322 l -0.37007,0.1439 -1.90643,-0.014 -1.90642,-0.014 -0.0149,1.0977 -0.0149,1.0978 -1.89384,-2.5212 z m -3.01916,-3.3231 0,-2.6075 -3.501321,0 -3.50131,0 -0.56207,0.9775 c -0.67441,1.1728 -0.78248,1.4385 -0.81934,2.0142 -0.0334,0.5211 0.0261,0.6983 0.39569,1.1786 0.42146,0.5477 0.94297,0.9031 1.45161,0.9891 0.13826,0.024 1.66559,0.046 3.39406,0.049 l 3.142681,0.01 0,-2.6074 z m 9.02296,2.4217 c 0.48113,-0.2362 0.73722,-0.5243 1.20111,-1.3513 0.22864,-0.4076 0.80076,-1.3921 1.27138,-2.1878 0.47062,-0.7958 0.85568,-1.4718 0.85568,-1.5023 0,-0.031 -0.055,-0.041 -0.12351,-0.022 -0.0679,0.018 -1.99166,0.033 -4.27494,0.034 l -4.15143,8e-4 -0.96743,1.2895 c -0.53209,0.7092 -0.96743,1.3023 -0.96743,1.318 0,0.016 0.43606,0.6097 0.96902,1.3201 l 0.96901,1.2916 2.44813,-0.016 2.44813,-0.016 0.32228,-0.1583 z m -18.186991,-3.3437 c 0.0493,-0.127 0.99366,-1.7953 2.0985,-3.7074 l 2.0088,-3.4765 -0.60639,-1.4365 c -0.33352,-0.79 -0.628,-1.4594 -0.65441,-1.4875 -0.0593,-0.063 -3.1023,0.2956 -3.20704,0.3781 -0.0877,0.069 -2.19464,3.6374 -2.34228,3.967 -0.13612,0.3038 -0.18434,0.8536 -0.10664,1.2159 0.0414,0.1932 0.25048,0.6121 0.62867,1.2598 0.31162,0.5337 0.89649,1.5566 1.29971,2.2732 0.40323,0.7166 0.74624,1.2898 0.76226,1.2738 0.016,-0.016 0.0695,-0.133 0.11882,-0.2599 z m 12.183191,-2.4019 1.89384,-2.5217 0.0149,1.0976 0.0149,1.0975 1.67313,0 c 0.92022,0 1.67313,-0.013 1.67313,-0.029 0,-0.016 -0.83009,-1.4655 -1.84463,-3.2216 -1.72818,-2.9914 -1.83821,-3.1977 -1.74289,-3.2676 0.056,-0.041 0.60198,-0.3625 1.21336,-0.7145 0.61138,-0.3519 1.1116,-0.6539 1.1116,-0.6712 0,-0.017 -1.3895,-0.1992 -3.08778,-0.4043 -1.69828,-0.2051 -3.10967,-0.3785 -3.13641,-0.3854 -0.0267,-0.01 0.37585,-0.256 0.89465,-0.5536 0.69288,-0.3976 0.93497,-0.5629 0.912,-0.6227 -0.0172,-0.045 -0.39314,-0.7091 -0.83542,-1.4761 l -0.80415,-1.3946 -0.0952,0.1534 c -0.0523,0.084 -0.87771,1.512 -1.83416,3.1725 -0.95645,1.6605 -1.7596,3.0406 -1.78478,3.0668 -0.0254,0.026 -0.591571,-0.2691 -1.271681,-0.6638 -0.67425,-0.3913 -1.23248,-0.7067 -1.24053,-0.7009 -0.008,0.01 0.51952,1.2679 1.17236,2.8047 0.65283,1.5367 1.208691,2.8503 1.235231,2.9191 0.0577,0.1494 0.13867,0.1876 -0.976751,-0.4599 -0.44156,-0.2562 -0.82969,-0.4552 -0.8625,-0.442 -0.049,0.02 -1.60986,2.674 -1.66989,2.8398 -0.011,0.03 1.45504,0.051 3.691621,0.051 l 3.70991,0 0,1.4273 c 0,0.7849 0.0185,1.4258 0.0412,1.4241 0.0226,0 0.8934,-1.1378 1.93501,-2.5248 z m 9.41431,-0.4531 c 0.15096,-0.049 0.41033,-0.1707 0.57638,-0.2697 0.2638,-0.1574 0.32775,-0.2322 0.50648,-0.5919 0.37844,-0.7616 0.46089,-1.5279 0.22272,-2.0699 -0.18171,-0.4135 -3.17143,-5.5563 -3.23128,-5.5583 -0.0923,0 -4.44338,2.5228 -4.43103,2.5723 0.01,0.04 2.46154,4.3062 3.18423,5.5412 l 0.30005,0.5128 1.29899,-0.023 c 1.00287,-0.018 1.36156,-0.044 1.57346,-0.1131 z m -13.834,-10.6601 c 2.91326,-5.0513 3.12207,-5.4057 3.34202,-5.6717 l 0.21245,-0.2569 -1.55729,-0.044 c -1.99126,-0.056 -3.31722,-0.022 -3.753051,0.095 -0.50182,0.1354 -0.88006,0.3413 -1.10965,0.6039 -0.18213,0.2083 -3.27084,5.4887 -3.31847,5.6731 -0.0112,0.043 0.84116,0.5681 2.20305,1.356 1.22173,0.7068 2.22546,1.2801 2.2305,1.274 0.005,-0.01 0.792741,-1.3696 1.750441,-3.0301 z m 8.92722,1.4405 c 0.0789,-0.1885 0.35896,-0.8511 0.62234,-1.4724 l 0.47888,-1.1298 -1.10808,-1.9717 c -1.19376,-2.1243 -1.37017,-2.3646 -1.9509,-2.658 -0.23839,-0.1204 -0.34229,-0.1372 -0.84806,-0.1372 -0.55253,0 -0.59418,0.01 -1.00634,0.2053 -0.64585,0.3084 -0.99071,0.6894 -1.61911,1.789 -0.28162,0.4928 -0.49934,0.925 -0.48383,0.9604 0.0155,0.036 0.59281,1.0398 1.28288,2.232 l 1.25465,2.1675 1.37003,0.1721 c 0.75352,0.095 1.48119,0.1752 1.61706,0.1788 l 0.24702,0.01 0.14346,-0.3427 z"
         id="path3065"
         inkscape:connector-curvature="0" />
    </g>
  </g>
</svg>
