<?xml version="1.0" encoding="UTF-8" standalone="no"?>
<!-- Created with Inkscape (http://www.inkscape.org/) -->

<svg
   xmlns:dc="http://purl.org/dc/elements/1.1/"
   xmlns:cc="http://creativecommons.org/ns#"
   xmlns:rdf="http://www.w3.org/1999/02/22-rdf-syntax-ns#"
   xmlns:svg="http://www.w3.org/2000/svg"
   xmlns="http://www.w3.org/2000/svg"
   xmlns:sodipodi="http://sodipodi.sourceforge.net/DTD/sodipodi-0.dtd"
   xmlns:inkscape="http://www.inkscape.org/namespaces/inkscape"
   width="20"
   height="20"
   id="svg2"
   version="1.1"
   inkscape:version="0.48.4 r9939"
   sodipodi:docname="removecard.svg">
  <defs
     id="defs4">
    <inkscape:path-effect
       effect="spiro"
       id="path-effect3766"
       is_visible="true" />
  </defs>
  <sodipodi:namedview
     id="base"
     pagecolor="#ffffff"
     bordercolor="#666666"
     borderopacity="1.0"
     inkscape:pageopacity="0.0"
     inkscape:pageshadow="2"
     inkscape:zoom="11.25"
     inkscape:cx="8.7402221"
     inkscape:cy="15.566753"
     inkscape:document-units="px"
     inkscape:current-layer="layer1"
     showgrid="false"
     inkscape:window-width="948"
     inkscape:window-height="829"
     inkscape:window-x="136"
     inkscape:window-y="160"
     inkscape:window-maximized="0" />
  <metadata
     id="metadata7">
    <rdf:RDF>
      <cc:Work
         rdf:about="">
        <dc:format>image/svg+xml</dc:format>
        <dc:type
           rdf:resource="http://purl.org/dc/dcmitype/StillImage" />
        <dc:title />
      </cc:Work>
    </rdf:RDF>
  </metadata>
  <g
     inkscape:label="Layer 1"
     inkscape:groupmode="layer"
     id="layer1"
     transform="translate(0,-1032.3622)">
    <g
       id="g3755"
       transform="matrix(0.98810088,0,0,0.98734357,0.11899127,13.192598)">
      <g
         style="stroke-width:0.5;stroke-miterlimit:4;stroke-dasharray:none"
         id="g3798">
        <path
           style="fill:#b53838;fill-opacity:1;stroke:#000000;stroke-width:0.50621521;stroke-miterlimit:4;stroke-opacity:1;stroke-dasharray:none"
           d="m 9.0470659,1052.2028 c -0.7883674,-0.088 -1.6610166,-0.2807 -2.3131705,-0.5106 -3.2078503,-1.1308 -5.6395286,-3.868 -6.36996034,-7.1704 -0.27106424,-1.2256 -0.30525092,-2.5875 -0.0959834,-3.825 0.6500802,-3.8447 3.54396004,-6.9706 7.32850084,-7.9158 1.4798429,-0.3697 3.0796845,-0.3912 4.5698955,-0.061 3.777668,0.8355 6.758388,3.8729 7.520774,7.6637 0.148804,0.74 0.180364,1.0864 0.180364,1.9799 0,1.079 -0.09085,1.7704 -0.357973,2.7249 -0.334559,1.1954 -1.018846,2.5091 -1.819695,3.4934 -1.422954,1.7492 -3.418915,2.9754 -5.604246,3.4432 -0.84257,0.1803 -2.2707179,0.2641 -3.0384864,0.1783 z m -1.9027624,-5.2521 c 0.031698,-4e-4 0.6889574,-0.631 1.4606956,-1.4016 l 1.4031449,-1.4012 1.382674,1.3822 c 1.47693,1.4765 1.50852,1.5016 1.793656,1.4197 0.196499,-0.056 1.358372,-1.2203 1.41063,-1.4132 0.07732,-0.2854 0.05125,-0.3182 -1.421394,-1.7914 l -1.381786,-1.3821 1.382517,-1.383 c 1.476772,-1.4772 1.501765,-1.5088 1.419991,-1.7939 -0.05638,-0.1965 -1.220401,-1.3584 -1.413266,-1.4106 -0.285403,-0.077 -0.318237,-0.051 -1.791345,1.4214 l -1.3822,1.3818 -1.3829315,-1.3826 c -1.4772162,-1.4767 -1.5087861,-1.5018 -1.7939219,-1.4199 -0.1964994,0.056 -1.3583726,1.2203 -1.4106302,1.4132 -0.07732,0.2855 -0.05125,0.3182 1.4213937,1.7914 l 1.3817957,1.3822 -1.3817957,1.3821 c -1.0441256,1.0445 -1.3912459,1.4152 -1.4204754,1.5171 -0.07574,0.264 -0.010566,0.3664 0.6569037,1.0324 0.605683,0.6044 0.7526995,0.7107 0.9303873,0.6732 0.043153,-0.01 0.1043079,-0.017 0.1359568,-0.017 z"
           id="path3786"
           inkscape:connector-curvature="0" />
        <rect
           style="fill:#b53838;fill-opacity:1;fill-rule:nonzero;stroke:none"
           id="rect3794"
           width="10.933333"
           height="11.377777"
           x="4.3555555"
           y="4.1777782"
           transform="translate(0,1032.3622)" />
        <rect
           style="fill:#ffffff;fill-opacity:1;fill-rule:nonzero;stroke:#000000;stroke-width:0.50621521;stroke-miterlimit:4;stroke-opacity:1;stroke-dasharray:none"
           id="rect3796"
           width="10.992592"
           height="3.3777778"
           x="4.5037041"
           y="1040.6733"
           ry="1.4404532"
           rx="1.4393492" />
      </g>
    </g>
  </g>
</svg>
