<?xml version="1.0" encoding="UTF-8" standalone="no"?>
<!-- Created with Inkscape (http://www.inkscape.org/) -->

<svg
   xmlns:dc="http://purl.org/dc/elements/1.1/"
   xmlns:cc="http://creativecommons.org/ns#"
   xmlns:rdf="http://www.w3.org/1999/02/22-rdf-syntax-ns#"
   xmlns:svg="http://www.w3.org/2000/svg"
   xmlns="http://www.w3.org/2000/svg"
   xmlns:sodipodi="http://sodipodi.sourceforge.net/DTD/sodipodi-0.dtd"
   xmlns:inkscape="http://www.inkscape.org/namespaces/inkscape"
   width="28"
   height="28"
   id="svg2"
   version="1.1"
   inkscape:version="0.48.4 r9939"
   sodipodi:docname="study.svg">
  <defs
     id="defs4" />
  <sodipodi:namedview
     id="base"
     pagecolor="#ffffff"
     bordercolor="#666666"
     borderopacity="1.0"
     inkscape:pageopacity="0.0"
     inkscape:pageshadow="2"
     inkscape:zoom="22.4"
     inkscape:cx="5.4935076"
     inkscape:cy="8.7704322"
     inkscape:document-units="px"
     inkscape:current-layer="g4441"
     showgrid="false"
     inkscape:window-width="1920"
     inkscape:window-height="1137"
     inkscape:window-x="-8"
     inkscape:window-y="-8"
     inkscape:window-maximized="1"
     inkscape:snap-center="true" />
  <metadata
     id="metadata7">
    <rdf:RDF>
      <cc:Work
         rdf:about="">
        <dc:format>image/svg+xml</dc:format>
        <dc:type
           rdf:resource="http://purl.org/dc/dcmitype/StillImage" />
        <dc:title />
      </cc:Work>
    </rdf:RDF>
  </metadata>
  <g
     inkscape:label="Layer 1"
     inkscape:groupmode="layer"
     id="layer1"
     transform="translate(0,-1024.3622)">
    <g
       id="g4441"
       transform="matrix(0.08748833,0,0,0.08742175,24.823021,929.59518)"
       style="fill:#000000">
      <g
         id="g3000">
        <path
           transform="matrix(11.430096,0,0,11.438801,-283.72951,1084.0211)"
           inkscape:connector-curvature="0"
           id="path2996"
           d="M 3.6743112,0.68325084 C 3.2289573,0.9452169 3.4321767,1.5182044 3.3869228,1.9402263 c 0,6.3690478 0,12.7380947 0,19.1071427 0.01072,0.387264 0.4155413,0.555315 0.7546592,0.506154 2.3103901,0.04 4.6405725,0.249065 6.865318,0.893121 0.748921,0.227414 1.486638,0.504416 2.193569,0.84182 0.390731,0.158607 0.745906,-0.249665 0.675103,-0.629739 0.08436,-5.44639 0.04449,-10.893847 0.06194,-16.3407063 -0.02032,-0.7368388 0.04371,-1.4839652 -0.03044,-2.2142405 C 13.774171,3.7454778 13.384204,3.5531835 13.122369,3.2858921 11.320194,1.8017418 8.9713973,1.1946903 6.7016549,0.86461244 5.7479461,0.7509993 4.7835617,0.65427474 3.8252033,0.6541313 c -0.050297,0.009707 -0.1005948,0.019413 -0.1508921,0.0291195 z"
           style="fill:#ffffff;fill-opacity:1;fill-rule:nonzero;stroke:none" />
        <path
           transform="matrix(11.430096,0,0,11.438801,-283.72951,1084.0211)"
           inkscape:connector-curvature="0"
           id="path2994"
           d="M 1.1603603,4.1905053 C 0.84201743,4.4539098 0.48312742,4.7998261 0.57442278,5.2563535 c -2.7158e-4,6.4955355 2.3219e-4,12.9910715 0.001395,19.4866075 0.0526854,0.349249 0.33932036,0.615199 0.61244423,0.813337 0.7974057,0.07994 1.6080953,0.02187 2.4106661,0.04815 2.5231026,0.03034 5.0480245,0.0016 7.5698028,0.08997 0.223516,0.0017 0.269812,0.305832 0.428292,0.421317 0.740219,0.933215 2.049097,1.518703 3.216424,1.099917 0.846384,-0.248001 1.458933,-0.923316 2.012371,-1.571458 3.282193,-0.02505 6.568061,-0.02231 9.847952,-0.06681 0.360146,-0.06352 0.580025,-0.427727 0.735195,-0.729785 0.02643,-3.746023 0.005,-7.494616 0.01256,-11.241629 -0.0072,-2.892535 0.01437,-5.7885892 -0.01077,-8.6789278 C 27.34595,4.5787965 27.022,4.3366985 26.740717,4.154233 c -0.544743,-0.036929 -1.103256,-0.036463 -1.646359,-7.871e-4 -0.419697,0.05546 -0.445447,0.5457517 -0.412792,0.8796933 -0.01061,5.4459258 0.02337,10.8921358 -0.02204,16.3378768 0.05656,0.231762 -0.09018,0.286528 -0.297434,0.270661 -2.857262,0.166449 -5.792105,0.27758 -8.483538,1.353237 -0.662372,0.256757 -1.278601,0.613036 -1.881975,0.982143 -1.072095,-0.703204 -2.265392,-1.208311 -3.50865,-1.516462 C 8.216763,21.84801 5.8482317,21.784582 3.5124808,21.630516 3.2285081,21.674928 3.3752613,21.319055 3.3319198,21.146453 3.2959695,15.641547 3.322672,10.136368 3.3143781,4.6313535 3.3035857,4.2386263 2.8889256,4.0714618 2.547079,4.1319115 2.0876693,4.1581665 1.6072527,4.0718362 1.1603603,4.1905053 z"
           style="fill:#6c6753;fill-opacity:1;fill-rule:nonzero;stroke:none" />
        <path
           transform="matrix(11.430096,0,0,11.438801,-283.72951,1084.0211)"
           inkscape:connector-curvature="0"
           id="path2998"
           d="m 23.513876,0.66790485 c -2.589072,0.15784227 -5.262757,0.53809775 -7.543262,1.85366745 -0.667652,0.3983964 -1.305635,0.8753051 -1.823028,1.4534442 -0.184455,0.3450663 -0.04968,0.774549 -0.09102,1.1543839 -0.0027,5.9026656 -9.22e-4,11.8054386 0.05859,17.7078686 0.0089,0.413885 0.50738,0.618344 0.832828,0.392514 2.178398,-1.063991 4.612542,-1.402465 7.00144,-1.60495 0.748014,-0.06395 1.512381,-0.0324 2.258824,-0.101601 0.433353,-0.07087 0.42339,-0.580985 0.40077,-0.922291 0,-6.488096 0,-12.9761911 0,-19.4642861 -0.0114,-0.40319274 -0.446085,-0.5710121 -0.793417,-0.48501968 -0.100576,0.005423 -0.201152,0.0108464 -0.301728,0.0162696 z"
           style="fill:#ffffff;fill-opacity:1;fill-rule:nonzero;stroke:none" />
        <path
           inkscape:connector-curvature="0"
           id="path4976"
           d="m -128.40549,1403.9364 c -9.4761,-1.1333 -17.86847,-5.7068 -25.8159,-14.069 l -5.14767,-5.4165 -55.33569,-0.1803 -55.33581,-0.1804 -3.69511,-1.9709 c -4.29177,-2.2892 -7.86318,-6.7176 -9.15627,-11.3533 -0.68523,-2.457 -0.83771,-23.8014 -0.83771,-117.2976 l 0,-114.2939 1.61777,-3.5961 c 2.06169,-4.5827 4.98286,-7.6173 9.33877,-9.7011 3.04437,-1.4564 4.49464,-1.6829 12.37347,-1.9325 l 8.92488,-0.2828 0,-17.1826 c 0,-9.4504 0.25836,-17.8914 0.57425,-18.7577 0.31589,-0.8664 1.64207,-2.1036 2.94713,-2.7494 2.11808,-1.0481 3.51922,-1.1267 13.04788,-0.7319 48.31698,2.0017 83.2367,12.7354 106.96977,32.8803 l 4.22762,3.5884 4.2275,-3.5663 c 23.095947,-19.4834 55.943669,-30.0729 101.075,-32.5848 16.9891425,-0.9455 19.40427191,-0.6814 21.1813826,2.3169 1.2083283,2.0389 1.2827829,3.1687 1.2827829,19.4758 l 0,17.3113 8.9248805,0.2828 c 7.878698,0.2496 9.3291,0.4761 12.373339,1.9325 4.355913,2.0838 7.277079,5.1184 9.338772,9.7011 l 1.617765,3.5961 0,114.2939 c 0,93.4962 -0.152473,114.8406 -0.83771,117.2976 -1.293092,4.6357 -4.864495,9.0641 -9.156263,11.3533 l -3.695112,1.9709 -55.335813,0.1804 -55.335686,0.1803 -5.147677,5.4165 c -7.697971,8.0998 -16.487821,13.0057 -24.844681,13.8669 -1.91202,0.197 -4.04015,0.4411 -4.72907,0.5423 -0.68893,0.1005 -3.22548,-0.052 -5.63679,-0.3402 z m 10.45979,-13.0698 c 6.93828,-1.5352 14.27772,-6.6009 18.94558,-13.0763 1.629347,-2.2601 3.571149,-4.5593 4.315058,-5.1093 1.18644,-0.8769 8.372901,-1.0217 58.458455,-1.1765 l 57.105541,-0.1766 1.610766,-1.9961 1.610637,-1.9962 0,-113.3144 0,-113.3143 -1.830692,-1.9091 -1.83082,-1.9091 -8.184153,0 -8.1841528,0 -0.1626547,98.6012 -0.1625274,98.6013 -1.4003831,1.4602 c -1.3447648,1.4023 -2.11489277,1.4918 -19.415472,2.2568 -26.847187,1.1872 -40.533981,2.7732 -59.038307,6.8409 -17.502309,3.8476 -33.592905,10.3267 -42.813825,17.2396 -1.73307,1.2994 -3.79336,2.2817 -4.78546,2.2817 -0.99209,0 -3.05251,-0.9823 -4.78558,-2.2817 -9.22092,-6.9129 -25.31152,-13.392 -42.81382,-17.2396 -18.50433,-4.0677 -32.19112,-5.6537 -59.03831,-6.8409 -17.30058,-0.765 -18.07071,-0.8545 -19.41547,-2.2568 l -1.40038,-1.4602 -0.16253,-98.6013 -0.16266,-98.6012 -8.18415,0 -8.18415,0 -1.83069,1.9091 -1.83082,1.9091 0,113.3143 0,113.3144 1.61331,1.9995 1.61331,1.9993 57.10299,0.1734 c 64.99684,0.1972 58.02102,-0.4988 62.73979,6.2599 7.19244,10.3016 19.417,15.5514 30.50157,13.0989 z m -12.0255,-151.663 0,-106.6796 -3.94279,-3.9481 c -17.49327,-17.5167 -54.34868,-29.5644 -95.79661,-31.3149 l -9.86441,-0.4166 0,114.0697 0,114.0697 6.10655,0 c 21.17209,0.02 51.51852,3.7136 69.98976,8.5181 12.43748,3.2351 27.63755,8.7994 31.25502,11.4416 0.70319,0.5136 1.49762,0.9338 1.76553,0.9338 0.26778,0 0.48695,-48.0058 0.48695,-106.6797 z m 14.77867,105.7459 c 3.61734,-2.6422 18.817412,-8.2066 31.254898,-11.4417 18.471235,-4.8046 48.817662,-8.4979 69.989753,-8.5181 l 6.1065513,0 0,-114.0697 0,-114.0697 -9.8642813,0.4166 c -41.448055,1.7505 -78.303472,13.7981 -95.796611,31.3148 l -3.94292,3.9481 0,106.6796 c 0,58.674 0.21917,106.6797 0.48695,106.6797 0.26791,0 1.06235,-0.4202 1.76566,-0.9338 z"
           style="fill:#000000" />
      </g>
    </g>
  </g>
</svg>
